<?xml version="1.0" encoding="UTF-8" standalone="no"?>
<svg
   xmlns:dc="http://purl.org/dc/elements/1.1/"
   xmlns:cc="http://creativecommons.org/ns#"
   xmlns:rdf="http://www.w3.org/1999/02/22-rdf-syntax-ns#"
   xmlns:svg="http://www.w3.org/2000/svg"
   xmlns="http://www.w3.org/2000/svg"
   xmlns:sodipodi="http://sodipodi.sourceforge.net/DTD/sodipodi-0.dtd"
   xmlns:inkscape="http://www.inkscape.org/namespaces/inkscape"
   width="1024"
   height="1024"
   viewBox="0 0 270.93333 270.93333"
   version="1.1"
   id="svg8"
   inkscape:version="1.0.1 (3bc2e813f5, 2020-09-07)"
   sodipodi:docname="Icon_Balcony.svg">
  <defs
     id="defs2">
    <inkscape:path-effect
       effect="fillet_chamfer"
       id="path-effect1066"
       is_visible="true"
       lpeversion="1"
       satellites_param="F,0,0,1,0,0.52916667,0,1 @ F,0,0,1,0,0.52916667,0,1 @ F,0,0,1,0,0.52916667,0,1 @ F,0,0,1,0,0.52916667,0,1"
       unit="px"
       method="arc"
       mode="F"
       radius="2"
       chamfer_steps="1"
       flexible="false"
       use_knot_distance="true"
       apply_no_radius="true"
       apply_with_radius="true"
       only_selected="false"
       hide_knots="false" />
    <inkscape:path-effect
       effect="fillet_chamfer"
       id="path-effect1068"
       is_visible="true"
       lpeversion="1"
       satellites_param="F,0,0,1,0,0.52916667,0,1 @ F,0,0,1,0,0.52916667,0,1 @ F,0,0,1,0,0.52916667,0,1 @ F,0,0,1,0,0.52916667,0,1"
       unit="px"
       method="arc"
       mode="F"
       radius="2"
       chamfer_steps="1"
       flexible="false"
       use_knot_distance="true"
       apply_no_radius="true"
       apply_with_radius="true"
       only_selected="false"
       hide_knots="false" />
  </defs>
  <sodipodi:namedview
     id="base"
     pagecolor="#ffffff"
     bordercolor="#666666"
     borderopacity="1.0"
     inkscape:pageopacity="0.0"
     inkscape:pageshadow="2"
     inkscape:zoom="0.7"
     inkscape:cx="494.81616"
     inkscape:cy="562.42846"
     inkscape:document-units="mm"
     inkscape:current-layer="layer1"
     inkscape:document-rotation="0"
     showgrid="false"
     units="px"
     inkscape:snap-bbox="true"
     inkscape:bbox-paths="true"
     inkscape:bbox-nodes="true"
     inkscape:snap-bbox-edge-midpoints="true"
     inkscape:snap-bbox-midpoints="true"
     inkscape:object-paths="true"
     inkscape:snap-intersection-paths="true"
     inkscape:snap-smooth-nodes="true"
     inkscape:snap-midpoints="true"
     inkscape:snap-object-midpoints="true"
     inkscape:snap-center="true"
     inkscape:snap-text-baseline="true"
     inkscape:snap-page="true"
     inkscape:window-width="1920"
     inkscape:window-height="1017"
     inkscape:window-x="1912"
     inkscape:window-y="-7"
     inkscape:window-maximized="1" />
  <metadata
     id="metadata5">
    <rdf:RDF>
      <cc:Work
         rdf:about="">
        <dc:format>image/svg+xml</dc:format>
        <dc:type
           rdf:resource="http://purl.org/dc/dcmitype/StillImage" />
        <dc:title></dc:title>
      </cc:Work>
    </rdf:RDF>
  </metadata>
  <g
     inkscape:label="Ebene 1"
     inkscape:groupmode="layer"
     id="layer1">
    <g
       id="g75"
       transform="matrix(21.333333,0,0,21.333333,305.14905,-14.858959)">
      <g
         id="g1064"
         transform="matrix(0.1548387,0,0,0.1548387,-28.57114,-12.827996)"
         inkscape:export-filename="C:\Users\Kevin Mudczinski\OneDrive\Smart_Home\Images\Room_Icons_2\Icon_Balcony.png"
         inkscape:export-xdpi="384"
         inkscape:export-ydpi="384">
        <path
           id="path1044"
           style="fill:#d3d3d3;fill-opacity:1;stroke:#1b1f37;stroke-width:0;stroke-linejoin:bevel;paint-order:markers stroke fill"
           d="m 129.18426,103.22071 v 47.625 h 2.64583 v -44.97917 h 23.8125 v 44.97917 h 2.64583 v -47.625 h -2.64583 -23.8125 z" />
        <path
           id="path1046"
           style="fill:#d3d3d3;fill-opacity:1;stroke:#1b1f37;stroke-width:0;stroke-linejoin:bevel;paint-order:markers stroke fill"
           d="m 105.37176,103.22071 v 47.625 h 2.64583 v -44.97917 h 23.8125 v 44.97917 h 2.64583 v -47.625 h -2.64583 -23.8125 z" />
        <rect
           style="fill:#949494;fill-opacity:1;stroke:#1b1f37;stroke-width:0;stroke-linejoin:bevel;paint-order:markers stroke fill"
           id="rect1048"
           width="23.8125"
           height="44.979168"
           x="108.01759"
           y="105.86652" />
        <rect
           style="fill:#d4eff0;fill-opacity:1;stroke:#1b1f37;stroke-width:0;stroke-linejoin:bevel;paint-order:markers stroke fill"
           id="rect1050"
           width="21.166666"
           height="26.458334"
           x="109.3405"
           y="107.18943" />
        <rect
           style="fill:#d4eff0;fill-opacity:1;stroke:#1b1f37;stroke-width:0;stroke-linejoin:bevel;paint-order:markers stroke fill"
           id="rect1052"
           width="21.166666"
           height="14.552082"
           x="109.34052"
           y="134.97067" />
        <path
           style="fill:#a0a0a0;fill-opacity:1;stroke:#1b1f37;stroke-width:0;stroke-linejoin:bevel;paint-order:markers stroke fill"
           id="path1054"
           width="3.968749"
           height="1.3229158"
           x="126.40613"
           y="129.679"
           inkscape:path-effect="#path-effect1066"
           sodipodi:type="rect"
           d="m 126.93529,129.679 h 2.91042 a 0.52916667,0.52916667 45 0 1 0.52917,0.52917 v 0.26458 a 0.52916667,0.52916667 135 0 1 -0.52917,0.52917 h -2.91042 a 0.52916667,0.52916667 45 0 1 -0.52916,-0.52917 v -0.26458 a 0.52916667,0.52916667 135 0 1 0.52916,-0.52917 z" />
        <rect
           style="fill:#949494;fill-opacity:1;stroke:#1b1f37;stroke-width:0;stroke-linejoin:bevel;paint-order:markers stroke fill"
           id="rect1056"
           width="23.8125"
           height="44.979168"
           x="-155.64259"
           y="105.86652"
           transform="scale(-1,1)" />
        <rect
           style="fill:#d4eff0;fill-opacity:1;stroke:#1b1f37;stroke-width:0;stroke-linejoin:bevel;paint-order:markers stroke fill"
           id="rect1058"
           width="21.166666"
           height="26.458334"
           x="-154.31969"
           y="107.18944"
           transform="scale(-1,1)" />
        <rect
           style="fill:#d4eff0;fill-opacity:1;stroke:#1b1f37;stroke-width:0;stroke-linejoin:bevel;paint-order:markers stroke fill"
           id="rect1060"
           width="21.166666"
           height="14.552082"
           x="-154.31966"
           y="134.97069"
           transform="scale(-1,1)" />
        <path
           style="fill:#a0a0a0;fill-opacity:1;stroke:#1b1f37;stroke-width:0;stroke-linejoin:bevel;paint-order:markers stroke fill"
           id="path1062"
           width="3.968749"
           height="1.3229158"
           x="-137.25406"
           y="129.67902"
           inkscape:path-effect="#path-effect1068"
           sodipodi:type="rect"
           transform="scale(-1,1)"
           d="m -136.72489,129.67902 h 2.91041 a 0.52916667,0.52916667 45 0 1 0.52917,0.52916 v 0.26459 a 0.52916667,0.52916667 135 0 1 -0.52917,0.52916 h -2.91041 a 0.52916667,0.52916667 45 0 1 -0.52917,-0.52916 v -0.26459 a 0.52916667,0.52916667 135 0 1 0.52917,-0.52916 z" />
      </g>
      <path
         id="path1070"
         style="fill:#292929;fill-opacity:1;stroke:#1b1f37;stroke-width:0;stroke-linejoin:bevel;paint-order:markers stroke fill"
         d="m -14.303862,7.2513652 v 0.4096791 2.8677407 0.409677 H -1.6038626 V 10.528785 7.6610443 7.2513652 Z m 0.409677,0.4096791 h 0.819354 v 2.8677407 h -0.819354 z m 1.229033,0 h 0.819353 v 2.8677407 h -0.819353 z m 1.229032,0 h 0.819353 v 2.8677407 h -0.819353 z m 1.229032,0 h 0.8193544 v 2.8677407 h -0.8193544 z m 1.2290324,0 h 0.819354 v 2.8677407 h -0.819354 z m 1.229032,0 h 0.819354 v 2.8677407 h -0.819354 z m 1.229032,0 h 0.819354 v 2.8677407 h -0.819354 z m 1.229033,0 h 0.819353 v 2.8677407 h -0.819353 z m 1.229032,0 h 0.819353 v 2.8677407 h -0.819353 z m 1.229032,0 h 0.819354 v 2.8677407 h -0.819354 z"
         inkscape:export-filename="C:\Users\Kevin Mudczinski\OneDrive\Smart_Home\Images\Room_Icons_2\Icon_Balcony.png"
         inkscape:export-xdpi="384"
         inkscape:export-ydpi="384" />
      <path
         style="fill:#34cb3e;fill-opacity:1;stroke:#000000;stroke-width:0;stroke-linecap:butt;stroke-linejoin:miter;stroke-miterlimit:4;stroke-dasharray:none;stroke-opacity:1"
         d="m -3.1640616,7.2513652 c 0,0 0.190388,-0.3417435 -0.152388,-0.5442938 -0.342776,-0.2025502 -0.519357,0.1142591 -0.74268,0.2285182 -0.223324,0.1142571 -0.71152,-0.2908413 -1.376297,-0.3220029 -0.664777,-0.031162 -0.666563,0.6377785 -0.666563,0.6377785 z"
         id="path1074"
         inkscape:export-filename="C:\Users\Kevin Mudczinski\OneDrive\Smart_Home\Images\Room_Icons_2\Icon_Balcony.png"
         inkscape:export-xdpi="384"
         inkscape:export-ydpi="384" />
      <path
         style="fill:#299a1c;fill-opacity:1;stroke:#000000;stroke-width:0;stroke-linecap:butt;stroke-linejoin:miter;stroke-miterlimit:4;stroke-dasharray:none;stroke-opacity:1"
         d="m -6.2108316,7.2513652 c 0,0 -0.204495,-0.3670657 0.163678,-0.584623 0.368175,-0.2175574 0.557839,0.1227252 0.797709,0.2454484 0.239872,0.1227252 0.76424,-0.3123895 1.478274,-0.34586 0.714032,-0.03347 0.715951,0.6850346 0.715951,0.6850346 z"
         id="path1076"
         inkscape:export-filename="C:\Users\Kevin Mudczinski\OneDrive\Smart_Home\Images\Room_Icons_2\Icon_Balcony.png"
         inkscape:export-xdpi="384"
         inkscape:export-ydpi="384" />
      <g
         id="g1138"
         style="fill:#cccccc;fill-opacity:1"
         inkscape:export-filename="C:\Users\Kevin Mudczinski\OneDrive\Smart_Home\Images\Room_Icons_2\Icon_Balcony.png"
         inkscape:export-xdpi="384"
         inkscape:export-ydpi="384"
         transform="matrix(0.20634069,0,0,0.20634069,-16.185492,-16.586545)">
        <path
           style="fill:#cccccc;fill-opacity:1;stroke:#000000;stroke-width:0;stroke-linecap:butt;stroke-linejoin:miter;stroke-miterlimit:4;stroke-dasharray:none;stroke-opacity:1"
           d="m 63.633947,119.69436 1.070523,-4.16741 H 47.270207 l 1.070523,4.16741 z"
           id="path1072" />
        <path
           style="fill:#cccccc;fill-opacity:1;stroke:#000000;stroke-width:0;stroke-linecap:butt;stroke-linejoin:miter;stroke-miterlimit:4;stroke-dasharray:none;stroke-opacity:1"
           d="m 31.457391,119.69436 1.070523,-4.16741 H 15.093651 l 1.070523,4.16741 z"
           id="path1080" />
      </g>
      <path
         style="fill:#34cb3e;fill-opacity:1;stroke:#000000;stroke-width:0;stroke-linecap:butt;stroke-linejoin:miter;stroke-miterlimit:4;stroke-dasharray:none;stroke-opacity:1"
         d="m -9.8033946,7.2513652 c 0,0 0.190388,-0.3417435 -0.152387,-0.5442938 -0.3427774,-0.2025502 -0.5193584,0.1142591 -0.7426814,0.2285182 -0.223324,0.1142571 -0.71152,-0.2908413 -1.376297,-0.3220029 -0.664777,-0.031162 -0.666563,0.6377785 -0.666563,0.6377785 z"
         id="path1082"
         inkscape:export-filename="C:\Users\Kevin Mudczinski\OneDrive\Smart_Home\Images\Room_Icons_2\Icon_Balcony.png"
         inkscape:export-xdpi="384"
         inkscape:export-ydpi="384" />
      <path
         style="fill:#299a1c;fill-opacity:1;stroke:#000000;stroke-width:0;stroke-linecap:butt;stroke-linejoin:miter;stroke-miterlimit:4;stroke-dasharray:none;stroke-opacity:1"
         d="m -12.850165,7.2513652 c 0,0 -0.204495,-0.3670657 0.163678,-0.584623 0.368175,-0.2175574 0.557839,0.1227252 0.79771,0.2454484 0.239871,0.1227252 0.764239,-0.3123895 1.478273,-0.34586 0.7140334,-0.03347 0.7159524,0.6850346 0.7159524,0.6850346 z"
         id="path1084"
         inkscape:export-filename="C:\Users\Kevin Mudczinski\OneDrive\Smart_Home\Images\Room_Icons_2\Icon_Balcony.png"
         inkscape:export-xdpi="384"
         inkscape:export-ydpi="384" />
    </g>
  </g>
</svg>
