<?xml version="1.0" encoding="UTF-8" standalone="no"?>
<svg
   xmlns:dc="http://purl.org/dc/elements/1.1/"
   xmlns:cc="http://creativecommons.org/ns#"
   xmlns:rdf="http://www.w3.org/1999/02/22-rdf-syntax-ns#"
   xmlns:svg="http://www.w3.org/2000/svg"
   xmlns="http://www.w3.org/2000/svg"
   xmlns:sodipodi="http://sodipodi.sourceforge.net/DTD/sodipodi-0.dtd"
   xmlns:inkscape="http://www.inkscape.org/namespaces/inkscape"
   width="1024"
   height="1024"
   viewBox="0 0 270.93333 270.93333"
   version="1.1"
   id="svg8"
   inkscape:version="1.0.1 (3bc2e813f5, 2020-09-07)"
   sodipodi:docname="Icon_Garage_Tuning.svg">
  <defs
     id="defs2">
    <inkscape:path-effect
       effect="fillet_chamfer"
       id="path-effect972"
       is_visible="true"
       lpeversion="1"
       satellites_param="F,0,0,1,0,0,0,1 @ F,0,0,1,0,0,0,1 @ F,0,0,1,0,0,0,1 @ F,0,0,1,0,0,0,1"
       unit="px"
       method="auto"
       mode="F"
       radius="0"
       chamfer_steps="1"
       flexible="false"
       use_knot_distance="true"
       apply_no_radius="true"
       apply_with_radius="true"
       only_selected="false"
       hide_knots="false" />
    <inkscape:path-effect
       effect="fillet_chamfer"
       id="path-effect974"
       is_visible="true"
       lpeversion="1"
       satellites_param="F,0,0,1,0,0,0,1 @ F,0,0,1,0,0,0,1 @ F,0,0,1,0,0,0,1 @ F,0,0,1,0,0,0,1"
       unit="px"
       method="auto"
       mode="F"
       radius="0"
       chamfer_steps="1"
       flexible="false"
       use_knot_distance="true"
       apply_no_radius="true"
       apply_with_radius="true"
       only_selected="false"
       hide_knots="false" />
    <inkscape:path-effect
       effect="fillet_chamfer"
       id="path-effect976"
       is_visible="true"
       lpeversion="1"
       satellites_param="F,0,0,1,0,0,0,1 @ F,0,0,1,0,0,0,1 @ F,0,0,1,0,0,0,1 @ F,0,0,1,0,0,0,1 @ F,0,0,1,0,0,0,1"
       unit="px"
       method="auto"
       mode="F"
       radius="0"
       chamfer_steps="1"
       flexible="false"
       use_knot_distance="true"
       apply_no_radius="true"
       apply_with_radius="true"
       only_selected="false"
       hide_knots="false" />
  </defs>
  <sodipodi:namedview
     id="base"
     pagecolor="#ffffff"
     bordercolor="#666666"
     borderopacity="1.0"
     inkscape:pageopacity="0.0"
     inkscape:pageshadow="2"
     inkscape:zoom="0.7"
     inkscape:cx="102.98506"
     inkscape:cy="585.34281"
     inkscape:document-units="mm"
     inkscape:current-layer="layer1"
     inkscape:document-rotation="0"
     showgrid="false"
     units="px"
     inkscape:snap-center="true"
     inkscape:snap-object-midpoints="true"
     inkscape:snap-page="true"
     inkscape:window-width="1920"
     inkscape:window-height="1017"
     inkscape:window-x="1912"
     inkscape:window-y="-7"
     inkscape:window-maximized="1" />
  <metadata
     id="metadata5">
    <rdf:RDF>
      <cc:Work
         rdf:about="">
        <dc:format>image/svg+xml</dc:format>
        <dc:type
           rdf:resource="http://purl.org/dc/dcmitype/StillImage" />
        <dc:title></dc:title>
      </cc:Work>
    </rdf:RDF>
  </metadata>
  <g
     inkscape:label="Ebene 1"
     inkscape:groupmode="layer"
     id="layer1">
    <g
       id="g1893"
       inkscape:export-filename="C:\Users\Kevin Mudczinski\OneDrive\Smart_Home\Images\Room_Icons_2\Icon_Garage_Tuning.png"
       inkscape:export-xdpi="384"
       inkscape:export-ydpi="384"
       transform="matrix(4.5876329,0,0,4.5876329,-80.477612,-752.02274)">
      <rect
         style="fill:#666666;fill-opacity:1;stroke:#1b1f37;stroke-width:0;stroke-linejoin:bevel;stroke-miterlimit:4;stroke-dasharray:none;paint-order:markers stroke fill"
         id="rect1685"
         width="2.6889338"
         height="1.1443564"
         x="69.155678"
         y="199.74924" />
      <rect
         style="fill:#757575;fill-opacity:1;stroke:#1b1f37;stroke-width:0;stroke-linejoin:bevel;stroke-miterlimit:4;stroke-dasharray:none;paint-order:markers stroke fill"
         id="rect1545"
         width="3.4393771"
         height="1.4361575"
         x="22.086233"
         y="189.17467" />
      <rect
         style="fill:#959595;fill-opacity:1;stroke:#1b1f37;stroke-width:0;stroke-linejoin:bevel;stroke-miterlimit:4;stroke-dasharray:none;paint-order:markers stroke fill"
         id="rect1107"
         width="4.7624989"
         height="1.428153"
         x="0.62305921"
         y="191.88263"
         transform="rotate(-6.2634032)" />
      <path
         id="path1486"
         style="fill:#666666;fill-opacity:1;stroke:#1b1f37;stroke-width:0;stroke-linejoin:bevel;stroke-miterlimit:4;stroke-dasharray:none;paint-order:markers stroke fill"
         d="m 22.120105,190.97894 a 0.39687478,0.3968747 83.736597 0 0 -0.35122,0.43781 l 0.0722,0.6575 0.78901,-0.0866 -0.0722,-0.6575 a 0.39687478,0.3968747 83.736597 0 0 -0.4378,-0.35121 z m 0.92051,-0.10103 a 0.39687478,0.3968747 83.736597 0 0 -0.3512,0.43781 l 0.0722,0.6575 0.78901,-0.0866 -0.0722,-0.6575 a 0.39687478,0.3968747 83.736597 0 0 -0.43781,-0.35121 z m 0.92051,-0.10103 a 0.39687478,0.3968747 83.736597 0 0 -0.3512,0.43781 l 0.0722,0.6575 0.78901,-0.0866 -0.0722,-0.6575 a 0.39687478,0.3968747 83.736597 0 0 -0.43781,-0.35121 z m 0.92051,-0.10103 a 0.39687478,0.3968747 83.736597 0 0 -0.3512,0.43781 l 0.0722,0.6575 0.78902,-0.0866 -0.0722,-0.6575 a 0.39687478,0.3968747 83.736597 0 0 -0.43781,-0.35121 z m 0.92053,-0.10103 a 0.39687478,0.3968747 83.736597 0 0 -0.35122,0.43781 l 0.0722,0.6575 0.78901,-0.0866 -0.0722,-0.6575 a 0.39687478,0.3968747 83.736597 0 0 -0.4378,-0.35121 z" />
      <path
         id="rect1424"
         style="fill:#848484;fill-opacity:1;stroke:#1b1f37;stroke-width:0;stroke-linejoin:bevel;stroke-miterlimit:4;stroke-dasharray:none;paint-order:markers stroke fill"
         d="m 71.289655,184.23699 v 5.21828 0.0992 l -2.00918,2.00918 h -0.11317 v 0.52917 h 0.11317 0.11679 l 0.70177,-0.70177 v 1.04076 h -1.78594 v 0.52917 h 2.75332 0.11679 l 2.42155,-2.42156 v -0.11679 -2.75332 -3.34966 h -0.52916 v 3.34966 2.75332 l -2.00918,2.00918 v -1.04076 -0.96738 l 0.75241,-0.75241 v -0.11679 -0.0992 -5.21828 z" />
      <path
         id="rect871"
         style="fill:#486cb2;fill-opacity:1;stroke:#1b1f37;stroke-width:0;stroke-linejoin:bevel;paint-order:markers stroke fill"
         d="m 38.854933,182.36941 a 1.7528645,1.769401 0 0 0 -1.377178,0.68988 l -0.0021,0.002 a 1.7528645,1.769401 0 0 0 -0.0031,0.004 1.7528645,1.769401 0 0 0 -0.08268,0.11886 l -4.323768,6.19962 -14.651818,3.39979 a 1.3229161,1.3229161 0 0 0 -0.870749,1.24334 v 5.98667 a 1.3229161,1.3229161 0 0 0 1.322917,1.32291 h 3.386875 44.91302 2.275314 a 1.3229161,1.3229161 0 0 0 0.0801,-0.003 h -0.5271 l 1.76992,-1.76992 v -0.80202 -6.17223 -2.57452 a 1.3229161,1.3229161 0 0 0 -0.47284,-1.01337 l -7.209896,-6.63267 h -3.168282 -21.04781 a 1.7528645,1.769401 0 0 0 -0.01035,0 z" />
      <path
         id="circle990"
         style="fill:#375388;fill-opacity:1;stroke:#1b1f37;stroke-width:0;stroke-linejoin:bevel;paint-order:markers stroke fill"
         d="m 27.37708,194.06068 a 5.9531244,5.9531244 0 0 0 -5.953125,5.95313 5.9531244,5.9531244 0 0 0 0.148828,1.32291 h 11.608078 a 5.9531244,5.9531244 0 0 0 0.149344,-1.32291 5.9531244,5.9531244 0 0 0 -5.953125,-5.95313 z" />
      <circle
         style="fill:#2f2f2f;fill-opacity:1;stroke:#1b1f37;stroke-width:0;stroke-linejoin:bevel;paint-order:markers stroke fill"
         id="path873"
         cx="27.377066"
         cy="200.01381"
         r="5.291666" />
      <path
         id="circle1031"
         style="fill:#375388;fill-opacity:1;stroke:#1b1f37;stroke-width:0;stroke-linejoin:bevel;paint-order:markers stroke fill"
         d="m 61.272168,194.132 a 5.9531244,5.9531244 0 0 0 -5.889046,5.95312 5.9531244,5.9531244 0 0 0 0.133327,1.2516 h 11.639597 a 5.9531244,5.9531244 0 0 0 0.133326,-1.2516 5.9531244,5.9531244 0 0 0 -5.953125,-5.95312 5.9531244,5.9531244 0 0 0 -0.06408,0 z" />
      <circle
         style="fill:#2f2f2f;fill-opacity:1;stroke:#1b1f37;stroke-width:0;stroke-linejoin:bevel;paint-order:markers stroke fill"
         id="circle875"
         cx="61.336155"
         cy="200.08496"
         r="5.291666" />
      <path
         style="fill:#8699ac;fill-opacity:1;stroke:#000000;stroke-width:0;stroke-linecap:butt;stroke-linejoin:miter;stroke-miterlimit:4;stroke-dasharray:none;stroke-opacity:1"
         d="m 33.351785,191.56367 5.26268,-7.6007 h 8.99582 v 7.6007 z"
         id="path966"
         inkscape:path-effect="#path-effect972"
         inkscape:original-d="m 33.351785,191.56367 5.26268,-7.6007 h 8.99582 v 7.6007 z" />
      <path
         style="fill:#8699ac;fill-opacity:1;stroke:#000000;stroke-width:0;stroke-linecap:butt;stroke-linejoin:miter;stroke-miterlimit:4;stroke-dasharray:none;stroke-opacity:1"
         d="m 49.197785,183.96297 11.0498,-0.006 v 7.60677 h -11.0498 z"
         id="path968"
         inkscape:path-effect="#path-effect974"
         inkscape:original-d="m 49.197785,183.96297 11.0498,-0.006 v 7.60677 h -11.0498 z" />
      <path
         style="fill:#8699ac;fill-opacity:1;stroke:#000000;stroke-width:0;stroke-linecap:butt;stroke-linejoin:miter;stroke-miterlimit:4;stroke-dasharray:none;stroke-opacity:1"
         d="m 61.835085,183.9569 h 0.45652 l 7.30732,6.7694 1e-5,0.83737 h -7.76385 z"
         id="path970"
         inkscape:path-effect="#path-effect976"
         inkscape:original-d="m 61.835085,183.9569 h 0.45652 l 7.30732,6.7694 1e-5,0.83737 h -7.76385 z" />
      <path
         id="rect986"
         style="fill:#597bbc;fill-opacity:1;stroke:#1b1f37;stroke-width:0;stroke-linejoin:bevel;stroke-miterlimit:4;stroke-dasharray:none;paint-order:markers stroke fill"
         d="m 38.535057,183.05929 a 0.65210462,0.63433015 0 0 0 -0.558107,0.30282 0.65210462,0.63433015 0 0 0 -0.05839,0.11886 l -3.447851,4.91442 -2.222603,3.16829 h -0.0083 v 3.96616 a 6.614583,6.614583 0 0 1 1.751816,4.48397 6.614583,6.614583 0 0 1 -0.0078,0.31677 h 14.427544 v -6.37842 h -0.0072 v -2.38848 -8.01398 -0.49041 h -9.789583 v 0.005 a 0.65210462,0.63433015 0 0 0 -0.07958,-0.005 z m 0.152445,0.90382 h 8.922969 v 7.60057 H 33.352943 l 1.864485,-2.65824 3.447851,-4.91391 z" />
      <path
         id="rect1037"
         style="fill:#fff4c6;fill-opacity:1;stroke:#1b1f37;stroke-width:0;stroke-linejoin:bevel;stroke-miterlimit:4;stroke-dasharray:none;paint-order:markers stroke fill"
         d="m 17.543745,194.35834 v 2.3151 h 0.38809 a 0.37041619,0.37041595 0 0 0 0.37052,-0.37052 0.37041619,0.37041595 0 0 0 0,-0.003 v -0.36793 -1.20354 a 0.37041619,0.37041595 0 0 0 -0.37052,-0.37052 z" />
      <path
         id="path1055"
         style="fill:#dd3d3d;fill-opacity:1;stroke:#1b1f37;stroke-width:0;stroke-linejoin:bevel;stroke-miterlimit:4;stroke-dasharray:none;paint-order:markers stroke fill"
         d="m 70.764715,193.78982 v 2.31511 h -0.38809 a 0.37041619,0.37041595 0 0 1 -0.37052,-0.37052 0.37041619,0.37041595 0 0 1 0,-0.003 v -0.36793 -1.20355 a 0.37041619,0.37041595 0 0 1 0.37052,-0.37052 z" />
      <rect
         style="fill:#243658;fill-opacity:1;stroke:#1b1f37;stroke-width:0;stroke-linejoin:bevel;stroke-miterlimit:4;stroke-dasharray:none;paint-order:markers stroke fill"
         id="rect924"
         width="2.480469"
         height="0.65319014"
         x="44.590488"
         y="192.79939" />
      <path
         id="rect1367"
         style="fill:#5b5b5b;fill-opacity:1;stroke:#1b1f37;stroke-width:0;stroke-linejoin:bevel;stroke-miterlimit:4;stroke-dasharray:none;paint-order:markers stroke fill"
         d="m 73.643665,182.86632 -4.54753,0.72761 v 1.80247 h 1.80248 l 4.54752,-0.7276 v -1.80248 z" />
      <path
         id="path1475"
         style="fill:#333333;fill-opacity:1;stroke:#1b1f37;stroke-width:0;stroke-linejoin:bevel;stroke-miterlimit:4;stroke-dasharray:none;paint-order:markers stroke fill"
         d="m 20.661335,196.49624 a 2.9104161,2.9104161 0 0 1 -2.79527,1.8252 l -0.0126,0.39698 a 3.3072908,3.3072908 0 0 0 3.17668,-2.07451 z" />
      <path
         id="path1484"
         style="fill:#333333;fill-opacity:1;stroke:#1b1f37;stroke-width:0;stroke-linejoin:bevel;stroke-miterlimit:4;stroke-dasharray:none;paint-order:markers stroke fill"
         d="m 20.661335,197.8853 a 2.9104161,2.9104161 0 0 1 -2.79527,1.8252 l -0.0126,0.39698 a 3.3072908,3.3072908 0 0 0 3.17668,-2.07451 z" />
      <path
         id="rect1547"
         style="fill:#989898;fill-opacity:1;stroke:#1b1f37;stroke-width:0;stroke-linejoin:bevel;stroke-miterlimit:4;stroke-dasharray:none;paint-order:markers stroke fill"
         d="m 21.068421,187.94219 v 1.5875 h 4.7625 a 0.26458266,0.26458275 0 0 0 0.264584,-0.26458 v -0.26458 -0.79375 a 0.26458266,0.26458275 0 0 0 -0.264584,-0.26459 z" />
      <path
         id="path1563"
         style="fill:#898989;fill-opacity:1;stroke:#1b1f37;stroke-width:0;stroke-linejoin:bevel;stroke-miterlimit:4;stroke-dasharray:none;paint-order:markers stroke fill"
         d="m 56.493705,192.96182 -0.89409,-0.56627 -5.66271,8.94096 a 0.52916616,0.52916616 0 0 0 0.16392,0.73018 0.52916616,0.52916616 0 0 0 0.73018,-0.16391 l 0.007,-0.0113 z" />
      <path
         id="path1570"
         style="fill:#8f8f8f;fill-opacity:1;stroke:#1b1f37;stroke-width:0;stroke-linejoin:bevel;stroke-miterlimit:4;stroke-dasharray:none;paint-order:markers stroke fill"
         d="m 57.746305,192.96182 -0.89409,-0.56627 -5.66271,8.94096 a 0.52916616,0.52916616 0 0 0 0.16392,0.73018 0.52916616,0.52916616 0 0 0 0.73018,-0.16391 l 0.007,-0.0113 z" />
      <path
         id="path1572"
         style="fill:#8f8f8f;fill-opacity:1;stroke:#1b1f37;stroke-width:0;stroke-linejoin:bevel;stroke-miterlimit:4;stroke-dasharray:none;paint-order:markers stroke fill"
         d="m 55.241105,192.96182 -0.89409,-0.56627 -5.66271,8.94096 a 0.52916616,0.52916616 0 0 0 0.16392,0.73018 0.52916616,0.52916616 0 0 0 0.73018,-0.16391 l 0.007,-0.0113 z" />
      <path
         id="path1574"
         style="fill:#888888;fill-opacity:1;stroke:#1b1f37;stroke-width:0;stroke-linejoin:bevel;stroke-miterlimit:4;stroke-dasharray:none;paint-order:markers stroke fill"
         d="m 58.998905,192.96182 -0.89409,-0.56627 -5.66271,8.94096 a 0.52916616,0.52916616 0 0 0 0.16392,0.73018 0.52916616,0.52916616 0 0 0 0.73018,-0.16391 l 0.007,-0.0113 z" />
      <g
         id="g1579"
         transform="translate(-56.667994,74.606307)"
         style="fill:#7d7d7d;fill-opacity:1">
        <circle
           style="fill:#7d7d7d;fill-opacity:1;stroke:#1b1f37;stroke-width:0;stroke-linejoin:bevel;paint-order:markers stroke fill"
           id="circle1576"
           cx="118.00415"
           cy="125.47865"
           r="4.630208" />
      </g>
      <g
         id="g1583"
         style="fill:#7d7d7d;fill-opacity:1"
         transform="translate(-90.627085,74.535163)">
        <circle
           style="fill:#7d7d7d;fill-opacity:1;stroke:#1b1f37;stroke-width:0;stroke-linejoin:bevel;paint-order:markers stroke fill"
           id="circle1581"
           cx="118.00415"
           cy="125.47865"
           r="4.630208" />
      </g>
      <path
         id="path1653"
         style="fill:#ff6600;fill-opacity:1;stroke:#000000;stroke-width:0;stroke-linecap:butt;stroke-linejoin:miter;stroke-miterlimit:4;stroke-dasharray:none;stroke-opacity:1"
         d="m 60.265005,190.02294 c 0,0 -0.0234,0.007 -0.059,0.0293 0.0355,-0.018 0.059,-0.0293 0.059,-0.0293 z m -0.059,0.0293 c -0.1417,0.072 -0.52855,0.27904 -0.89395,0.55861 -0.15755,-0.38201 -0.34658,-0.7069 -0.42175,-0.83017 0.0529,0.10783 0.12471,0.37865 -0.10768,0.86369 -0.35175,0.73419 -0.97175,0.89385 -0.61457,1.39298 a 1.1792096,0.50703904 25.711069 0 0 0.79508,0.6443 1.1792096,0.50703904 25.711069 0 0 1.22442,0.12943 1.1792096,0.50703904 25.711069 0 0 1.1e-4,3e-5 l 3.2e-4,-2.5e-4 a 1.1792096,0.50703904 25.711069 0 0 0.0299,-0.0309 l 0.078,-0.0808 c 0.0167,-0.0147 0.0326,-0.0306 0.0468,-0.0485 0.17007,-0.21416 0.17586,-0.6488 0.47782,-1.11708 0.29135,-0.45258 0.55982,-0.53302 0.67926,-0.54451 -0.16934,7.8e-4 -0.65957,0.0129 -1.14332,0.11614 4.2e-4,-0.005 5.4e-4,-0.009 8e-4,-0.0138 0.0571,-0.53398 0.25995,-0.72676 0.36171,-0.79109 -0.14001,0.0712 -0.51605,0.27213 -0.87545,0.54418 3e-5,-2.9e-4 1.2e-4,-6.6e-4 7e-5,-6.7e-4 0.0571,-0.53479 0.26055,-0.72741 0.36217,-0.79146 z m 0.51318,0.24807 c 0.036,-0.0183 0.0593,-0.0296 0.0593,-0.0296 0,0 -0.0236,0.007 -0.0593,0.0296 z m 0.78063,0.68872 c 0.0393,-1.6e-4 0.0655,8e-5 0.0655,8e-5 0,0 -0.024,-0.004 -0.0655,-8e-5 z m -2.6095,-1.20838 c -0.0184,-0.0377 -0.0347,-0.0558 -0.0347,-0.0558 0,0 0.014,0.022 0.0347,0.0558 z" />
      <path
         id="path1655"
         style="fill:#42b9ce;fill-opacity:1;stroke:#000000;stroke-width:0;stroke-linecap:butt;stroke-linejoin:miter;stroke-miterlimit:4;stroke-dasharray:none;stroke-opacity:1"
         d="m 60.851235,188.82552 c 0,0 -0.034,0.0101 -0.0855,0.0426 0.0514,-0.0261 0.0855,-0.0426 0.0855,-0.0426 z m -0.0855,0.0426 c -0.20554,0.10444 -0.76659,0.40469 -1.29654,0.81016 -0.22852,-0.55404 -0.50268,-1.02524 -0.61168,-1.20403 0.0767,0.15647 0.18086,0.54916 -0.15618,1.25265 -0.51016,1.06482 -1.40936,1.29639 -0.89134,2.02029 a 1.7102559,0.73537946 25.711069 0 0 1.15314,0.93446 1.7102559,0.73537946 25.711069 0 0 1.77582,0.18771 1.7102559,0.73537946 25.711069 0 0 1.7e-4,4e-5 l 5e-4,-5.4e-4 a 1.7102559,0.73537946 25.711069 0 0 0.0434,-0.0448 l 0.11319,-0.11711 c 0.0242,-0.0213 0.0472,-0.0444 0.0678,-0.0703 0.24666,-0.31058 0.25574,-0.94078 0.69301,-1.62014 0.42255,-0.65639 0.81193,-0.77306 0.98516,-0.78973 -0.24559,0.001 -0.95662,0.0187 -1.6582,0.16846 9.5e-4,-0.007 6.1e-4,-0.0131 0.002,-0.02 0.0827,-0.77447 0.37698,-1.05405 0.52459,-1.14735 -0.20307,0.10324 -0.74844,0.39469 -1.26969,0.78925 2e-5,-3.3e-4 8e-5,-6.6e-4 1.1e-4,-0.001 0.0828,-0.77563 0.37787,-1.055 0.52527,-1.14788 z m 0.74425,0.35981 c 0.0521,-0.0265 0.0861,-0.0429 0.0861,-0.0429 0,0 -0.0343,0.0101 -0.0861,0.0429 z m 1.13219,0.99888 c 0.0571,-2e-4 0.0949,2.4e-4 0.0949,2.4e-4 0,0 -0.0347,-0.006 -0.0949,-2.4e-4 z m -3.78466,-1.75256 c -0.0268,-0.0547 -0.0502,-0.0809 -0.0502,-0.0809 0,0 0.0204,0.0319 0.0502,0.0809 z" />
      <path
         id="path1657"
         style="fill:#00ffff;fill-opacity:1;stroke:#000000;stroke-width:0;stroke-linecap:butt;stroke-linejoin:miter;stroke-miterlimit:4;stroke-dasharray:none;stroke-opacity:1"
         d="m 60.229235,189.74277 c 0,0 -0.0234,0.007 -0.059,0.0293 0.0355,-0.018 0.059,-0.0293 0.059,-0.0293 z m -0.059,0.0293 c -0.1417,0.072 -0.52855,0.27904 -0.89395,0.55861 -0.15755,-0.38201 -0.34658,-0.7069 -0.42175,-0.83017 0.0529,0.10783 0.12471,0.37865 -0.10768,0.86369 -0.35175,0.73419 -0.97175,0.89385 -0.61457,1.39298 a 1.1792096,0.50703904 25.711069 0 0 0.79508,0.6443 1.1792096,0.50703904 25.711069 0 0 1.22442,0.12943 1.1792096,0.50703904 25.711069 0 0 1.1e-4,3e-5 l 3.2e-4,-2.5e-4 a 1.1792096,0.50703904 25.711069 0 0 0.0299,-0.0309 l 0.078,-0.0808 c 0.0167,-0.0147 0.0326,-0.0306 0.0468,-0.0485 0.17007,-0.21416 0.17586,-0.6488 0.47782,-1.11708 0.29135,-0.45258 0.55982,-0.53302 0.67926,-0.54451 -0.16934,7.8e-4 -0.65957,0.0129 -1.14332,0.11614 4.2e-4,-0.005 5.4e-4,-0.009 8e-4,-0.0138 0.0571,-0.53398 0.25995,-0.72676 0.36171,-0.79109 -0.14001,0.0712 -0.51605,0.27213 -0.87545,0.54418 3e-5,-2.9e-4 1.2e-4,-6.6e-4 7e-5,-6.7e-4 0.0571,-0.53479 0.26055,-0.72741 0.36217,-0.79146 z m 0.51318,0.24807 c 0.036,-0.0183 0.0593,-0.0296 0.0593,-0.0296 0,0 -0.0236,0.007 -0.0593,0.0296 z m 0.78063,0.68872 c 0.0393,-1.6e-4 0.0655,8e-5 0.0655,8e-5 0,0 -0.024,-0.004 -0.0655,-8e-5 z m -2.6095,-1.20838 c -0.0184,-0.0377 -0.0347,-0.0558 -0.0347,-0.0558 0,0 0.014,0.022 0.0347,0.0558 z" />
      <path
         id="path1663"
         style="fill:#42b9ce;fill-opacity:1;stroke:#000000;stroke-width:0;stroke-linecap:butt;stroke-linejoin:miter;stroke-miterlimit:4;stroke-dasharray:none;stroke-opacity:1"
         d="m 59.263055,188.30297 c 0,0 -0.034,0.0101 -0.0855,0.0426 0.0514,-0.0261 0.0855,-0.0426 0.0855,-0.0426 z m -0.0855,0.0426 c -0.20554,0.10444 -0.76659,0.40469 -1.29654,0.81016 -0.22852,-0.55404 -0.50268,-1.02524 -0.61168,-1.20403 0.0767,0.15647 0.18086,0.54916 -0.15618,1.25265 -0.51016,1.06482 -1.40936,1.29639 -0.89134,2.02029 a 1.7102559,0.73537946 25.711069 0 0 1.15314,0.93446 1.7102559,0.73537946 25.711069 0 0 1.77582,0.18771 1.7102559,0.73537946 25.711069 0 0 1.7e-4,4e-5 l 5e-4,-5.4e-4 a 1.7102559,0.73537946 25.711069 0 0 0.0434,-0.0448 l 0.11319,-0.11711 c 0.0242,-0.0213 0.0472,-0.0444 0.0678,-0.0703 0.24666,-0.31058 0.25574,-0.94078 0.69301,-1.62014 0.42255,-0.65639 0.81193,-0.77306 0.98516,-0.78973 -0.24559,0.001 -0.95662,0.0187 -1.6582,0.16846 9.5e-4,-0.007 6.1e-4,-0.0131 0.002,-0.02 0.0827,-0.77447 0.37698,-1.05405 0.52459,-1.14735 -0.20307,0.10324 -0.74844,0.39469 -1.26969,0.78925 2e-5,-3.3e-4 8e-5,-6.6e-4 1.1e-4,-10e-4 0.0828,-0.77563 0.37787,-1.055 0.52527,-1.14788 z m 0.74425,0.35981 c 0.0521,-0.0265 0.0861,-0.0429 0.0861,-0.0429 0,0 -0.0343,0.0101 -0.0861,0.0429 z m 1.13219,0.99888 c 0.0571,-2e-4 0.0949,2.4e-4 0.0949,2.4e-4 0,0 -0.0347,-0.006 -0.0949,-2.4e-4 z m -3.78466,-1.75256 c -0.0268,-0.0547 -0.0502,-0.0809 -0.0502,-0.0809 0,0 0.0204,0.0319 0.0502,0.0809 z" />
      <path
         id="path1665"
         style="fill:#00ffff;fill-opacity:1;stroke:#000000;stroke-width:0;stroke-linecap:butt;stroke-linejoin:miter;stroke-miterlimit:4;stroke-dasharray:none;stroke-opacity:1"
         d="m 58.641055,189.22022 c 0,0 -0.0234,0.007 -0.059,0.0293 0.0355,-0.018 0.059,-0.0293 0.059,-0.0293 z m -0.059,0.0293 c -0.1417,0.072 -0.52855,0.27904 -0.89395,0.55861 -0.15755,-0.38201 -0.34658,-0.7069 -0.42175,-0.83017 0.0529,0.10783 0.12471,0.37865 -0.10768,0.86369 -0.35175,0.73419 -0.97175,0.89385 -0.61457,1.39298 a 1.1792096,0.50703904 25.711069 0 0 0.79508,0.6443 1.1792096,0.50703904 25.711069 0 0 1.22442,0.12943 1.1792096,0.50703904 25.711069 0 0 1.1e-4,3e-5 l 3.2e-4,-2.5e-4 a 1.1792096,0.50703904 25.711069 0 0 0.0299,-0.0309 l 0.078,-0.0808 c 0.0167,-0.0147 0.0326,-0.0306 0.0468,-0.0485 0.17007,-0.21416 0.17586,-0.6488 0.47782,-1.11708 0.29135,-0.45258 0.55982,-0.53302 0.67926,-0.54451 -0.16934,7.8e-4 -0.65957,0.0129 -1.14332,0.11614 4.2e-4,-0.005 5.4e-4,-0.009 8e-4,-0.0138 0.0571,-0.53398 0.25995,-0.72676 0.36171,-0.79109 -0.14001,0.0712 -0.51605,0.27213 -0.87545,0.54418 3e-5,-2.9e-4 1.2e-4,-6.6e-4 7e-5,-6.7e-4 0.0571,-0.53479 0.26055,-0.72741 0.36217,-0.79146 z m 0.51318,0.24807 c 0.036,-0.0183 0.0593,-0.0296 0.0593,-0.0296 0,0 -0.0236,0.007 -0.0593,0.0296 z m 0.78063,0.68872 c 0.0393,-1.6e-4 0.0655,8e-5 0.0655,8e-5 0,0 -0.024,-0.004 -0.0655,-8e-5 z m -2.6095,-1.20838 c -0.0184,-0.0377 -0.0347,-0.0558 -0.0347,-0.0558 0,0 0.014,0.022 0.0347,0.0558 z" />
      <path
         id="path1669"
         style="fill:#42b9ce;fill-opacity:1;stroke:#000000;stroke-width:0;stroke-linecap:butt;stroke-linejoin:miter;stroke-miterlimit:4;stroke-dasharray:none;stroke-opacity:1"
         d="m 57.040235,188.01877 c 0,0 -0.034,0.0101 -0.0855,0.0426 0.0514,-0.0261 0.0855,-0.0426 0.0855,-0.0426 z m -0.0855,0.0426 c -0.20554,0.10444 -0.76659,0.40469 -1.29654,0.81016 -0.22852,-0.55404 -0.50268,-1.02524 -0.61168,-1.20403 0.0767,0.15647 0.18086,0.54916 -0.15618,1.25265 -0.51016,1.06482 -1.40936,1.29639 -0.89134,2.02029 a 1.7102559,0.73537946 25.711069 0 0 1.15314,0.93446 1.7102559,0.73537946 25.711069 0 0 1.77582,0.18771 1.7102559,0.73537946 25.711069 0 0 1.7e-4,4e-5 l 5e-4,-5.4e-4 a 1.7102559,0.73537946 25.711069 0 0 0.0434,-0.0448 l 0.11319,-0.11711 c 0.0242,-0.0213 0.0472,-0.0444 0.0678,-0.0703 0.24666,-0.31058 0.25574,-0.94078 0.69301,-1.62014 0.42255,-0.65639 0.81193,-0.77306 0.98516,-0.78973 -0.24559,0.001 -0.95662,0.0187 -1.6582,0.16846 9.5e-4,-0.007 6.1e-4,-0.0131 0.002,-0.02 0.0827,-0.77447 0.37698,-1.05405 0.52459,-1.14735 -0.20307,0.10324 -0.74844,0.39469 -1.26969,0.78925 2e-5,-3.3e-4 8e-5,-6.6e-4 1.1e-4,-10e-4 0.0828,-0.77563 0.37787,-1.055 0.52527,-1.14788 z m 0.74425,0.35981 c 0.0521,-0.0265 0.0861,-0.0429 0.0861,-0.0429 0,0 -0.0343,0.0101 -0.0861,0.0429 z m 1.13219,0.99888 c 0.0571,-2e-4 0.0949,2.4e-4 0.0949,2.4e-4 0,0 -0.0347,-0.006 -0.0949,-2.4e-4 z m -3.78466,-1.75256 c -0.0268,-0.0547 -0.0502,-0.0809 -0.0502,-0.0809 0,0 0.0204,0.0319 0.0502,0.0809 z" />
      <path
         id="path1671"
         style="fill:#00ffff;fill-opacity:1;stroke:#000000;stroke-width:0;stroke-linecap:butt;stroke-linejoin:miter;stroke-miterlimit:4;stroke-dasharray:none;stroke-opacity:1"
         d="m 56.418235,188.93602 c 0,0 -0.0234,0.007 -0.059,0.0293 0.0355,-0.018 0.059,-0.0293 0.059,-0.0293 z m -0.059,0.0293 c -0.1417,0.072 -0.52855,0.27904 -0.89395,0.55861 -0.15755,-0.38201 -0.34658,-0.7069 -0.42175,-0.83017 0.0529,0.10783 0.12471,0.37865 -0.10768,0.86369 -0.35175,0.73419 -0.97175,0.89385 -0.61457,1.39298 a 1.1792096,0.50703904 25.711069 0 0 0.79508,0.6443 1.1792096,0.50703904 25.711069 0 0 1.22442,0.12943 1.1792096,0.50703904 25.711069 0 0 1.1e-4,3e-5 l 3.2e-4,-2.5e-4 a 1.1792096,0.50703904 25.711069 0 0 0.0299,-0.0309 l 0.078,-0.0808 c 0.0167,-0.0147 0.0326,-0.0306 0.0468,-0.0485 0.17007,-0.21416 0.17586,-0.6488 0.47782,-1.11708 0.29135,-0.45258 0.55982,-0.53302 0.67926,-0.54451 -0.16934,7.8e-4 -0.65957,0.0129 -1.14332,0.11614 4.2e-4,-0.005 5.4e-4,-0.009 8e-4,-0.0138 0.0571,-0.53398 0.25995,-0.72676 0.36171,-0.79109 -0.14001,0.0712 -0.51605,0.27213 -0.87545,0.54418 3e-5,-2.9e-4 1.2e-4,-6.6e-4 7e-5,-6.7e-4 0.0571,-0.53479 0.26055,-0.72741 0.36217,-0.79146 z m 0.51318,0.24807 c 0.036,-0.0183 0.0593,-0.0296 0.0593,-0.0296 0,0 -0.0236,0.007 -0.0593,0.0296 z m 0.78063,0.68872 c 0.0393,-1.6e-4 0.0655,8e-5 0.0655,8e-5 0,0 -0.024,-0.004 -0.0655,-8e-5 z m -2.6095,-1.20838 c -0.0184,-0.0377 -0.0347,-0.0558 -0.0347,-0.0558 0,0 0.014,0.022 0.0347,0.0558 z" />
      <path
         id="path1681"
         style="fill:#4d4d4d;fill-opacity:1;stroke:#000000;stroke-width:0;stroke-linecap:butt;stroke-linejoin:miter;stroke-miterlimit:4;stroke-dasharray:none;stroke-opacity:1"
         d="m 70.764614,199.48464 -1.852084,1.85208 h 0.529167 l 0.132292,-0.13229 h 0.302823 l 0.75551,-0.75602 v -0.30231 l 0.132292,-0.13229 z" />
      <path
         id="path1687"
         style="fill:#42b9ce;fill-opacity:1;stroke:#000000;stroke-width:0;stroke-linecap:butt;stroke-linejoin:miter;stroke-miterlimit:4;stroke-dasharray:none;stroke-opacity:1"
         d="m 76.473875,199.83535 c 0,0 -0.0276,-0.0222 -0.0836,-0.0462 0.0507,0.0275 0.0836,0.0462 0.0836,0.0462 z m -0.0836,-0.0462 c -0.20267,-0.1099 -0.76839,-0.40126 -1.40306,-0.60729 0.32632,-0.50268 0.55854,-0.99591 0.64383,-1.18715 -0.0853,0.15198 -0.34937,0.46069 -1.11983,0.58268 -1.1662,0.18464 -1.86737,-0.42408 -2.16915,0.41336 a 1.7102559,0.73537946 81.11505 0 0 -0.11448,1.47981 1.7102559,0.73537946 81.11505 0 0 0.85376,1.56839 1.7102559,0.73537946 81.11505 0 0 7e-5,1.6e-4 l 7.3e-4,1.1e-4 a 1.7102559,0.73537946 81.11505 0 0 0.0615,0.0103 l 0.16067,0.0267 c 0.0313,0.008 0.0633,0.0136 0.0964,0.0159 0.39571,0.0267 0.91963,-0.32365 1.72714,-0.34943 0.78025,-0.0249 1.09737,0.22943 1.20945,0.36256 -0.14027,-0.20159 -0.55855,-0.77685 -1.08018,-1.26934 0.006,-0.003 0.0111,-0.007 0.0176,-0.01 0.68448,-0.37165 1.08172,-0.28815 1.24233,-0.21962 -0.20029,-0.10854 -0.74985,-0.39199 -1.3706,-0.59705 2.8e-4,-1.7e-4 5.8e-4,-3.1e-4 8.8e-4,-4.8e-4 0.68549,-0.37223 1.083,-0.28796 1.24315,-0.21936 z m 0.12639,0.81694 c 0.0514,0.0278 0.0842,0.0465 0.0842,0.0465 0,0 -0.0278,-0.0225 -0.0842,-0.0465 z m -0.17941,1.49914 c 0.0326,0.0469 0.0537,0.0783 0.0537,0.0783 0,0 -0.0148,-0.032 -0.0537,-0.0783 z m -0.70621,-4.11052 c 0.0298,-0.0531 0.0381,-0.0873 0.0381,-0.0873 0,0 -0.0147,0.0349 -0.0381,0.0873 z" />
      <path
         id="path1689"
         style="fill:#00ffff;fill-opacity:1;stroke:#000000;stroke-width:0;stroke-linecap:butt;stroke-linejoin:miter;stroke-miterlimit:4;stroke-dasharray:none;stroke-opacity:1"
         d="m 75.365655,199.84414 c 0,0 -0.019,-0.0153 -0.0576,-0.0319 0.035,0.019 0.0576,0.0319 0.0576,0.0319 z m -0.0576,-0.0319 c -0.13973,-0.0758 -0.52981,-0.27666 -0.96741,-0.41871 0.22501,-0.34659 0.38512,-0.68667 0.44391,-0.81853 -0.0587,0.10477 -0.24089,0.31765 -0.77211,0.40175 -0.80408,0.12731 -1.28754,-0.29241 -1.49561,0.28501 a 1.1792096,0.50703904 81.11505 0 0 -0.0789,1.02032 1.1792096,0.50703904 81.11505 0 0 0.58866,1.0814 1.1792096,0.50703904 81.11505 0 0 4e-5,1.1e-4 l 3.9e-4,1.2e-4 a 1.1792096,0.50703904 81.11505 0 0 0.0424,0.007 l 0.1108,0.0183 c 0.0216,0.005 0.0437,0.009 0.0665,0.011 0.27285,0.0184 0.63392,-0.22362 1.19085,-0.24094 0.53798,-0.0171 0.75663,0.15819 0.8339,0.24999 -0.0968,-0.13896 -0.38511,-0.53562 -0.74476,-0.87521 0.004,-0.002 0.008,-0.005 0.0118,-0.007 0.47198,-0.25618 0.74585,-0.19866 0.85658,-0.15142 -0.13811,-0.0748 -0.51702,-0.27029 -0.94503,-0.41167 2.6e-4,-1.4e-4 6.2e-4,-2.8e-4 6e-4,-3.2e-4 0.47264,-0.25665 0.74672,-0.19854 0.85714,-0.15125 z m 0.0872,0.56328 c 0.0355,0.0192 0.058,0.032 0.058,0.032 0,0 -0.0192,-0.0154 -0.058,-0.032 z m -0.12371,1.03365 c 0.0224,0.0323 0.0371,0.054 0.0371,0.054 0,0 -0.0103,-0.022 -0.0371,-0.054 z m -0.48693,-2.83418 c 0.0206,-0.0366 0.0262,-0.0602 0.0262,-0.0602 0,0 -0.0102,0.024 -0.0262,0.0602 z" />
    </g>
  </g>
</svg>
