<?xml version="1.0" encoding="UTF-8" standalone="no"?>
<svg
   xmlns:dc="http://purl.org/dc/elements/1.1/"
   xmlns:cc="http://creativecommons.org/ns#"
   xmlns:rdf="http://www.w3.org/1999/02/22-rdf-syntax-ns#"
   xmlns:svg="http://www.w3.org/2000/svg"
   xmlns="http://www.w3.org/2000/svg"
   xmlns:sodipodi="http://sodipodi.sourceforge.net/DTD/sodipodi-0.dtd"
   xmlns:inkscape="http://www.inkscape.org/namespaces/inkscape"
   width="1024"
   height="1024"
   viewBox="0 0 270.93333 270.93333"
   version="1.1"
   id="svg8"
   inkscape:version="1.0.1 (3bc2e813f5, 2020-09-07)"
   sodipodi:docname="Icon_Garden.svg">
  <defs
     id="defs2" />
  <sodipodi:namedview
     id="base"
     pagecolor="#ffffff"
     bordercolor="#666666"
     borderopacity="1.0"
     inkscape:pageopacity="0.0"
     inkscape:pageshadow="2"
     inkscape:zoom="0.7"
     inkscape:cx="352.09931"
     inkscape:cy="457.49052"
     inkscape:document-units="mm"
     inkscape:current-layer="layer1"
     inkscape:document-rotation="0"
     showgrid="false"
     units="px"
     inkscape:snap-bbox="true"
     inkscape:bbox-paths="true"
     inkscape:bbox-nodes="true"
     inkscape:snap-bbox-edge-midpoints="true"
     inkscape:snap-bbox-midpoints="true"
     inkscape:object-paths="true"
     inkscape:snap-intersection-paths="true"
     inkscape:snap-smooth-nodes="true"
     inkscape:snap-midpoints="true"
     inkscape:snap-object-midpoints="true"
     inkscape:snap-center="true"
     inkscape:snap-text-baseline="true"
     inkscape:snap-page="true"
     inkscape:window-width="1920"
     inkscape:window-height="1017"
     inkscape:window-x="1912"
     inkscape:window-y="-7"
     inkscape:window-maximized="1" />
  <metadata
     id="metadata5">
    <rdf:RDF>
      <cc:Work
         rdf:about="">
        <dc:format>image/svg+xml</dc:format>
        <dc:type
           rdf:resource="http://purl.org/dc/dcmitype/StillImage" />
        <dc:title></dc:title>
      </cc:Work>
    </rdf:RDF>
  </metadata>
  <g
     inkscape:label="Ebene 1"
     inkscape:groupmode="layer"
     id="layer1">
    <g
       id="g1149"
       transform="matrix(4.5562941,0,0,4.5562941,-42.129366,-538.13659)"
       inkscape:export-filename="C:\Users\Kevin Mudczinski\OneDrive\Smart_Home\Images\Room_Icons_2\Icon_Garden.png"
       inkscape:export-xdpi="384"
       inkscape:export-ydpi="384">
      <g
         id="g1111"
         transform="translate(-5.785996,0.25461997)">
        <path
           id="path978"
           style="fill:#5c5030;fill-opacity:1;stroke:#1b1f37;stroke-width:0;stroke-linejoin:bevel;paint-order:markers stroke fill"
           d="m 24.893258,157.30005 v 10.66315 h 1.919369 1.919371 v -10.66315 h -1.919371 z" />
        <path
           style="fill:#589449;fill-opacity:1;stroke:#000000;stroke-width:0;stroke-linecap:butt;stroke-linejoin:miter;stroke-miterlimit:4;stroke-dasharray:none;stroke-opacity:1"
           d="m 26.812627,126.01647 c 0,0 -11.78022,16.54566 -11.78022,24.81848 0,8.27283 11.78022,8.27283 11.78022,8.27283 z"
           id="path974" />
        <path
           style="fill:#6faa60;fill-opacity:1;stroke:#000000;stroke-width:0;stroke-linecap:butt;stroke-linejoin:miter;stroke-miterlimit:4;stroke-dasharray:none;stroke-opacity:1"
           d="m 26.812627,126.01638 c 0,0 11.780221,16.54566 11.780221,24.81848 0,8.27283 -11.780221,8.27283 -11.780221,8.27283 z"
           id="path976" />
      </g>
      <g
         id="g1077"
         transform="matrix(0.82333149,0,0,0.82333149,-50.060763,-26.748788)"
         style="fill:#595959;fill-opacity:1">
        <rect
           style="fill:#595959;fill-opacity:1;stroke:#1b1f37;stroke-width:0;stroke-linejoin:bevel;stroke-miterlimit:4;stroke-dasharray:none;paint-order:markers stroke fill"
           id="rect1045"
           width="2.6930804"
           height="3.2600446"
           x="169.91748"
           y="178.32596"
           transform="rotate(18.59247)" />
        <rect
           style="fill:#595959;fill-opacity:1;stroke:#1b1f37;stroke-width:0;stroke-linejoin:bevel;stroke-miterlimit:4;stroke-dasharray:none;paint-order:markers stroke fill"
           id="rect1049"
           width="2.6930804"
           height="3.2600446"
           x="-38.384651"
           y="248.39688"
           transform="matrix(-0.94781032,0.31883475,0.31883475,0.94781032,0,0)" />
      </g>
      <path
         id="rect1087"
         style="fill:#5f5f5f;fill-opacity:1;stroke:#1b1f37;stroke-width:0;stroke-linejoin:bevel;stroke-miterlimit:4;stroke-dasharray:none;paint-order:markers stroke fill"
         d="m 48.655123,138.11211 -1.869508,1.61423 0.32293,0.37398 1.495523,-1.29172 1.614225,1.86951 -1.49552,1.29129 0.32293,0.37399 1.869507,-1.61423 -0.322929,-0.37398 -1.614228,-1.86951 z" />
      <path
         id="path1067"
         style="fill:#c93636;fill-opacity:1;stroke:#1b1f37;stroke-width:0;stroke-linejoin:bevel;stroke-miterlimit:4;stroke-dasharray:none;paint-order:markers stroke fill"
         d="M 49.128378,151.19034 A 8.2333141,6.4050928 49.660677 0 0 48.681226,140.76849 8.2333141,6.4050928 49.660677 0 0 38.469149,138.63887 Z" />
      <g
         id="g1081"
         transform="matrix(0.82333149,0,0,0.82333149,-50.060763,-26.748788)"
         style="fill:#969696;fill-opacity:1">
        <path
           id="rect1027"
           style="fill:#969696;fill-opacity:1;stroke:#1b1f37;stroke-width:0;stroke-linejoin:bevel;stroke-miterlimit:4;stroke-dasharray:none;paint-order:markers stroke fill"
           d="m 99.302909,216.38929 a 0.49999958,0.49999955 0 0 0 -0.500226,0.49971 0.49999958,0.49999955 0 0 0 0.500226,0.50023 h 21.166671 a 0.49999958,0.49999955 0 0 0 0.49971,-0.50023 0.49999958,0.49999955 0 0 0 -0.49971,-0.49971 z" />
        <path
           id="path1069"
           style="fill:#969696;fill-opacity:1;stroke:#1b1f37;stroke-width:0;stroke-linejoin:bevel;stroke-miterlimit:4;stroke-dasharray:none;paint-order:markers stroke fill"
           d="m 120.08807,217.21247 a 0.49999958,0.49999955 49.660677 0 0 0.70469,0.0578 0.49999958,0.49999955 49.660677 0 0 0.0575,-0.70509 l -13.70147,-16.13374 a 0.49999958,0.49999955 49.660677 0 0 -0.70475,-0.0571 0.49999958,0.49999955 49.660677 0 0 -0.0574,0.70436 z" />
      </g>
      <g
         id="g1117"
         transform="translate(1.8609943,-2.8731474)">
        <g
           id="g1124"
           transform="translate(-6.7430138,3.7193899)">
          <path
             id="path1100"
             style="fill:#5c5030;fill-opacity:1;stroke:#1b1f37;stroke-width:0;stroke-linejoin:bevel;paint-order:markers stroke fill"
             d="m 60.169851,158.23728 v 9.13449 h 1.892765 1.892768 v -9.13449 h -1.892768 z" />
          <path
             style="fill:#72874d;fill-opacity:1;stroke:#000000;stroke-width:0;stroke-linecap:butt;stroke-linejoin:miter;stroke-miterlimit:4;stroke-dasharray:none;stroke-opacity:1"
             d="M 62.062619,161.15836 H 50.533278 l 5.631849,-5.90746 h -3.770856 l 6.054613,-8.65703 h -2.974198 l 4.992399,-8.97569 -2.602417,-0.10621 4.197951,-8.95122 z"
             id="path1102" />
          <path
             style="fill:#839b59;fill-opacity:1;stroke:#000000;stroke-width:0;stroke-linecap:butt;stroke-linejoin:miter;stroke-miterlimit:4;stroke-dasharray:none;stroke-opacity:1"
             d="m 62.062619,161.15836 11.529341,-10e-6 -5.631849,-5.90745 h 3.770856 l -6.054613,-8.65703 h 2.974198 l -4.992399,-8.97569 2.602417,-0.10621 -4.197951,-8.95122 z"
             id="path1104" />
        </g>
      </g>
      <path
         id="path1000"
         style="fill:#579852;fill-opacity:1;stroke:#000000;stroke-width:0;stroke-linecap:butt;stroke-linejoin:miter;stroke-miterlimit:4;stroke-dasharray:none;stroke-opacity:1"
         d="m 17.598086,159.64268 c -0.0144,-0.007 -0.0139,0.0117 -0.0139,0.0117 0,0 1.50772,4.72345 1.74221,6.6999 0.19262,1.6235 0.0251,2.14391 -0.0414,2.28044 h -0.0366 l -0.89364,-3.92189 -0.351731,3.68483 -0.55253,-5.57763 -0.90463,5.52743 c 0,0 -1.15571,-1.27311 -1.05522,-3.83579 0.1005,-2.56267 0.1341,-2.67981 0.1341,-2.67981 0,0 -1.490596,3.24934 -0.92111,4.97455 0.56948,1.72519 0.38508,1.59125 0.38508,1.59125 l -1.139123,-2.94801 -0.418423,2.89781 -0.285056,-5.66116 -0.928078,5.40835 c 0.05726,-0.45711 0.09334,-1.52526 -0.462024,-3.08028 -0.75373,-2.11044 -0.887776,-2.01004 -0.887776,-2.01004 0,0 0.937916,3.75204 0.636427,4.65651 -0.136782,0.41029 -0.171664,0.5225 -0.186127,0.57341 l -0.584034,-3.48808 -0.452498,3.3668 0.03371,-6.3815 -1.0552184,6.28111 0.03224,0.62214 h -0.01466 v 0.7577 h 18.7187604 3.66359 14.49275 v 0.0169 h 22.38234 v -0.75771 h -0.0147 l 0.0322,-0.62214 -1.05522,-6.28111 0.0337,6.38151 -0.452499,-3.36681 -0.584031,3.48808 c -0.0145,-0.0509 -0.0493,-0.16312 -0.186129,-0.57341 -0.301491,-0.90447 0.636429,-4.65651 0.636429,-4.65651 0,0 -0.13405,-0.10039 -0.887769,2.01004 -0.555361,1.55503 -0.519291,2.62318 -0.46203,3.08029 l -0.92808,-5.40836 -0.285051,5.66117 -0.41843,-2.89782 -1.139119,2.94801 c 0,0 -0.184401,0.13395 0.385079,-1.59125 0.56949,-1.72519 -0.92112,-4.97455 -0.92112,-4.97455 0,0 0.0336,0.11714 0.13411,2.67982 0.10049,2.56267 -1.05522,3.83579 -1.05522,3.83579 l -0.90463,-5.52744 -0.552519,5.57763 -0.35174,-3.68483 -0.893641,3.92189 h -0.0366 c -0.0665,-0.13653 -0.23402,-0.65694 -0.0414,-2.28044 0.23448,-1.97644 1.7422,-6.6999 1.7422,-6.6999 0,0 4.91e-4,-0.019 -0.0139,-0.0117 h -3.6e-4 c -0.0458,0.0248 -0.23738,0.30243 -1.04057,2.12216 -1.07197,2.42868 -1.55791,6.81715 -1.55791,6.81715 0,0 -0.13405,-0.2346 -0.77053,-1.42381 -0.63648,-1.18921 -0.46898,-3.85228 -0.46898,-3.85228 l -0.329029,5.32885 h -0.148391 c -0.0738,-0.10397 -0.17266,-0.31028 -0.29311,-0.73938 -0.19179,-0.68323 0.16349,-1.77769 0.38215,-2.35006 l -1.25014,3.08944 h -0.0762 c -0.0581,-0.0991 -0.0942,-0.42634 0.27443,-1.54362 0.53599,-1.6247 0.067,-2.59591 0.067,-2.59591 l -1.41905,4.13953 h -0.004 l 0.53457,-5.3457 -1.65831,5.2596 0.61994,-2.73038 -1.71949,2.29254 c 0.22517,-0.36164 0.52653,-0.92077 0.89877,-1.8067 0.83747,-1.99318 -0.25135,-4.63966 -0.25135,-4.63966 0,0 0.11735,0.15059 -0.33488,2.49552 -0.23637,1.22561 -0.91549,2.28328 -1.51102,3.0169 l -0.91782,-5.46222 0.0337,6.3815 -0.17953,-1.33551 -0.0553,-1.81329 -0.11614,0.53714 -0.1015,-0.75514 -0.58403,3.48808 c -0.006,-0.0222 -0.0605,-0.18498 -0.0813,-0.25025 -0.0241,-0.19882 -0.0392,-0.33493 -0.0883,-0.70824 -0.1675,-1.27296 0.90463,-4.58946 0.90463,-4.58946 l -0.50783,1.28897 c 0.12234,-0.56052 0.22314,-0.97094 0.22314,-0.97094 0,0 -0.13405,-0.1004 -0.88778,2.01004 -0.24374,0.68248 -0.36971,1.26475 -0.43381,1.74917 l -0.1788,0.45396 -0.77749,-4.5312 -0.18686,3.71268 c -0.14047,-0.40604 -0.30399,-0.85956 -0.50013,-1.36776 -0.73698,-1.90944 -1.00502,-1.74184 -1.00502,-1.74184 l 0.7632,2.74357 -0.91379,2.36471 c 0,0 -0.1844,0.13394 0.38508,-1.59125 0.56948,-1.7252 -0.92112,-4.97455 -0.92112,-4.97455 0,0 0.0336,0.11714 0.1341,2.67981 0.1005,2.56268 -1.05521,3.83579 -1.05521,3.83579 l -0.90463,-5.52743 -0.55253,5.57763 -0.35174,-3.68483 -0.89363,3.92189 h -0.0366 c -0.0665,-0.13653 -0.23402,-0.65694 -0.0414,-2.28044 0.23449,-1.97645 1.7422,-6.6999 1.7422,-6.6999 0,0 8.9e-4,-0.0198 -0.0143,-0.0117 -0.0455,0.0243 -0.23695,0.30065 -1.04092,2.12216 -1.07198,2.42868 -1.55792,6.81715 -1.55792,6.81715 0,0 -0.13405,-0.2346 -0.77052,-1.42381 -0.63649,-1.18921 -0.468991,-3.85228 -0.468991,-3.85228 l -0.32902,5.32885 h -0.14839 c -0.0738,-0.10398 -0.17267,-0.31028 -0.29312,-0.73939 -0.19179,-0.68323 0.16349,-1.77768 0.38215,-2.35006 l -1.25014,3.08945 h -0.0762 c -0.058,-0.0991 -0.0942,-0.42635 0.27443,-1.54363 0.53599,-1.62469 0.0671,-2.5959 0.0671,-2.5959 l -1.41905,4.13953 h -0.003 l 0.53458,-5.34571 -1.65831,5.25961 0.61994,-2.73038 -1.71949,2.29253 c 0.22517,-0.36164 0.52653,-0.92077 0.89877,-1.80669 0.83747,-1.99318 -0.25135,-4.63966 -0.25135,-4.63966 0,0 0.11736,0.15058 -0.33488,2.49551 -0.27596,1.43087 -1.15563,2.63451 -1.80047,3.35765 l 1.18089,-4.24505 c 0,0 -0.26805,-0.1676 -1.00502,1.74184 -0.47142,1.2214 -0.76183,2.13447 -0.92185,2.66845 l -0.0835,-2.7355 -0.47741,2.20716 -0.43088,-1.09405 c 0.22392,-1.47808 0.84161,-3.39099 0.84161,-3.39099 l -1.08856,2.76372 -1.08893,-2.76372 c 0,0 0.61769,1.91291 0.84161,3.39099 l -0.43088,1.09405 -0.47741,-2.20716 -0.0835,2.7355 c -0.16002,-0.53398 -0.45043,-1.44705 -0.92185,-2.66845 -0.73698,-1.90944 -1.00502,-1.74184 -1.00502,-1.74184 l 1.18089,4.24505 c -0.64484,-0.72314 -1.52452,-1.92678 -1.80047,-3.35765 -0.45224,-2.34493 -0.33488,-2.49551 -0.33488,-2.49551 0,0 -1.08882,2.64648 -0.25135,4.63966 0.37224,0.88592 0.6736,1.44505 0.89877,1.80669 l -1.71949,-2.29253 0.61994,2.73038 -1.65831,-5.25961 0.53457,5.34571 h -0.004 l -1.41905,-4.13953 c 0,0 -0.46894,0.97121 0.067,2.5959 0.36859,1.11728 0.3325,1.44454 0.27443,1.54363 h -0.0762 l -1.25014,-3.08945 c 0.21866,0.57238 0.57393,1.66683 0.38215,2.35006 -0.12045,0.42911 -0.21935,0.6354 -0.29311,0.73939 h -0.14839 l -0.32903,-5.32885 c 0,0 0.1675,2.66307 -0.46898,3.85228 -0.63648,1.18921 -0.77053,1.42381 -0.77053,1.42381 0,0 -0.48593,-4.38847 -1.55791,-6.81715 -0.80319,-1.81973 -0.99481,-2.09737 -1.04056,-2.12216 z" />
      <path
         id="path1013"
         style="fill:#579852;fill-opacity:1;stroke:#000000;stroke-width:0;stroke-linecap:butt;stroke-linejoin:miter;stroke-miterlimit:4;stroke-dasharray:none;stroke-opacity:1"
         d="m 17.598086,159.64268 c -0.0144,-0.007 -0.0139,0.0117 -0.0139,0.0117 0,0 1.50772,4.72345 1.74221,6.6999 0.19262,1.6235 0.0251,2.14391 -0.0414,2.28044 h -0.0366 l -0.89364,-3.92189 -0.351731,3.68483 -0.55253,-5.57763 -0.90463,5.52743 c 0,0 -1.15571,-1.27311 -1.05522,-3.83579 0.1005,-2.56267 0.1341,-2.67981 0.1341,-2.67981 0,0 -1.490596,3.24934 -0.92111,4.97455 0.56948,1.72519 0.38508,1.59125 0.38508,1.59125 l -1.139123,-2.94801 -0.418423,2.89781 -0.285056,-5.66116 -0.928078,5.40835 c 0.05726,-0.45711 0.09334,-1.52526 -0.462024,-3.08028 -0.75373,-2.11044 -0.887776,-2.01004 -0.887776,-2.01004 0,0 0.937916,3.75204 0.636427,4.65651 -0.136782,0.41029 -0.171664,0.5225 -0.186127,0.57341 l -0.584034,-3.48808 -0.452498,3.3668 0.03371,-6.3815 -1.0552184,6.28111 0.03224,0.62214 h -0.01466 v 0.7577 h 18.7187604 3.66359 14.49275 v 0.0169 h 22.38234 v -0.75771 h -0.0147 l 0.0322,-0.62214 -1.05522,-6.28111 0.0337,6.38151 -0.452499,-3.36681 -0.584031,3.48808 c -0.0145,-0.0509 -0.0493,-0.16312 -0.186129,-0.57341 -0.301491,-0.90447 0.636429,-4.65651 0.636429,-4.65651 0,0 -0.13405,-0.10039 -0.887769,2.01004 -0.555361,1.55503 -0.519291,2.62318 -0.46203,3.08029 l -0.92808,-5.40836 -0.285051,5.66117 -0.41843,-2.89782 -1.139119,2.94801 c 0,0 -0.184401,0.13395 0.385079,-1.59125 0.56949,-1.72519 -0.92112,-4.97455 -0.92112,-4.97455 0,0 0.0336,0.11714 0.13411,2.67982 0.10049,2.56267 -1.05522,3.83579 -1.05522,3.83579 l -0.90463,-5.52744 -0.552519,5.57763 -0.35174,-3.68483 -0.893641,3.92189 h -0.0366 c -0.0665,-0.13653 -0.23402,-0.65694 -0.0414,-2.28044 0.23448,-1.97644 1.7422,-6.6999 1.7422,-6.6999 0,0 4.91e-4,-0.019 -0.0139,-0.0117 h -3.6e-4 c -0.0458,0.0248 -0.23738,0.30243 -1.04057,2.12216 -1.07197,2.42868 -1.55791,6.81715 -1.55791,6.81715 0,0 -0.13405,-0.2346 -0.77053,-1.42381 -0.63648,-1.18921 -0.46898,-3.85228 -0.46898,-3.85228 l -0.329029,5.32885 h -0.148391 c -0.0738,-0.10397 -0.17266,-0.31028 -0.29311,-0.73938 -0.19179,-0.68323 0.16349,-1.77769 0.38215,-2.35006 l -1.25014,3.08944 h -0.0762 c -0.0581,-0.0991 -0.0942,-0.42634 0.27443,-1.54362 0.53599,-1.6247 0.067,-2.59591 0.067,-2.59591 l -1.41905,4.13953 h -0.004 l 0.53457,-5.3457 -1.65831,5.2596 0.61994,-2.73038 -1.71949,2.29254 c 0.22517,-0.36164 0.52653,-0.92077 0.89877,-1.8067 0.83747,-1.99318 -0.25135,-4.63966 -0.25135,-4.63966 0,0 0.11735,0.15059 -0.33488,2.49552 -0.23637,1.22561 -0.91549,2.28328 -1.51102,3.0169 l -0.91782,-5.46222 0.0337,6.3815 -0.17953,-1.33551 -0.0553,-1.81329 -0.11614,0.53714 -0.1015,-0.75514 -0.58403,3.48808 c -0.006,-0.0222 -0.0605,-0.18498 -0.0813,-0.25025 -0.0241,-0.19882 -0.0392,-0.33493 -0.0883,-0.70824 -0.1675,-1.27296 0.90463,-4.58946 0.90463,-4.58946 l -0.50783,1.28897 c 0.12234,-0.56052 0.22314,-0.97094 0.22314,-0.97094 0,0 -0.13405,-0.1004 -0.88778,2.01004 -0.24374,0.68248 -0.36971,1.26475 -0.43381,1.74917 l -0.1788,0.45396 -0.77749,-4.5312 -0.18686,3.71268 c -0.14047,-0.40604 -0.30399,-0.85956 -0.50013,-1.36776 -0.73698,-1.90944 -1.00502,-1.74184 -1.00502,-1.74184 l 0.7632,2.74357 -0.91379,2.36471 c 0,0 -0.1844,0.13394 0.38508,-1.59125 0.56948,-1.7252 -0.92112,-4.97455 -0.92112,-4.97455 0,0 0.0336,0.11714 0.1341,2.67981 0.1005,2.56268 -1.05521,3.83579 -1.05521,3.83579 l -0.90463,-5.52743 -0.55253,5.57763 -0.35174,-3.68483 -0.89363,3.92189 h -0.0366 c -0.0665,-0.13653 -0.23402,-0.65694 -0.0414,-2.28044 0.23449,-1.97645 1.7422,-6.6999 1.7422,-6.6999 0,0 8.9e-4,-0.0198 -0.0143,-0.0117 -0.0455,0.0243 -0.23695,0.30065 -1.04092,2.12216 -1.07198,2.42868 -1.55792,6.81715 -1.55792,6.81715 0,0 -0.13405,-0.2346 -0.77052,-1.42381 -0.63649,-1.18921 -0.468991,-3.85228 -0.468991,-3.85228 l -0.32902,5.32885 h -0.14839 c -0.0738,-0.10398 -0.17267,-0.31028 -0.29312,-0.73939 -0.19179,-0.68323 0.16349,-1.77768 0.38215,-2.35006 l -1.25014,3.08945 h -0.0762 c -0.058,-0.0991 -0.0942,-0.42635 0.27443,-1.54363 0.53599,-1.62469 0.0671,-2.5959 0.0671,-2.5959 l -1.41905,4.13953 h -0.003 l 0.53458,-5.34571 -1.65831,5.25961 0.61994,-2.73038 -1.71949,2.29253 c 0.22517,-0.36164 0.52653,-0.92077 0.89877,-1.80669 0.83747,-1.99318 -0.25135,-4.63966 -0.25135,-4.63966 0,0 0.11736,0.15058 -0.33488,2.49551 -0.27596,1.43087 -1.15563,2.63451 -1.80047,3.35765 l 1.18089,-4.24505 c 0,0 -0.26805,-0.1676 -1.00502,1.74184 -0.47142,1.2214 -0.76183,2.13447 -0.92185,2.66845 l -0.0835,-2.7355 -0.47741,2.20716 -0.43088,-1.09405 c 0.22392,-1.47808 0.84161,-3.39099 0.84161,-3.39099 l -1.08856,2.76372 -1.08893,-2.76372 c 0,0 0.61769,1.91291 0.84161,3.39099 l -0.43088,1.09405 -0.47741,-2.20716 -0.0835,2.7355 c -0.16002,-0.53398 -0.45043,-1.44705 -0.92185,-2.66845 -0.73698,-1.90944 -1.00502,-1.74184 -1.00502,-1.74184 l 1.18089,4.24505 c -0.64484,-0.72314 -1.52452,-1.92678 -1.80047,-3.35765 -0.45224,-2.34493 -0.33488,-2.49551 -0.33488,-2.49551 0,0 -1.08882,2.64648 -0.25135,4.63966 0.37224,0.88592 0.6736,1.44505 0.89877,1.80669 l -1.71949,-2.29253 0.61994,2.73038 -1.65831,-5.25961 0.53457,5.34571 h -0.004 l -1.41905,-4.13953 c 0,0 -0.46894,0.97121 0.067,2.5959 0.36859,1.11728 0.3325,1.44454 0.27443,1.54363 h -0.0762 l -1.25014,-3.08945 c 0.21866,0.57238 0.57393,1.66683 0.38215,2.35006 -0.12045,0.42911 -0.21935,0.6354 -0.29311,0.73939 h -0.14839 l -0.32903,-5.32885 c 0,0 0.1675,2.66307 -0.46898,3.85228 -0.63648,1.18921 -0.77053,1.42381 -0.77053,1.42381 0,0 -0.48593,-4.38847 -1.55791,-6.81715 -0.80319,-1.81973 -0.99481,-2.09737 -1.04056,-2.12216 z" />
      <path
         id="rect1047"
         style="fill:#898989;fill-opacity:1;stroke:#1b1f37;stroke-width:0;stroke-linejoin:bevel;stroke-miterlimit:4;stroke-dasharray:none;paint-order:markers stroke fill"
         d="m 35.560058,159.791 -2.753205,8.18516 0.719041,0.24166 1.726551,-5.13242 h 10.318883 l 1.726551,5.13242 0.719043,-0.24166 -2.753632,-8.18516 -0.718617,0.24209 0.832643,2.4758 h -9.930857 l 0.832641,-2.4758 z" />
      <path
         id="path1017"
         style="fill:#727272;fill-opacity:1;stroke:#1b1f37;stroke-width:0;stroke-linejoin:bevel;stroke-miterlimit:4;stroke-dasharray:none;paint-order:markers stroke fill"
         d="m 32.17838,152.23461 a 8.2333141,6.4050928 0 0 0 8.233239,6.40536 8.2333141,6.4050928 0 0 0 8.233661,-6.40536 z" />
      <circle
         style="fill:#2b2b2b;fill-opacity:1;stroke:#1b1f37;stroke-width:0;stroke-linejoin:bevel;stroke-miterlimit:4;stroke-dasharray:none;paint-order:markers stroke fill"
         id="circle1061"
         cx="47.29792"
         cy="166.57135"
         r="1.6466624" />
      <circle
         style="fill:#808080;fill-opacity:1;stroke:#1b1f37;stroke-width:0;stroke-linejoin:bevel;stroke-miterlimit:4;stroke-dasharray:none;paint-order:markers stroke fill"
         id="path1059"
         cx="47.29792"
         cy="166.57135"
         r="1.2349968" />
    </g>
  </g>
</svg>
