<?xml version="1.0" encoding="UTF-8" standalone="no"?>
<svg
   xmlns:dc="http://purl.org/dc/elements/1.1/"
   xmlns:cc="http://creativecommons.org/ns#"
   xmlns:rdf="http://www.w3.org/1999/02/22-rdf-syntax-ns#"
   xmlns:svg="http://www.w3.org/2000/svg"
   xmlns="http://www.w3.org/2000/svg"
   xmlns:sodipodi="http://sodipodi.sourceforge.net/DTD/sodipodi-0.dtd"
   xmlns:inkscape="http://www.inkscape.org/namespaces/inkscape"
   width="1024"
   height="1024"
   viewBox="0 0 270.93333 270.93333"
   version="1.1"
   id="svg8"
   inkscape:version="1.0.1 (3bc2e813f5, 2020-09-07)"
   sodipodi:docname="Icon_Computerroom.svg">
  <defs
     id="defs2">
    <inkscape:path-effect
       effect="fillet_chamfer"
       id="path-effect1865"
       is_visible="true"
       lpeversion="1"
       satellites_param="F,0,0,1,0,0.26458333,0,1 @ F,0,0,1,0,0.26458333,0,1 @ F,0,0,1,0,0.26458333,0,1 @ F,0,0,1,0,0.26458333,0,1"
       unit="px"
       method="auto"
       mode="F"
       radius="1"
       chamfer_steps="1"
       flexible="false"
       use_knot_distance="true"
       apply_no_radius="true"
       apply_with_radius="true"
       only_selected="false"
       hide_knots="false" />
    <inkscape:path-effect
       effect="fillet_chamfer"
       id="path-effect1861"
       is_visible="true"
       lpeversion="1"
       satellites_param="F,0,0,1,0,0.52916667,0,1 @ F,0,0,1,0,0.52916667,0,1 @ F,0,0,1,0,0.52916667,0,1 @ F,0,0,1,0,0.52916667,0,1"
       unit="px"
       method="auto"
       mode="F"
       radius="2"
       chamfer_steps="1"
       flexible="false"
       use_knot_distance="true"
       apply_no_radius="true"
       apply_with_radius="true"
       only_selected="false"
       hide_knots="false" />
    <inkscape:path-effect
       effect="fillet_chamfer"
       id="path-effect1863"
       is_visible="true"
       lpeversion="1"
       satellites_param="F,0,0,1,0,0,0,1 @ F,0,0,1,0,0,0,1 @ F,0,0,1,0,0,0,1 @ F,0,0,1,0,0,0,1"
       unit="px"
       method="auto"
       mode="F"
       radius="0"
       chamfer_steps="1"
       flexible="false"
       use_knot_distance="true"
       apply_no_radius="true"
       apply_with_radius="true"
       only_selected="false"
       hide_knots="false" />
    <inkscape:path-effect
       effect="fillet_chamfer"
       id="path-effect1805"
       is_visible="true"
       lpeversion="1"
       satellites_param="F,0,0,1,0,0.79375,0,1 @ F,0,0,1,0,0.79375,0,1 @ F,0,0,1,0,0.79375,0,1 @ F,0,0,1,0,0.79375,0,1"
       unit="px"
       method="auto"
       mode="F"
       radius="3"
       chamfer_steps="1"
       flexible="false"
       use_knot_distance="true"
       apply_no_radius="true"
       apply_with_radius="true"
       only_selected="false"
       hide_knots="false" />
    <inkscape:path-effect
       effect="fillet_chamfer"
       id="path-effect1821"
       is_visible="true"
       lpeversion="1"
       satellites_param="F,0,0,1,0,0.26458333,0,1 @ F,0,0,1,0,0.26458333,0,1 @ F,0,0,1,0,0.26458333,0,1 @ F,0,0,1,0,0.26458333,0,1"
       unit="px"
       method="auto"
       mode="F"
       radius="1"
       chamfer_steps="1"
       flexible="false"
       use_knot_distance="true"
       apply_no_radius="true"
       apply_with_radius="true"
       only_selected="false"
       hide_knots="false" />
    <inkscape:path-effect
       effect="fillet_chamfer"
       id="path-effect1831"
       is_visible="true"
       lpeversion="1"
       satellites_param="F,0,0,1,0,0.26458333,0,1 @ F,0,0,1,0,0.26458333,0,1 @ F,0,0,1,0,0.26458333,0,1 @ F,0,0,1,0,0.26458333,0,1"
       unit="px"
       method="auto"
       mode="F"
       radius="1"
       chamfer_steps="1"
       flexible="false"
       use_knot_distance="true"
       apply_no_radius="true"
       apply_with_radius="true"
       only_selected="false"
       hide_knots="false" />
    <inkscape:path-effect
       effect="fillet_chamfer"
       id="path-effect1839"
       is_visible="true"
       lpeversion="1"
       satellites_param="F,0,0,1,0,0.26458333,0,1 @ F,0,0,1,0,0.26458333,0,1 @ F,0,0,1,0,0.26458333,0,1 @ F,0,0,1,0,0.26458333,0,1"
       unit="px"
       method="auto"
       mode="F"
       radius="1"
       chamfer_steps="1"
       flexible="false"
       use_knot_distance="true"
       apply_no_radius="true"
       apply_with_radius="true"
       only_selected="false"
       hide_knots="false" />
  </defs>
  <sodipodi:namedview
     id="base"
     pagecolor="#ffffff"
     bordercolor="#666666"
     borderopacity="1.0"
     inkscape:pageopacity="0.0"
     inkscape:pageshadow="2"
     inkscape:zoom="0.7"
     inkscape:cx="348.98752"
     inkscape:cy="562.74798"
     inkscape:document-units="mm"
     inkscape:current-layer="layer1"
     inkscape:document-rotation="0"
     showgrid="false"
     units="px"
     inkscape:snap-bbox="true"
     inkscape:bbox-paths="true"
     inkscape:bbox-nodes="true"
     inkscape:snap-bbox-edge-midpoints="true"
     inkscape:snap-bbox-midpoints="true"
     inkscape:object-paths="true"
     inkscape:snap-intersection-paths="true"
     inkscape:snap-smooth-nodes="true"
     inkscape:snap-midpoints="true"
     inkscape:snap-object-midpoints="true"
     inkscape:snap-center="true"
     inkscape:snap-page="true"
     inkscape:window-width="1920"
     inkscape:window-height="1017"
     inkscape:window-x="1912"
     inkscape:window-y="-7"
     inkscape:window-maximized="1" />
  <metadata
     id="metadata5">
    <rdf:RDF>
      <cc:Work
         rdf:about="">
        <dc:format>image/svg+xml</dc:format>
        <dc:type
           rdf:resource="http://purl.org/dc/dcmitype/StillImage" />
        <dc:title></dc:title>
      </cc:Work>
    </rdf:RDF>
  </metadata>
  <g
     inkscape:label="Ebene 1"
     inkscape:groupmode="layer"
     id="layer1">
    <g
       id="g178"
       transform="matrix(5.4165306,0,0,5.4165306,111.2827,88.76218)">
      <rect
         style="fill:#2f2f2f;fill-opacity:1;stroke:#1b1f37;stroke-width:0;stroke-linejoin:bevel;paint-order:markers stroke fill"
         id="rect1825"
         width="3.4319353"
         height="1.0406513"
         x="-5.984509"
         y="18.101711" />
      <path
         id="rect1847"
         style="fill:#71472d;fill-opacity:1;stroke:#1b1f37;stroke-width:0;stroke-linejoin:bevel;paint-order:markers stroke fill"
         d="m -20.545015,7.8319338 v 2.040184 18.3575352 h 9.260417 V 9.8721178 h 39.693186 v -2.040184 z" />
      <rect
         style="fill:#71472d;fill-opacity:1;stroke:#1b1f37;stroke-width:0;stroke-linejoin:bevel;paint-order:markers stroke fill"
         id="rect1845"
         width="2.0397348"
         height="18.35762"
         x="24.329103"
         y="9.8718758" />
      <rect
         style="fill:#2f2f2f;fill-opacity:1;stroke:#1b1f37;stroke-width:0;stroke-linejoin:bevel;paint-order:markers stroke fill"
         id="rect1827"
         width="1.6317871"
         height="7.3430481"
         x="-7.6162992"
         y="11.799314" />
      <path
         id="rect1943"
         style="fill:#d35f5f;fill-opacity:1;stroke:#1b1f37;stroke-width:0;stroke-linejoin:bevel;stroke-miterlimit:4;stroke-dasharray:none;paint-order:markers stroke fill"
         d="m 29.06677,3.4993468 v 7.94e-4 l 0.199192,-7.94e-4 z m 0.407932,0.20956 a 0.20397273,0.20397083 0 0 1 -0.203962,0.19919 h 0.203962 z" />
      <path
         style="fill:#ff0000;fill-opacity:1;stroke:#1b1f37;stroke-width:0;stroke-linejoin:bevel;paint-order:markers stroke fill"
         id="rect1851"
         width="15.152755"
         height="1.5152742"
         x="-3.6446509"
         y="6.3168988"
         inkscape:path-effect="#path-effect1865"
         sodipodi:type="rect"
         d="m -3.3800676,6.3168988 14.6235886,0 a 0.26458333,0.26458333 45 0 1 0.264583,0.2645834 V 7.5675897 A 0.26458333,0.26458333 135 0 1 11.243521,7.832173 H -3.3800676 A 0.26458333,0.26458333 45 0 1 -3.6446509,7.5675897 V 6.5814822 a 0.26458333,0.26458333 135 0 1 0.2645833,-0.2645834 z" />
      <rect
         style="fill:#ff0000;fill-opacity:1;stroke:#1b1f37;stroke-width:0;stroke-linejoin:bevel;paint-order:markers stroke fill"
         id="rect1853"
         width="2.651731"
         height="3.409369"
         x="2.6058888"
         y="2.9075301" />
      <path
         style="fill:#7b7b7b;fill-opacity:1;stroke:#1b1f37;stroke-width:0;stroke-linejoin:bevel;paint-order:markers stroke fill"
         id="rect1855"
         width="22.729134"
         height="11.364567"
         x="-7.4328351"
         y="-8.457057"
         inkscape:path-effect="#path-effect1861"
         sodipodi:type="rect"
         d="M -6.9036684,-8.457057 H 14.767132 a 0.52916667,0.52916667 45 0 1 0.529167,0.5291667 V 2.3783431 A 0.52916667,0.52916667 135 0 1 14.767132,2.9075098 H -6.9036684 A 0.52916667,0.52916667 45 0 1 -7.4328351,2.3783431 V -7.9278903 a 0.52916667,0.52916667 135 0 1 0.5291667,-0.5291667 z" />
      <path
         style="fill:#343434;fill-opacity:1;stroke:#1b1f37;stroke-width:0;stroke-linejoin:bevel;paint-order:markers stroke fill"
         id="rect1857"
         width="21.213858"
         height="9.8492908"
         x="-6.6751742"
         y="-7.6994424"
         inkscape:path-effect="#path-effect1863"
         sodipodi:type="rect"
         d="M -6.6751742,-7.6994424 H 14.538683 V 2.1498485 H -6.6751742 Z" />
      <path
         id="rect1775"
         style="fill:#1d1d1d;fill-opacity:1;stroke:#1b1f37;stroke-width:0;stroke-linejoin:bevel;paint-order:markers stroke fill"
         d="m -3.6979818,-10.984489 a 0.52916667,0.52916667 0 0 0 -0.529166,0.529167 v 4.0049236 a 0.52916667,0.52916667 0 0 0 0.529166,0.5291666 h 0.490927 a 1.0198672,1.0198672 0 0 1 1.019577,1.0195746 1.0198672,1.0198672 0 0 1 -1.019577,1.0200931 h -0.490927 a 0.52916667,0.52916667 0 0 0 -0.529167,0.5291666 V 15.986475 a 0.52916667,0.52916667 0 0 0 0.529167,0.529166 H 11.561553 A 0.52916667,0.52916667 0 0 0 12.09072,15.986475 V -3.3523975 a 0.52916667,0.52916667 0 0 0 -0.529167,-0.5291666 h -0.49041 a 1.0198672,1.0198672 0 0 1 -1.020091,-1.0200934 1.0198672,1.0198672 0 0 1 0.990637,-1.0195743 h 0.519864 a 0.52916667,0.52916667 0 0 0 0.529167,-0.5291666 v -4.0049236 a 0.52916667,0.52916667 0 0 0 -0.529167,-0.529167 z" />
      <rect
         style="fill:#2f2f2f;fill-opacity:1;stroke:#1b1f37;stroke-width:0;stroke-linejoin:bevel;paint-order:markers stroke fill"
         id="rect1833"
         width="3.4319353"
         height="1.0406513"
         x="-13.848025"
         y="18.101711"
         transform="scale(-1,1)" />
      <path
         style="fill:#1d1d1d;fill-opacity:1;stroke:#1b1f37;stroke-width:0;stroke-linejoin:bevel;paint-order:markers stroke fill"
         id="rect1803"
         width="16.400578"
         height="2.9891052"
         x="-4.2685351"
         y="17.127501"
         inkscape:path-effect="#path-effect1805"
         sodipodi:type="rect"
         d="M -3.4747851,17.127501 H 11.338292 a 0.79375,0.79375 45 0 1 0.79375,0.79375 l 0,1.401605 a 0.79375,0.79375 135 0 1 -0.79375,0.79375 H -3.4747851 a 0.79375,0.79375 45 0 1 -0.79375,-0.79375 v -1.401605 a 0.79375,0.79375 135 0 1 0.79375,-0.79375 z" />
      <rect
         style="fill:#2f2f2f;fill-opacity:1;stroke:#1b1f37;stroke-width:0;stroke-linejoin:bevel;paint-order:markers stroke fill"
         id="rect1835"
         width="1.6317871"
         height="7.3430481"
         x="-15.479793"
         y="11.799314"
         transform="scale(-1,1)" />
      <rect
         style="fill:#2f2f2f;fill-opacity:1;stroke:#1b1f37;stroke-width:0;stroke-linejoin:bevel;paint-order:markers stroke fill"
         id="rect1807"
         width="4.0794697"
         height="0.61191905"
         x="1.8920083"
         y="16.515562" />
      <rect
         style="fill:#2f2f2f;fill-opacity:1;stroke:#1b1f37;stroke-width:0;stroke-linejoin:bevel;paint-order:markers stroke fill"
         id="rect1809"
         width="2.0397339"
         height="3.2635753"
         x="2.9118905"
         y="20.116606" />
      <rect
         style="fill:#2f2f2f;fill-opacity:1;stroke:#1b1f37;stroke-width:0;stroke-linejoin:bevel;paint-order:markers stroke fill"
         id="rect1811"
         width="1.6317871"
         height="3.2635753"
         x="3.1158547"
         y="23.380169" />
      <path
         style="fill:#222222;fill-opacity:1;stroke:#1b1f37;stroke-width:0;stroke-linejoin:bevel;paint-order:markers stroke fill"
         id="rect1815"
         width="18.35762"
         height="1.5735081"
         x="-5.247067"
         y="26.643764"
         inkscape:path-effect="#path-effect1821"
         sodipodi:type="rect"
         d="M -4.9824836,26.643764 H 12.84597 a 0.26458333,0.26458333 45 0 1 0.264583,0.264584 l 0,1.044341 A 0.26458333,0.26458333 135 0 1 12.84597,28.217273 H -4.9824836 A 0.26458333,0.26458333 45 0 1 -5.247067,27.952689 v -1.044341 a 0.26458333,0.26458333 135 0 1 0.2645834,-0.264584 z" />
      <path
         style="fill:#1d1d1d;fill-opacity:1;stroke:#1b1f37;stroke-width:0;stroke-linejoin:bevel;paint-order:markers stroke fill"
         id="rect1829"
         width="4.0794697"
         height="1.2238398"
         x="-8.8401299"
         y="10.575489"
         inkscape:path-effect="#path-effect1831"
         sodipodi:type="rect"
         d="m -8.5755465,10.575489 h 3.550303 a 0.26458333,0.26458333 45 0 1 0.2645833,0.264583 v 0.694673 a 0.26458333,0.26458333 135 0 1 -0.2645833,0.264584 h -3.550303 a 0.26458333,0.26458333 45 0 1 -0.2645834,-0.264584 v -0.694673 a 0.26458333,0.26458333 135 0 1 0.2645834,-0.264583 z" />
      <path
         style="fill:#1d1d1d;fill-opacity:1;stroke:#1b1f37;stroke-width:0;stroke-linejoin:bevel;paint-order:markers stroke fill"
         id="path1837"
         width="4.0794697"
         height="1.2238398"
         x="-16.703623"
         y="10.575489"
         inkscape:path-effect="#path-effect1839"
         sodipodi:type="rect"
         transform="scale(-1,1)"
         d="m -16.439039,10.575489 h 3.550303 a 0.26458333,0.26458333 45 0 1 0.264583,0.264583 v 0.694673 a 0.26458333,0.26458333 135 0 1 -0.264583,0.264584 h -3.550303 a 0.26458333,0.26458333 45 0 1 -0.264584,-0.264584 v -0.694673 a 0.26458333,0.26458333 135 0 1 0.264584,-0.264583 z" />
      <path
         style="fill:#a5653c;fill-opacity:1;stroke:#000000;stroke-width:0;stroke-linecap:butt;stroke-linejoin:miter;stroke-miterlimit:4;stroke-dasharray:none;stroke-opacity:1"
         d="m -17.562029,4.1606468 0.407943,3.67151 h 2.447683 l 0.407942,-3.67151 z"
         id="path1913" />
      <path
         id="rect1915"
         style="fill:#198a32;fill-opacity:1;stroke:#1b1f37;stroke-width:0;stroke-linejoin:bevel;stroke-miterlimit:4;stroke-dasharray:none;paint-order:markers stroke fill"
         d="m -15.959561,-1.3463534 a 1.019867,1.0198671 0 0 0 -0.990386,1.0198702 1.019867,1.0198671 0 0 0 0,0.0286 v 4.45874 h 2.039736 v -4.48741 a 1.019867,1.0198671 0 0 0 -1.019867,-1.0198801 1.019867,1.0198671 0 0 0 -0.02948,0 z" />
      <path
         id="rect1921"
         style="fill:#706f91;fill-opacity:1;stroke:#1b1f37;stroke-width:0;stroke-linejoin:bevel;stroke-miterlimit:4;stroke-dasharray:none;paint-order:markers stroke fill"
         d="m -13.146167,2.5288468 v 2.65166 c 0,2.65165 0.8159,2.65165 0.8159,2.65165 h 0.815898 0.815884 c 0,0 0.674775,-0.0245 0.7920012,-2.04931 h 1.078029 a 0.20397273,0.20397083 0 0 0 0.203971,-0.19919 v -0.20874 h -0.407942 -0.85813 c 0.0013,-0.0695 0.0077,-0.12088 0.0077,-0.19441 v -1.84612 h 0.850159 v 2.03972 h 0.407942 v -2.03972 -0.20877 a 0.20397273,0.20397083 0 0 0 -0.203971,-0.19919 h -1.054133 v -0.39758 h -1.6317842 z" />
      <g
         id="g2003"
         transform="matrix(1.5418475,0,0,1.5418475,-145.99031,-170.56315)"
         style="fill:#dfdfdf;fill-opacity:1">
        <path
           style="fill:#dfdfdf;fill-opacity:1;stroke:#000000;stroke-width:0;stroke-linecap:butt;stroke-linejoin:miter;stroke-miterlimit:4;stroke-dasharray:none;stroke-opacity:1"
           d="m 83.788063,112.98018 -0.271743,-0.23892 0.351241,0.0305 z"
           id="path1958" />
        <path
           style="fill:#dfdfdf;fill-opacity:1;stroke:#000000;stroke-width:0;stroke-linecap:butt;stroke-linejoin:miter;stroke-miterlimit:4;stroke-dasharray:none;stroke-opacity:1"
           d="m 83.788063,112.32079 -0.271743,-0.23892 0.351241,0.0305 z"
           id="path1960" />
        <path
           style="fill:#dfdfdf;fill-opacity:1;stroke:#000000;stroke-width:0;stroke-linecap:butt;stroke-linejoin:miter;stroke-miterlimit:4;stroke-dasharray:none;stroke-opacity:1"
           d="m 83.69194,111.59112 -0.271743,-0.23892 0.351241,0.0305 z"
           id="path1962" />
        <path
           style="fill:#dfdfdf;fill-opacity:1;stroke:#000000;stroke-width:0;stroke-linecap:butt;stroke-linejoin:miter;stroke-miterlimit:4;stroke-dasharray:none;stroke-opacity:1"
           d="m 84.969371,111.31102 0.271743,-0.23892 -0.351241,0.0305 z"
           id="path1964" />
        <path
           style="fill:#dfdfdf;fill-opacity:1;stroke:#000000;stroke-width:0;stroke-linecap:butt;stroke-linejoin:miter;stroke-miterlimit:4;stroke-dasharray:none;stroke-opacity:1"
           d="m 85.014856,112.34662 0.271743,-0.23892 -0.351241,0.0305 z"
           id="path1966" />
        <path
           style="fill:#dfdfdf;fill-opacity:1;stroke:#000000;stroke-width:0;stroke-linecap:butt;stroke-linejoin:miter;stroke-miterlimit:4;stroke-dasharray:none;stroke-opacity:1"
           d="m 85.014856,113.08663 0.271743,-0.23892 -0.351241,0.0305 z"
           id="path1968" />
        <path
           style="fill:#dfdfdf;fill-opacity:1;stroke:#000000;stroke-width:0;stroke-linecap:butt;stroke-linejoin:miter;stroke-miterlimit:4;stroke-dasharray:none;stroke-opacity:1"
           d="m 84.617981,111.93941 0.271743,-0.23892 -0.351241,0.0305 z"
           id="path1970" />
        <path
           style="fill:#dfdfdf;fill-opacity:1;stroke:#000000;stroke-width:0;stroke-linecap:butt;stroke-linejoin:miter;stroke-miterlimit:4;stroke-dasharray:none;stroke-opacity:1"
           d="m 84.981298,110.56177 0.198903,-0.30226 -0.330683,0.12226 z"
           id="path1972" />
        <path
           style="fill:#dfdfdf;fill-opacity:1;stroke:#000000;stroke-width:0;stroke-linecap:butt;stroke-linejoin:miter;stroke-miterlimit:4;stroke-dasharray:none;stroke-opacity:1"
           d="m 83.781315,110.24964 -0.198903,-0.30226 0.330683,0.12226 z"
           id="path1974" />
        <path
           style="fill:#dfdfdf;fill-opacity:1;stroke:#000000;stroke-width:0;stroke-linecap:butt;stroke-linejoin:miter;stroke-miterlimit:4;stroke-dasharray:none;stroke-opacity:1"
           d="m 83.827812,110.91547 -0.271743,-0.23892 0.351241,0.0305 z"
           id="path1976" />
        <path
           style="fill:#dfdfdf;fill-opacity:1;stroke:#000000;stroke-width:0;stroke-linecap:butt;stroke-linejoin:miter;stroke-miterlimit:4;stroke-dasharray:none;stroke-opacity:1"
           d="m 84.229375,112.74454 -0.271743,-0.23892 0.351241,0.0305 z"
           id="path1978" />
        <path
           style="fill:#dfdfdf;fill-opacity:1;stroke:#000000;stroke-width:0;stroke-linecap:butt;stroke-linejoin:miter;stroke-miterlimit:4;stroke-dasharray:none;stroke-opacity:1"
           d="m 84.43597,109.81675 0.270841,-0.23994 -0.0739,0.34473 z"
           id="path1980"
           inkscape:transform-center-x="0.19843747"
           inkscape:transform-center-y="-0.012402028" />
        <path
           style="fill:#dfdfdf;fill-opacity:1;stroke:#000000;stroke-width:0;stroke-linecap:butt;stroke-linejoin:miter;stroke-miterlimit:4;stroke-dasharray:none;stroke-opacity:1"
           d="m 84.245482,110.46135 -0.04535,-0.35899 0.242952,0.25549 z"
           id="path1985"
           inkscape:transform-center-x="-0.020670507"
           inkscape:transform-center-y="0.18190138" />
        <path
           style="fill:#dfdfdf;fill-opacity:1;stroke:#000000;stroke-width:0;stroke-linecap:butt;stroke-linejoin:miter;stroke-miterlimit:4;stroke-dasharray:none;stroke-opacity:1"
           d="m 84.20651,111.08867 0.307519,-0.19069 -0.131149,0.32726 z"
           id="path1987"
           inkscape:transform-center-x="0.19791499"
           inkscape:transform-center-y="0.07297638" />
      </g>
      <rect
         style="fill:#8d8d8d;fill-opacity:1;stroke:#1b1f37;stroke-width:0;stroke-linejoin:bevel;stroke-miterlimit:4;stroke-dasharray:none;paint-order:markers stroke fill"
         id="rect2016"
         width="7.9685111"
         height="0.68681753"
         x="8.5243425"
         y="21.743195"
         transform="rotate(-53.155531)" />
      <path
         id="path2005"
         style="fill:#7b7b7b;fill-opacity:1;stroke:#1b1f37;stroke-width:0;stroke-linejoin:bevel;stroke-miterlimit:4;stroke-dasharray:none;paint-order:markers stroke fill"
         d="m 22.879725,5.8475588 a 3.984384,1.2980799 0 0 0 -3.941877,1.297594 v 0.686781 h 7.968504 v -0.686781 a 3.984384,1.2980799 0 0 0 -3.983736,-1.297594 3.984384,1.2980799 0 0 0 -0.04289,0 z" />
      <rect
         style="fill:#8d8d8d;fill-opacity:1;stroke:#1b1f37;stroke-width:0;stroke-linejoin:bevel;stroke-miterlimit:4;stroke-dasharray:none;paint-order:markers stroke fill"
         id="rect2019"
         width="7.9685111"
         height="0.68681753"
         x="13.842548"
         y="-17.137459"
         transform="rotate(38.001914)" />
      <ellipse
         style="fill:#757575;fill-opacity:1;stroke:#1b1f37;stroke-width:0;stroke-linejoin:bevel;stroke-miterlimit:4;stroke-dasharray:none;paint-order:markers stroke fill"
         id="path2021"
         cx="27.506258"
         cy="0.14149976"
         rx="0.81589353"
         ry="0.81589347" />
      <path
         style="fill:#757575;fill-opacity:1;stroke:#000000;stroke-width:0;stroke-linecap:butt;stroke-linejoin:miter;stroke-miterlimit:4;stroke-dasharray:none;stroke-opacity:1"
         d="m 18.032082,-4.6363135 2.192909,-2.8953299 2.25861,1.1830101 -1.13134,3.4513498 -0.42587,0.81309 -3.32018,-1.7390298 z"
         id="path2027" />
      <g
         id="g2082"
         style="fill:#9f633f;fill-opacity:1"
         transform="translate(-107.71362,-112.85935)">
        <rect
           style="fill:#9f633f;fill-opacity:1;stroke:#1b1f37;stroke-width:0;stroke-linejoin:bevel;stroke-miterlimit:4;stroke-dasharray:none;paint-order:markers stroke fill"
           id="rect2051"
           width="7.6729183"
           height="4.0790782"
           x="87.962265"
           y="123.52497" />
        <rect
           style="fill:#9f633f;fill-opacity:1;stroke:#1b1f37;stroke-width:0;stroke-linejoin:bevel;stroke-miterlimit:4;stroke-dasharray:none;paint-order:markers stroke fill"
           id="rect2055"
           width="7.6729183"
           height="4.0790782"
           x="87.962265"
           y="128.3978" />
        <rect
           style="fill:#9f633f;fill-opacity:1;stroke:#1b1f37;stroke-width:0;stroke-linejoin:bevel;stroke-miterlimit:4;stroke-dasharray:none;paint-order:markers stroke fill"
           id="rect2059"
           width="7.6729183"
           height="4.0790782"
           x="87.962265"
           y="133.27063" />
      </g>
      <g
         id="g2087"
         style="fill:#bd815c;fill-opacity:1"
         transform="translate(-107.71362,-112.85935)">
        <rect
           style="fill:#bd815c;fill-opacity:1;stroke:#1b1f37;stroke-width:0;stroke-linejoin:bevel;stroke-miterlimit:4;stroke-dasharray:none;paint-order:markers stroke fill"
           id="rect2061"
           width="3.0250258"
           height="0.74812466"
           x="90.286217"
           y="134.06438" />
        <rect
           style="fill:#bd815c;fill-opacity:1;stroke:#1b1f37;stroke-width:0;stroke-linejoin:bevel;stroke-miterlimit:4;stroke-dasharray:none;paint-order:markers stroke fill"
           id="rect2075"
           width="3.0250258"
           height="0.74812466"
           x="90.286217"
           y="129.19154" />
        <rect
           style="fill:#bd815c;fill-opacity:1;stroke:#1b1f37;stroke-width:0;stroke-linejoin:bevel;stroke-miterlimit:4;stroke-dasharray:none;paint-order:markers stroke fill"
           id="rect2077"
           width="3.0250258"
           height="0.74812466"
           x="90.286217"
           y="124.31871" />
      </g>
    </g>
  </g>
</svg>
