<?xml version="1.0" encoding="UTF-8" standalone="no"?>
<svg
   xmlns:dc="http://purl.org/dc/elements/1.1/"
   xmlns:cc="http://creativecommons.org/ns#"
   xmlns:rdf="http://www.w3.org/1999/02/22-rdf-syntax-ns#"
   xmlns:svg="http://www.w3.org/2000/svg"
   xmlns="http://www.w3.org/2000/svg"
   xmlns:sodipodi="http://sodipodi.sourceforge.net/DTD/sodipodi-0.dtd"
   xmlns:inkscape="http://www.inkscape.org/namespaces/inkscape"
   width="1024"
   height="1024"
   viewBox="0 0 270.93333 270.93333"
   version="1.1"
   id="svg8"
   inkscape:version="1.0.1 (3bc2e813f5, 2020-09-07)"
   sodipodi:docname="Icon_Livingroom.svg">
  <defs
     id="defs2">
    <inkscape:path-effect
       effect="fillet_chamfer"
       id="path-effect484"
       is_visible="true"
       lpeversion="1"
       satellites_param="F,0,0,1,0,1.8520833,0,1 @ F,0,0,1,0,1.8520833,0,1 @ F,0,0,1,0,1.8520833,0,1 @ F,0,0,1,0,1.8520833,0,1"
       unit="px"
       method="auto"
       mode="F"
       radius="7"
       chamfer_steps="1"
       flexible="false"
       use_knot_distance="true"
       apply_no_radius="true"
       apply_with_radius="true"
       only_selected="false"
       hide_knots="false" />
    <inkscape:path-effect
       effect="fillet_chamfer"
       id="path-effect482"
       is_visible="true"
       lpeversion="1"
       satellites_param="F,0,0,1,0,0.52916667,0,1 @ F,0,0,1,0,0.52916667,0,1 @ F,0,0,1,0,0.52916667,0,1 @ F,0,0,1,0,0.52916667,0,1"
       unit="px"
       method="auto"
       mode="F"
       radius="2"
       chamfer_steps="1"
       flexible="false"
       use_knot_distance="true"
       apply_no_radius="true"
       apply_with_radius="true"
       only_selected="false"
       hide_knots="false" />
    <inkscape:path-effect
       effect="fillet_chamfer"
       id="path-effect873"
       is_visible="true"
       lpeversion="1"
       satellites_param="F,0,0,1,0,1.8520833,0,1 @ F,0,0,1,0,1.8520833,0,1 @ F,0,0,1,0,1.8520833,0,1 @ F,0,0,1,0,1.8520833,0,1"
       unit="px"
       method="auto"
       mode="F"
       radius="7"
       chamfer_steps="1"
       flexible="false"
       use_knot_distance="true"
       apply_no_radius="true"
       apply_with_radius="true"
       only_selected="false"
       hide_knots="false" />
    <inkscape:path-effect
       effect="fillet_chamfer"
       id="path-effect907"
       is_visible="true"
       lpeversion="1"
       satellites_param="F,0,0,1,0,0.52916667,0,1 @ F,0,0,1,0,0.52916667,0,1 @ F,0,0,1,0,0.52916667,0,1 @ F,0,0,1,0,0.52916667,0,1"
       unit="px"
       method="auto"
       mode="F"
       radius="2"
       chamfer_steps="1"
       flexible="false"
       use_knot_distance="true"
       apply_no_radius="true"
       apply_with_radius="true"
       only_selected="false"
       hide_knots="false" />
  </defs>
  <sodipodi:namedview
     id="base"
     pagecolor="#ffffff"
     bordercolor="#666666"
     borderopacity="1.0"
     inkscape:pageopacity="0.0"
     inkscape:pageshadow="2"
     inkscape:zoom="0.7"
     inkscape:cx="647.60901"
     inkscape:cy="565.5385"
     inkscape:document-units="mm"
     inkscape:current-layer="layer1"
     inkscape:document-rotation="0"
     showgrid="false"
     units="px"
     inkscape:snap-page="true"
     inkscape:snap-center="true"
     inkscape:snap-object-midpoints="true"
     inkscape:snap-midpoints="true"
     inkscape:snap-smooth-nodes="true"
     inkscape:snap-intersection-paths="true"
     inkscape:object-paths="true"
     inkscape:snap-bbox="true"
     inkscape:bbox-paths="true"
     inkscape:bbox-nodes="true"
     inkscape:snap-bbox-edge-midpoints="true"
     inkscape:snap-bbox-midpoints="true"
     inkscape:window-width="1920"
     inkscape:window-height="1017"
     inkscape:window-x="1912"
     inkscape:window-y="-7"
     inkscape:window-maximized="1" />
  <metadata
     id="metadata5">
    <rdf:RDF>
      <cc:Work
         rdf:about="">
        <dc:format>image/svg+xml</dc:format>
        <dc:type
           rdf:resource="http://purl.org/dc/dcmitype/StillImage" />
        <dc:title></dc:title>
      </cc:Work>
    </rdf:RDF>
  </metadata>
  <g
     inkscape:label="Ebene 1"
     inkscape:groupmode="layer"
     id="layer1">
    <g
       id="g682"
       transform="matrix(4.7623658,0,0,4.7623658,109.69175,129.26159)">
      <path
         id="rect1846"
         style="fill:#707070;fill-opacity:1;stroke:#1b1f37;stroke-width:0;stroke-linejoin:bevel;stroke-miterlimit:4;stroke-dasharray:none;paint-order:markers stroke fill"
         d="m 29.064472,-3.5757573 h 1.058255 V 15.753087 h -1.058255 z" />
      <path
         id="rect861"
         d="M -4.608087,0.41907763 H 19.857111 A 1.8520833,1.8520833 45 0 1 21.709195,2.2711609 V 14.412259 a 1.8520833,1.8520833 135 0 1 -1.852084,1.852083 H -4.608087 A 1.8520833,1.8520833 45 0 1 -6.4601703,14.412259 V 2.2711609 A 1.8520833,1.8520833 135 0 1 -4.608087,0.41907763 Z"
         style="fill:#3d8430;fill-opacity:1;stroke:#1b1f37;stroke-width:0;stroke-linejoin:bevel;paint-order:markers stroke fill" />
      <path
         id="rect905"
         d="M -3.8183136,10.454416 H 19.067313 a 0.52916667,0.52916667 45 0 1 0.529167,0.529167 v 1.505375 a 0.52916667,0.52916667 135 0 1 -0.529167,0.529167 H -3.8183136 a 0.52916667,0.52916667 45 0 1 -0.5291667,-0.529167 v -1.505375 a 0.52916667,0.52916667 135 0 1 0.5291667,-0.529167 z"
         style="fill:#439434;fill-opacity:1;stroke:#1b1f37;stroke-width:0;stroke-linejoin:bevel;paint-order:markers stroke fill" />
      <path
         id="rect863"
         style="fill:#4eaa3e;fill-opacity:1;stroke:#1b1f37;stroke-width:0;stroke-linejoin:bevel;paint-order:markers stroke fill"
         d="m -7.3805466,4.4684064 a 2.9929944,2.9929944 0 0 0 -2.9531054,2.99299 2.9929944,2.9929944 0 0 0 1.7605844,2.7268496 v 3.963381 a 2.1127015,2.1127016 0 0 0 2.112697,2.112708 h 2.112707 23.9439526 2.112708 a 2.1127016,2.1127015 0 0 0 2.112696,-2.112708 v -3.962691 a 2.9929944,2.9929944 0 0 0 1.760595,-2.7275396 2.9929944,2.9929944 0 0 0 -2.993006,-2.99299 2.9929944,2.9929944 0 0 0 -2.992993,2.99299 V 12.239745 H -4.3476636 V 7.4613964 a 2.9929944,2.9929944 0 0 0 -2.992994,-2.99299 2.9929944,2.9929944 0 0 0 -0.03992,0 z" />
      <path
         id="circle875"
         style="fill:#439434;fill-opacity:1;stroke:#1b1f37;stroke-width:0;stroke-linejoin:bevel;paint-order:markers stroke fill"
         d="m -5.7559429,7.4614062 a 1.5845259,1.5845259 0 0 1 -1.584526,1.584526 1.5845259,1.5845259 0 0 1 -1.5845259,-1.584526 1.5845259,1.5845259 0 0 1 1.5845259,-1.5845259 1.5845259,1.5845259 0 0 1 1.584526,1.5845259 z" />
      <path
         id="circle886"
         style="fill:#439434;fill-opacity:1;stroke:#1b1f37;stroke-width:0;stroke-linejoin:bevel;paint-order:markers stroke fill"
         d="m 24.174003,7.4614062 a 1.5845259,1.5845259 0 0 1 -1.584525,1.584526 1.5845259,1.5845259 0 0 1 -1.584526,-1.584526 1.5845259,1.5845259 0 0 1 1.584526,-1.5845259 1.5845259,1.5845259 0 0 1 1.584525,1.5845259 z" />
      <path
         id="rect888"
         style="fill:#7b7b7b;fill-opacity:1;stroke:#1b1f37;stroke-width:0;stroke-linejoin:bevel;paint-order:markers stroke fill"
         d="m -6.4601703,16.264324 h 2.1126981 v 1.303527 h -2.1126981 z" />
      <path
         id="rect890"
         style="fill:#7b7b7b;fill-opacity:1;stroke:#1b1f37;stroke-width:0;stroke-linejoin:bevel;paint-order:markers stroke fill"
         d="m 19.596489,16.264338 h 2.112698 v 1.303526 h -2.112698 z" />
      <path
         id="rect1593"
         style="fill:#cd3232;fill-opacity:1;stroke:#1b1f37;stroke-width:0;stroke-linejoin:bevel;paint-order:markers stroke fill"
         d="m 8.9525957,-14.961989 h 1.8875803 v 5.0335461 H 8.9525957 Z" />
      <path
         id="path1595"
         style="fill:#a01717;fill-opacity:1;stroke:#1b1f37;stroke-width:0;stroke-linejoin:bevel;paint-order:markers stroke fill"
         d="m 9.2672309,-11.550416 v 1.258305 h 1.2583101 v -1.258305 z m 0.1417629,0.141757 h 0.9747842 v 0.974785 H 9.4089938 Z" />
      <path
         id="rect1597"
         style="fill:#a01717;fill-opacity:1;stroke:#1b1f37;stroke-width:0;stroke-linejoin:bevel;paint-order:markers stroke fill"
         d="m 9.2671925,-12.237124 h 1.2583865 v 0.447401 H 9.2671925 Z" />
      <path
         id="rect1601"
         style="fill:#29cc82;fill-opacity:1;stroke:#1b1f37;stroke-width:0;stroke-linejoin:bevel;paint-order:markers stroke fill"
         d="m 10.840178,-14.961989 h 1.258387 v 5.0335476 h -1.258387 z" />
      <path
         id="rect1603"
         style="fill:#09ec84;fill-opacity:1;stroke:#1b1f37;stroke-width:0;stroke-linejoin:bevel;paint-order:markers stroke fill"
         d="m 10.840178,-14.716391 h 1.258387 v 0.125839 h -1.258387 z" />
      <path
         id="rect1605"
         style="fill:#09ec84;fill-opacity:1;stroke:#1b1f37;stroke-width:0;stroke-linejoin:bevel;paint-order:markers stroke fill"
         d="m 10.840178,-10.298395 h 1.258387 v 0.125839 h -1.258387 z" />
      <path
         id="rect1609"
         style="fill:#7434bc;fill-opacity:1;stroke:#1b1f37;stroke-width:0;stroke-linejoin:bevel;paint-order:markers stroke fill"
         d="m 12.098564,-14.961988 h 1.258388 v 5.0335471 h -1.258388 z" />
      <path
         id="rect1611"
         style="fill:#a422d3;fill-opacity:1;stroke:#1b1f37;stroke-width:0;stroke-linejoin:bevel;paint-order:markers stroke fill"
         d="m 12.098564,-14.71639 h 1.258388 v 0.125839 h -1.258388 z" />
      <path
         id="rect1613"
         style="fill:#a422d3;fill-opacity:1;stroke:#1b1f37;stroke-width:0;stroke-linejoin:bevel;paint-order:markers stroke fill"
         d="m 12.098564,-10.298394 h 1.258388 v 0.125839 h -1.258388 z" />
      <path
         id="path1617"
         style="fill:#ffe4ba;fill-opacity:1;stroke:#1b1f37;stroke-width:0;stroke-linejoin:bevel;paint-order:markers stroke fill"
         d="m 13.168193,-14.961983 v 5.0335699 h 0.187285 a 0.52283281,0.2119944 0 0 1 0.441871,-0.098846 0.52283281,0.2119944 0 0 1 0.44187,0.098846 h 0.187285 v -5.0335699 h -0.186958 a 0.52283281,0.2119944 0 0 1 -0.44187,0.09884 0.52283281,0.2119944 0 0 1 -0.441549,-0.09884 z" />
      <path
         id="rect1619"
         style="fill:#4eb348;fill-opacity:1;stroke:#1b1f37;stroke-width:0;stroke-linejoin:bevel;paint-order:markers stroke fill"
         d="m 13.168199,-14.961988 h 0.188758 v 5.0335497 h -0.188758 z" />
      <path
         id="rect1621"
         style="fill:#4eb348;fill-opacity:1;stroke:#1b1f37;stroke-width:0;stroke-linejoin:bevel;paint-order:markers stroke fill"
         d="m 14.237828,-14.961988 h 0.188758 v 5.0335497 h -0.188758 z" />
      <path
         id="path1625"
         style="fill:#ffe4ba;fill-opacity:1;stroke:#1b1f37;stroke-width:0;stroke-linejoin:bevel;paint-order:markers stroke fill"
         d="m 14.426486,-13.873123 v 3.9447037 h 0.290215 a 0.81016634,0.16613574 0 0 1 0.684708,-0.077467 0.81016634,0.16613574 0 0 1 0.684707,0.077467 h 0.290216 v -3.9447037 h -0.289706 a 0.81016634,0.16613574 0 0 1 -0.684708,0.07746 0.81016634,0.16613574 0 0 1 -0.68421,-0.07746 z" />
      <path
         id="rect1627"
         style="fill:#b34848;fill-opacity:1;stroke:#1b1f37;stroke-width:0;stroke-linejoin:bevel;paint-order:markers stroke fill"
         d="m 14.426505,-13.87313 h 0.292493 v 3.9446855 h -0.292493 z" />
      <path
         id="rect1629"
         style="fill:#b34848;fill-opacity:1;stroke:#1b1f37;stroke-width:0;stroke-linejoin:bevel;paint-order:markers stroke fill"
         d="m 16.083964,-13.87313 h 0.292494 v 3.9446855 h -0.292494 z" />
      <path
         id="rect1535"
         style="fill:#785331;fill-opacity:1;stroke:#1b1f37;stroke-width:0;stroke-linejoin:bevel;paint-order:markers stroke fill"
         d="m -5.2491246,-9.9284438 v 1.3286 h 1.328087 10.216945 1.328605 1.328084 10.2169466 1.328599 v -1.3286 H 19.169543 8.9525964 6.2959074 -3.9210376 Z" />
      <path
         id="rect1571"
         style="fill:#439fbc;fill-opacity:1;stroke:#1b1f37;stroke-width:0;stroke-linejoin:bevel;paint-order:markers stroke fill"
         d="m -17.985745,11.031686 v 2.583109 c 0,2.583201 1.37752,3.95306 1.37752,3.95306 h 1.283302 1.283987 c 0,0 1.377521,-1.369859 1.377521,-3.95306 v -2.583109 z" />
      <path
         id="path1589"
         style="fill:#707070;fill-opacity:1;stroke:#1b1f37;stroke-width:0;stroke-linejoin:bevel;stroke-miterlimit:4;stroke-dasharray:none;paint-order:markers stroke fill"
         d="m 29.141882,11.805386 v 3.877411 a 3.1580492,1.4854936 0 0 0 -2.6615,1.46694 v 0.418129 h 6.316091 v -0.418129 a 3.1580492,1.4854936 0 0 0 -2.752286,-1.473131 v -3.87122 z" />
      <path
         id="rect1604"
         style="fill:#862121;fill-opacity:1;stroke:#1b1f37;stroke-width:0;stroke-linejoin:bevel;stroke-miterlimit:4;stroke-dasharray:none;paint-order:markers stroke fill"
         d="m 25.329739,-9.4735765 h 8.527713 v 5.8978171 h -8.527713 z" />
      <path
         id="rect1606"
         style="fill:#785331;fill-opacity:1;stroke:#1b1f37;stroke-width:0;stroke-linejoin:bevel;stroke-miterlimit:4;stroke-dasharray:none;paint-order:markers stroke fill"
         d="m -15.884796,-4.9341025 h 1.12043 V 11.031681 h -1.12043 z" />
      <path
         id="rect1616"
         style="fill:#785331;fill-opacity:1;stroke:#1b1f37;stroke-width:0;stroke-linejoin:bevel;stroke-miterlimit:4;stroke-dasharray:none;paint-order:markers stroke fill"
         d="m -18.29652,1.3253564 a 0.56021766,0.56021766 0 0 0 -0.346617,0.12104 0.56021766,0.56021766 0 0 0 -0.09078,0.78745 0.56021766,0.56021766 0 0 0 0.01305,0.0159 l 3.078274,3.887041 0.87823,-0.69598 -3.091342,-3.90286 a 0.56021766,0.56021766 0 0 0 -0.440832,-0.2125 z" />
      <path
         id="path1623"
         style="fill:#785331;fill-opacity:1;stroke:#1b1f37;stroke-width:0;stroke-linejoin:bevel;stroke-miterlimit:4;stroke-dasharray:none;paint-order:markers stroke fill"
         d="m -12.110168,5.7557064 a 0.56021766,0.56021766 0 0 1 0.34662,0.12097 0.56021766,0.56021766 0 0 1 0.09077,0.78746 0.56021766,0.56021766 0 0 1 -0.0133,0.0158 l -3.078275,3.8870286 -0.878227,-0.6959696 3.091338,-3.90287 a 0.56021766,0.56021766 0 0 1 0.440833,-0.21251 z" />
      <path
         id="path1626"
         style="fill:#785331;fill-opacity:1;stroke:#1b1f37;stroke-width:0;stroke-linejoin:bevel;stroke-miterlimit:4;stroke-dasharray:none;paint-order:markers stroke fill"
         d="m -12.110447,-2.7680036 a 0.56021766,0.56021766 0 0 1 0.346618,0.12103 0.56021766,0.56021766 0 0 1 0.09078,0.78746 0.56021766,0.56021766 0 0 1 -0.01305,0.0158 l -3.078273,3.887039 -0.878231,-0.69598 3.091342,-3.90286 a 0.56021766,0.56021766 0 0 1 0.440833,-0.2125 z" />
      <path
         id="path1628"
         style="fill:#785331;fill-opacity:1;stroke:#1b1f37;stroke-width:0;stroke-linejoin:bevel;stroke-miterlimit:4;stroke-dasharray:none;paint-order:markers stroke fill"
         d="m -18.29652,-6.6192937 a 0.56021766,0.56021766 0 0 0 -0.346617,0.1210498 0.56021766,0.56021766 0 0 0 -0.09078,0.7874402 0.56021766,0.56021766 0 0 0 0.01305,0.015899 l 3.078274,3.8870411 0.87823,-0.69597 -3.091342,-3.9028703 a 0.56021766,0.56021766 0 0 0 -0.440832,-0.2125099 z" />
      <path
         id="path1630"
         style="fill:#785331;fill-opacity:1;stroke:#1b1f37;stroke-width:0;stroke-linejoin:bevel;stroke-miterlimit:4;stroke-dasharray:none;paint-order:markers stroke fill"
         d="m -14.764376,-4.9341025 a 0.56021702,0.59392101 0 0 1 -0.560217,0.593921 0.56021702,0.59392101 0 0 1 -0.560217,-0.593921 0.56021702,0.59392101 0 0 1 0.560217,-0.593921 0.56021702,0.59392101 0 0 1 0.560217,0.593921 z" />
      <path
         style="fill:#449045;fill-opacity:1;stroke:#000000;stroke-width:0;stroke-linecap:butt;stroke-linejoin:miter;stroke-miterlimit:4;stroke-dasharray:none;stroke-opacity:1"
         d="m -16.689781,4.6544288 c 0,0 0.568006,0.7371061 -0.392265,1.4907124 -0.960274,0.7535966 -3.25906,0.7183282 -3.25906,0.7183282 0,0 0.3789,-1.8454889 1.677582,-2.5378601 1.298683,-0.6923816 1.973751,0.3288484 1.973751,0.3288484 z"
         id="path1733" />
      <path
         style="fill:#33733a;fill-opacity:1;stroke:#000000;stroke-width:0;stroke-linecap:butt;stroke-linejoin:miter;stroke-miterlimit:4;stroke-dasharray:none;stroke-opacity:1"
         d="m -16.024031,4.7679332 c 0,0 -0.779299,0.017956 -2.021589,0.6314808 -1.242287,0.6135344 -1.552929,0.8711454 -1.552929,0.8711454 0,0 0.917514,-0.8180473 1.414985,-1.0595482 0.422028,-0.2048826 2.171655,-0.5576989 2.171655,-0.5576989 z"
         id="path1735"
         sodipodi:nodetypes="cscscc" />
      <path
         style="fill:#449045;fill-opacity:1;stroke:#000000;stroke-width:0;stroke-linecap:butt;stroke-linejoin:miter;stroke-miterlimit:4;stroke-dasharray:none;stroke-opacity:1"
         d="m -18.644021,1.4831 c 0,0 0.0037,0.93056 -1.216845,0.94625 -1.220568,0.0157 -3.025636,-1.40819 -3.025636,-1.40819 0,0 1.421648,-1.23624 2.873919,-0.99779 1.452279,0.23844 1.368551,1.45976 1.368551,1.45976 z"
         id="path1737" />
      <path
         style="fill:#33733a;fill-opacity:1;stroke:#000000;stroke-width:0;stroke-linecap:butt;stroke-linejoin:miter;stroke-miterlimit:4;stroke-dasharray:none;stroke-opacity:1"
         d="m -18.183975,1.97753 c 0,0 -0.63009,-0.45892 -1.989679,-0.72578 -1.359594,-0.26685 -1.762835,-0.25079 -1.762835,-0.25079 0,0 1.225729,-0.0928 1.767632,0.0173 0.459726,0.0935 2.064112,0.87553 2.064112,0.87553 z"
         id="path1739"
         sodipodi:nodetypes="cscscc" />
      <path
         style="fill:#449045;fill-opacity:1;stroke:#000000;stroke-width:0;stroke-linecap:butt;stroke-linejoin:miter;stroke-miterlimit:4;stroke-dasharray:none;stroke-opacity:1"
         d="m -18.476622,2.6079767 c 0,0 0.527487,0.7666247 -0.47193,1.467441 -0.999429,0.7008376 -3.292999,0.5418728 -3.292999,0.5418728 0,0 0.477684,-1.8224134 1.811746,-2.4438842 1.334064,-0.6214835 1.953191,0.4346013 1.953191,0.4346013 z"
         id="path1749" />
      <path
         style="fill:#33733a;fill-opacity:1;stroke:#000000;stroke-width:0;stroke-linecap:butt;stroke-linejoin:miter;stroke-miterlimit:4;stroke-dasharray:none;stroke-opacity:1"
         d="m -17.817948,2.7571463 c 0,0 -0.77913,-0.024005 -2.052642,0.5217647 -1.27351,0.5457808 -1.597566,0.7862996 -1.597566,0.7862996 0,0 0.960242,-0.7674362 1.469942,-0.9818827 0.43246,-0.1818473 2.198523,-0.4400081 2.198523,-0.4400081 z"
         id="path1751"
         sodipodi:nodetypes="cscscc" />
      <path
         style="fill:#449045;fill-opacity:1;stroke:#000000;stroke-width:0;stroke-linecap:butt;stroke-linejoin:miter;stroke-miterlimit:4;stroke-dasharray:none;stroke-opacity:1"
         d="m -14.086495,0.83949701 c 0,0 -0.568006,0.73710609 0.392266,1.49071249 0.960273,0.7535965 3.259059,0.7183281 3.259059,0.7183281 0,0 -0.3789,-1.8454888 -1.677582,-2.53786007 -1.298682,-0.69238165 -1.973751,0.32884845 -1.973751,0.32884845 z"
         id="path1755" />
      <path
         style="fill:#33733a;fill-opacity:1;stroke:#000000;stroke-width:0;stroke-linecap:butt;stroke-linejoin:miter;stroke-miterlimit:4;stroke-dasharray:none;stroke-opacity:1"
         d="m -14.752244,0.95300141 c 0,0 0.779299,0.0179562 2.021588,0.63148089 1.242288,0.6135344 1.552929,0.8711453 1.552929,0.8711453 0,0 -0.917514,-0.8180473 -1.414984,-1.0595482 -0.422029,-0.2048826 -2.171656,-0.55769885 -2.171656,-0.55769885 z"
         id="path1757"
         sodipodi:nodetypes="cscscc" />
      <path
         style="fill:#449045;fill-opacity:1;stroke:#000000;stroke-width:0;stroke-linecap:butt;stroke-linejoin:miter;stroke-miterlimit:4;stroke-dasharray:none;stroke-opacity:1"
         d="m -12.132247,-2.33184 c 0,0 -0.0037,0.93056 1.216845,0.94625 1.2205684,0.0157 3.0256364,-1.40819 3.0256364,-1.40819 0,0 -1.421648,-1.23624 -2.8739194,-0.99779 -1.452279,0.23844 -1.368551,1.45976 -1.368551,1.45976 z"
         id="path1761" />
      <path
         style="fill:#33733a;fill-opacity:1;stroke:#000000;stroke-width:0;stroke-linecap:butt;stroke-linejoin:miter;stroke-miterlimit:4;stroke-dasharray:none;stroke-opacity:1"
         d="m -12.592293,-1.83741 c 0,0 0.63009,-0.45892 1.989679,-0.72578 1.3595944,-0.26685 1.7628354,-0.25079 1.7628354,-0.25079 0,0 -1.2257294,-0.0928 -1.7676324,0.0173 -0.459726,0.0935 -2.064112,0.87553 -2.064112,0.87553 z"
         id="path1763"
         sodipodi:nodetypes="cscscc" />
      <path
         style="fill:#449045;fill-opacity:1;stroke:#000000;stroke-width:0;stroke-linecap:butt;stroke-linejoin:miter;stroke-miterlimit:4;stroke-dasharray:none;stroke-opacity:1"
         d="m -12.299648,-1.2069578 c 0,0 -0.527487,0.76662475 0.471929,1.46744109 0.99943,0.70083755 3.2930001,0.54187272 3.2930001,0.54187272 0,0 -0.4776838,-1.82241341 -1.8117471,-2.44388411 -1.334063,-0.6214835 -1.95319,0.4346013 -1.95319,0.4346013 z"
         id="path1767" />
      <path
         style="fill:#33733a;fill-opacity:1;stroke:#000000;stroke-width:0;stroke-linecap:butt;stroke-linejoin:miter;stroke-miterlimit:4;stroke-dasharray:none;stroke-opacity:1"
         d="m -12.958322,-1.0577882 c 0,0 0.77913,-0.024005 2.052642,0.52176469 1.2735101,0.54578086 1.5975655,0.7862997 1.5975655,0.7862997 0,0 -0.9602425,-0.76743629 -1.4699415,-0.98188276 -0.43246,-0.18184727 -2.198523,-0.44000813 -2.198523,-0.44000813 z"
         id="path1769"
         sodipodi:nodetypes="cscscc" />
      <path
         style="fill:#449045;fill-opacity:1;stroke:#000000;stroke-width:0;stroke-linecap:butt;stroke-linejoin:miter;stroke-miterlimit:4;stroke-dasharray:none;stroke-opacity:1"
         d="m -16.836318,-2.8424951 c 0,0 0.568006,0.7371061 -0.392265,1.4907124 -0.960274,0.75359659 -3.25906,0.71832816 -3.25906,0.71832816 0,0 0.3789,-1.84548886 1.677582,-2.53786006 1.298683,-0.6923817 1.973751,0.3288484 1.973751,0.3288484 z"
         id="path1773" />
      <path
         style="fill:#33733a;fill-opacity:1;stroke:#000000;stroke-width:0;stroke-linecap:butt;stroke-linejoin:miter;stroke-miterlimit:4;stroke-dasharray:none;stroke-opacity:1"
         d="m -16.170568,-2.7289907 c 0,0 -0.779299,0.017956 -2.021589,0.6314808 -1.242287,0.6135344 -1.552929,0.8711454 -1.552929,0.8711454 0,0 0.917514,-0.8180473 1.414985,-1.0595482 0.422029,-0.2048826 2.171655,-0.5576989 2.171655,-0.5576989 z"
         id="path1775"
         sodipodi:nodetypes="cscscc" />
      <path
         style="fill:#449045;fill-opacity:1;stroke:#000000;stroke-width:0;stroke-linecap:butt;stroke-linejoin:miter;stroke-miterlimit:4;stroke-dasharray:none;stroke-opacity:1"
         d="m -18.790557,-6.01383 c 0,0 0.0037,0.93056 -1.216845,0.94625 -1.220568,0.0157 -3.025636,-1.40819 -3.025636,-1.40819 0,0 1.421648,-1.23624 2.873919,-0.99779 1.452279,0.23844 1.368551,1.45976 1.368551,1.45976 z"
         id="path1779" />
      <path
         style="fill:#33733a;fill-opacity:1;stroke:#000000;stroke-width:0;stroke-linecap:butt;stroke-linejoin:miter;stroke-miterlimit:4;stroke-dasharray:none;stroke-opacity:1"
         d="m -18.330511,-5.5194 c 0,0 -0.63009,-0.45892 -1.989679,-0.72578 -1.359594,-0.26685 -1.762835,-0.25079 -1.762835,-0.25079 0,0 1.225729,-0.0928 1.767632,0.0173 0.459726,0.0935 2.064112,0.87553 2.064112,0.87553 z"
         id="path1781"
         sodipodi:nodetypes="cscscc" />
      <path
         style="fill:#449045;fill-opacity:1;stroke:#000000;stroke-width:0;stroke-linecap:butt;stroke-linejoin:miter;stroke-miterlimit:4;stroke-dasharray:none;stroke-opacity:1"
         d="m -18.623156,-4.8889444 c 0,0 0.527487,0.7666247 -0.471929,1.467441 -0.99943,0.7008376 -3.293,0.5418728 -3.293,0.5418728 0,0 0.477684,-1.8224134 1.811747,-2.4438842 1.334064,-0.6214835 1.95319,0.4346013 1.95319,0.4346013 z"
         id="path1785" />
      <path
         style="fill:#33733a;fill-opacity:1;stroke:#000000;stroke-width:0;stroke-linecap:butt;stroke-linejoin:miter;stroke-miterlimit:4;stroke-dasharray:none;stroke-opacity:1"
         d="m -17.964481,-4.7397748 c 0,0 -0.779131,-0.024005 -2.052643,0.5217646 -1.27351,0.5457809 -1.597565,0.7862997 -1.597565,0.7862997 0,0 0.960242,-0.7674362 1.469941,-0.9818827 0.432461,-0.1818473 2.198524,-0.4400081 2.198524,-0.4400081 z"
         id="path1787"
         sodipodi:nodetypes="cscscc" />
      <path
         style="fill:#449045;fill-opacity:1;stroke:#000000;stroke-width:0;stroke-linecap:butt;stroke-linejoin:miter;stroke-miterlimit:4;stroke-dasharray:none;stroke-opacity:1"
         d="m -17.75777,1.450418 c 0,0 0.217591,0.9047706 1.406885,0.6298994 1.18932,-0.2748669 2.604212,-2.08699649 2.604212,-2.08699649 0,0 -1.674747,-0.86289895 -3.02872,-0.28609221 -1.353984,0.57679892 -0.98236,1.7432158 -0.98236,1.7432158 z"
         id="path1791" />
      <path
         style="fill:#33733a;fill-opacity:1;stroke:#000000;stroke-width:0;stroke-linecap:butt;stroke-linejoin:miter;stroke-miterlimit:4;stroke-dasharray:none;stroke-opacity:1"
         d="m -18.087111,2.0400265 c 0,0 0.502952,-0.595534 1.760146,-1.17790689 1.257202,-0.58236442 1.652704,-0.66261108 1.652704,-0.66261108 0,0 -1.212659,0.20120322 -1.712862,0.43695286 -0.424326,0.20009272 -1.796851,1.34105721 -1.796851,1.34105721 z"
         id="path1793"
         sodipodi:nodetypes="cscscc" />
      <path
         style="fill:#449045;fill-opacity:1;stroke:#000000;stroke-width:0;stroke-linecap:butt;stroke-linejoin:miter;stroke-miterlimit:4;stroke-dasharray:none;stroke-opacity:1"
         d="m -17.846125,-6.371272 c 0,0 0.217591,0.9047706 1.406885,0.6298994 1.18932,-0.2748669 2.604212,-2.0869965 2.604212,-2.0869965 0,0 -1.674747,-0.8628989 -3.02872,-0.2860922 -1.353984,0.5767989 -0.98236,1.7432158 -0.98236,1.7432158 z"
         id="path1797" />
      <path
         style="fill:#33733a;fill-opacity:1;stroke:#000000;stroke-width:0;stroke-linecap:butt;stroke-linejoin:miter;stroke-miterlimit:4;stroke-dasharray:none;stroke-opacity:1"
         d="m -18.175466,-5.7816635 c 0,0 0.502952,-0.595534 1.760146,-1.1779069 1.257202,-0.5823644 1.652704,-0.6626111 1.652704,-0.6626111 0,0 -1.212659,0.2012033 -1.712862,0.4369529 -0.424326,0.2000927 -1.796851,1.3410572 -1.796851,1.3410572 z"
         id="path1799"
         sodipodi:nodetypes="cscscc" />
      <path
         style="fill:#449045;fill-opacity:1;stroke:#000000;stroke-width:0;stroke-linecap:butt;stroke-linejoin:miter;stroke-miterlimit:4;stroke-dasharray:none;stroke-opacity:1"
         d="m -13.049152,-2.3371453 c 0,0 -0.557303,0.7452309 -1.54129,0.022912 -0.984012,-0.7223249 -1.567991,-2.9459936 -1.567991,-2.9459936 0,0 1.879408,-0.131149 2.895407,0.9336015 1.016013,1.0647473 0.213847,1.9894976 0.213847,1.9894976 z"
         id="path1803" />
      <path
         style="fill:#33733a;fill-opacity:1;stroke:#000000;stroke-width:0;stroke-linecap:butt;stroke-linejoin:miter;stroke-miterlimit:4;stroke-dasharray:none;stroke-opacity:1"
         d="m -12.979508,-1.6653916 c 0,0 -0.226795,-0.7457783 -1.151688,-1.7774122 -0.924904,-1.0316289 -1.25654,-1.2615829 -1.25654,-1.2615829 0,0 1.034552,0.6638719 1.400946,1.0780415 0.310774,0.3514395 1.12096,1.9417932 1.12096,1.9417932 z"
         id="path1805"
         sodipodi:nodetypes="cscscc" />
      <path
         style="fill:#449045;fill-opacity:1;stroke:#000000;stroke-width:0;stroke-linecap:butt;stroke-linejoin:miter;stroke-miterlimit:4;stroke-dasharray:none;stroke-opacity:1"
         d="m -12.11975,5.7911441 c 0,0 -0.21759,0.9047705 -1.406885,0.6298994 -1.18932,-0.2748669 -2.604212,-2.0869965 -2.604212,-2.0869965 0,0 1.674747,-0.862899 3.02872,-0.2860922 1.353984,0.5767989 0.98236,1.7432158 0.98236,1.7432158 z"
         id="path1809" />
      <path
         style="fill:#33733a;fill-opacity:1;stroke:#000000;stroke-width:0;stroke-linecap:butt;stroke-linejoin:miter;stroke-miterlimit:4;stroke-dasharray:none;stroke-opacity:1"
         d="m -11.790409,6.3807526 c 0,0 -0.502952,-0.595534 -1.760146,-1.1779069 -1.257202,-0.5823644 -1.652704,-0.6626111 -1.652704,-0.6626111 0,0 1.212659,0.2012032 1.712862,0.4369529 0.424326,0.2000927 1.796851,1.3410572 1.796851,1.3410572 z"
         id="path1811"
         sodipodi:nodetypes="cscscc" />
      <path
         style="fill:#449045;fill-opacity:1;stroke:#000000;stroke-width:0;stroke-linecap:butt;stroke-linejoin:miter;stroke-miterlimit:4;stroke-dasharray:none;stroke-opacity:1"
         d="m -14.096946,7.9194675 c 0,0 0.275536,0.8888396 -0.88712,1.2606022 -1.162675,0.3717789 -3.305107,-0.4623173 -3.305107,-0.4623173 0,0 0.998217,-1.5977907 2.456762,-1.7942441 1.458551,-0.1964653 1.735464,0.9959911 1.735464,0.9959911 z"
         id="path1815" />
      <path
         style="fill:#33733a;fill-opacity:1;stroke:#000000;stroke-width:0;stroke-linecap:butt;stroke-linejoin:miter;stroke-miterlimit:4;stroke-dasharray:none;stroke-opacity:1"
         d="m -13.512472,8.2578364 c 0,0 -0.736712,-0.2547069 -2.114927,-0.1125132 -1.378218,0.1422048 -1.759154,0.2754283 -1.759154,0.2754283 0,0 1.145075,-0.4470204 1.695493,-0.5001235 0.466979,-0.044958 2.229882,0.233967 2.229882,0.233967 z"
         id="path1817"
         sodipodi:nodetypes="cscscc" />
      <path
         style="fill:#449045;fill-opacity:1;stroke:#000000;stroke-width:0;stroke-linecap:butt;stroke-linejoin:miter;stroke-miterlimit:4;stroke-dasharray:none;stroke-opacity:1"
         d="m -12.120725,7.9276837 c 0,0 -0.918741,0.1478879 -0.735417,1.3547167 0.183332,1.2068236 1.882185,2.7558736 1.882185,2.7558736 0,0 0.9881877,-1.60402 0.51638,-2.9980602 -0.471802,-1.3940488 -1.663174,-1.1125146 -1.663174,-1.1125146 z"
         id="path1821" />
      <path
         style="fill:#33733a;fill-opacity:1;stroke:#000000;stroke-width:0;stroke-linecap:butt;stroke-linejoin:miter;stroke-miterlimit:4;stroke-dasharray:none;stroke-opacity:1"
         d="m -12.683486,7.5543124 c 0,0 0.555428,0.5469268 1.040166,1.8448963 0.48473,1.2979753 0.534564,1.6984473 0.534564,1.6984473 0,0 -0.10803,-1.2244846 -0.305007,-1.7412044 -0.167102,-0.4383632 -1.200035,-1.893946 -1.200035,-1.893946 z"
         id="path1823"
         sodipodi:nodetypes="cscscc" />
      <path
         style="fill:#449045;fill-opacity:1;stroke:#000000;stroke-width:0;stroke-linecap:butt;stroke-linejoin:miter;stroke-miterlimit:4;stroke-dasharray:none;stroke-opacity:1"
         d="m -11.602388,6.5580445 c 0,0 0.02825,0.9301385 1.248615,0.9039146 1.2203878,-0.026215 2.9755057,-1.5112381 2.9755057,-1.5112381 0,0 -1.4632533,-1.1867021 -2.9064817,-0.8985323 -1.443236,0.2881601 -1.317627,1.5058855 -1.317627,1.5058855 z"
         id="path1827" />
      <path
         style="fill:#33733a;fill-opacity:1;stroke:#000000;stroke-width:0;stroke-linecap:butt;stroke-linejoin:miter;stroke-miterlimit:4;stroke-dasharray:none;stroke-opacity:1"
         d="m -12.045187,7.0679777 c 0,0 0.613962,-0.4802822 1.963588,-0.7936632 1.3496306,-0.3133712 1.7531853,-0.311165 1.7531853,-0.311165 0,0 -1.2281925,-0.050663 -1.7659963,0.077977 -0.456245,0.1092286 -2.032836,0.9458804 -2.032836,0.9458804 z"
         id="path1829"
         sodipodi:nodetypes="cscscc" />
      <path
         id="rect1833"
         style="fill:#aa2b2b;fill-opacity:1;stroke:#1b1f37;stroke-width:0;stroke-linejoin:bevel;stroke-miterlimit:4;stroke-dasharray:none;paint-order:markers stroke fill"
         d="m 25.329739,-4.1860557 h 8.527714 v 0.6103007 h -8.527714 z" />
      <path
         id="rect1835"
         style="fill:#aa2b2b;fill-opacity:1;stroke:#1b1f37;stroke-width:0;stroke-linejoin:bevel;stroke-miterlimit:4;stroke-dasharray:none;paint-order:markers stroke fill"
         d="m 25.329739,-9.4735765 h 8.527714 v 0.6103006 h -8.527714 z" />
      <path
         id="rect1424"
         style="fill:#cd3e32;fill-opacity:1;stroke:#1b1f37;stroke-width:0;stroke-linejoin:bevel;paint-order:markers stroke fill"
         d="M -0.05994877,-14.917977 H 1.1874347 v 4.9895339 h -1.24738347 z" />
      <path
         id="rect1426"
         style="fill:#e68119;fill-opacity:1;stroke:#1b1f37;stroke-width:0;stroke-linejoin:bevel;paint-order:markers stroke fill"
         d="M -0.05994877,-14.422915 H 1.1874347 v 0.443488 h -1.24738347 z" />
      <path
         id="rect1428"
         style="fill:#e68119;fill-opacity:1;stroke:#1b1f37;stroke-width:0;stroke-linejoin:bevel;paint-order:markers stroke fill"
         d="M -0.05994877,-13.804101 H 1.1874347 v 0.443489 h -1.24738347 z" />
      <path
         id="rect1432"
         style="fill:#86cd32;fill-opacity:1;stroke:#1b1f37;stroke-width:0;stroke-linejoin:bevel;paint-order:markers stroke fill"
         d="M 1.1874335,-14.917976 H 3.058508 v 4.9895355 H 1.1874335 Z" />
      <path
         id="path1434"
         style="fill:#238029;fill-opacity:1;stroke:#1b1f37;stroke-width:0;stroke-linejoin:bevel;paint-order:markers stroke fill"
         d="m 1.4993162,-11.53623 v 1.247302 h 1.2473085 v -1.247302 z m 0.1405233,0.140517 h 0.9662613 v 0.966261 H 1.6398395 Z" />
      <path
         id="rect1436"
         style="fill:#238029;fill-opacity:1;stroke:#1b1f37;stroke-width:0;stroke-linejoin:bevel;paint-order:markers stroke fill"
         d="m 1.4992794,-12.21694 h 1.2473828 v 0.443488 H 1.4992794 Z" />
      <path
         id="rect1440"
         style="fill:#cd6b32;fill-opacity:1;stroke:#1b1f37;stroke-width:0;stroke-linejoin:bevel;paint-order:markers stroke fill"
         d="m 3.0585142,-14.917978 h 1.8710739 v 4.989534 H 3.0585142 Z" />
      <path
         id="path1442"
         style="fill:#e08e28;fill-opacity:1;stroke:#1b1f37;stroke-width:0;stroke-linejoin:bevel;paint-order:markers stroke fill"
         d="m 3.3703981,-11.536234 v 1.247302 h 1.2473067 v -1.247302 z m 0.1405234,0.140518 h 0.9662606 v 0.96626 H 3.5109215 Z" />
      <path
         id="rect1444"
         style="fill:#e08e28;fill-opacity:1;stroke:#1b1f37;stroke-width:0;stroke-linejoin:bevel;paint-order:markers stroke fill"
         d="m 3.3703601,-12.216937 h 1.2473828 v 0.443488 H 3.3703601 Z" />
      <path
         id="path1448"
         style="fill:#ffe4ba;fill-opacity:1;stroke:#1b1f37;stroke-width:0;stroke-linejoin:bevel;paint-order:markers stroke fill"
         d="m 4.9295838,-14.917986 v 4.9895544 h 0.1856481 a 0.51826099,0.21014065 0 0 1 0.4380062,-0.097982 0.51826099,0.21014065 0 0 1 0.4380062,0.097982 H 6.1768924 V -14.917986 H 5.9915686 a 0.51826099,0.21014065 0 0 1 -0.4380062,0.09798 0.51826099,0.21014065 0 0 1 -0.4376881,-0.09798 z" />
      <path
         id="rect1450"
         style="fill:#7434bc;fill-opacity:1;stroke:#1b1f37;stroke-width:0;stroke-linejoin:bevel;paint-order:markers stroke fill"
         d="m 4.9295838,-14.917988 h 0.1871075 v 4.9895314 H 4.9295838 Z" />
      <path
         id="rect1452"
         style="fill:#7446aa;fill-opacity:1;stroke:#1b1f37;stroke-width:0;stroke-linejoin:bevel;paint-order:markers stroke fill"
         d="m 5.9898597,-14.917988 h 0.1871075 v 4.9895314 H 5.9898597 Z" />
      <path
         id="rect1472"
         style="fill:#116200;fill-opacity:1;stroke:#1b1f37;stroke-width:0;stroke-linejoin:bevel;paint-order:markers stroke fill"
         d="m -0.99548667,-13.670595 h 0.93553694 v 3.74215 h -0.93553694 z" />
      <path
         id="rect1474"
         style="fill:#25d300;fill-opacity:1;stroke:#1b1f37;stroke-width:0;stroke-linejoin:bevel;paint-order:markers stroke fill"
         d="m -0.99548667,-13.314093 h 0.93553756 v 0.124738 h -0.93553756 z" />
      <path
         id="rect1476"
         style="fill:#25d300;fill-opacity:1;stroke:#1b1f37;stroke-width:0;stroke-linejoin:bevel;paint-order:markers stroke fill"
         d="m -0.99548667,-13.05155 h 0.93553756 v 0.124738 h -0.93553756 z" />
      <path
         id="rect1478"
         style="fill:#25d300;fill-opacity:1;stroke:#1b1f37;stroke-width:0;stroke-linejoin:bevel;paint-order:markers stroke fill"
         d="m -0.99548667,-10.221923 h 0.93553756 v 0.124738 h -0.93553756 z" />
      <path
         id="rect1480"
         style="fill:#25d300;fill-opacity:1;stroke:#1b1f37;stroke-width:0;stroke-linejoin:bevel;paint-order:markers stroke fill"
         d="m -0.99548667,-10.499048 h 0.93553756 v 0.124738 h -0.93553756 z" />
      <path
         id="rect1484"
         style="fill:#203177;fill-opacity:1;stroke:#1b1f37;stroke-width:0;stroke-linejoin:bevel;paint-order:markers stroke fill"
         d="m -2.2428709,-14.917975 h 1.24738345 v 4.9895337 H -2.2428709 Z" />
      <path
         id="rect1486"
         style="fill:#115395;fill-opacity:1;stroke:#1b1f37;stroke-width:0;stroke-linejoin:bevel;paint-order:markers stroke fill"
         d="m -2.2428709,-14.422913 h 1.24738345 v 0.443488 H -2.2428709 Z" />
      <path
         id="rect1488"
         style="fill:#115395;fill-opacity:1;stroke:#1b1f37;stroke-width:0;stroke-linejoin:bevel;paint-order:markers stroke fill"
         d="m -2.2428709,-13.804099 h 1.24738345 v 0.443488 H -2.2428709 Z" />
    </g>
  </g>
</svg>
