<?xml version="1.0" encoding="UTF-8" standalone="no"?>
<svg
   xmlns:dc="http://purl.org/dc/elements/1.1/"
   xmlns:cc="http://creativecommons.org/ns#"
   xmlns:rdf="http://www.w3.org/1999/02/22-rdf-syntax-ns#"
   xmlns:svg="http://www.w3.org/2000/svg"
   xmlns="http://www.w3.org/2000/svg"
   xmlns:sodipodi="http://sodipodi.sourceforge.net/DTD/sodipodi-0.dtd"
   xmlns:inkscape="http://www.inkscape.org/namespaces/inkscape"
   width="1024"
   height="1024"
   viewBox="0 0 270.93333 270.93333"
   version="1.1"
   id="svg8"
   inkscape:version="1.0.1 (3bc2e813f5, 2020-09-07)"
   sodipodi:docname="Icon_Storage.svg">
  <defs
     id="defs2" />
  <sodipodi:namedview
     id="base"
     pagecolor="#ffffff"
     bordercolor="#666666"
     borderopacity="1.0"
     inkscape:pageopacity="0.0"
     inkscape:pageshadow="2"
     inkscape:zoom="0.7"
     inkscape:cx="665.50401"
     inkscape:cy="482.80205"
     inkscape:document-units="mm"
     inkscape:current-layer="layer1"
     inkscape:document-rotation="0"
     showgrid="false"
     units="px"
     inkscape:snap-bbox="true"
     inkscape:bbox-paths="true"
     inkscape:bbox-nodes="true"
     inkscape:snap-bbox-edge-midpoints="true"
     inkscape:snap-bbox-midpoints="true"
     inkscape:snap-intersection-paths="true"
     inkscape:object-paths="true"
     inkscape:snap-smooth-nodes="true"
     inkscape:snap-midpoints="true"
     inkscape:snap-object-midpoints="true"
     inkscape:snap-center="true"
     inkscape:snap-page="true"
     inkscape:window-width="1920"
     inkscape:window-height="1017"
     inkscape:window-x="1912"
     inkscape:window-y="-7"
     inkscape:window-maximized="1" />
  <metadata
     id="metadata5">
    <rdf:RDF>
      <cc:Work
         rdf:about="">
        <dc:format>image/svg+xml</dc:format>
        <dc:type
           rdf:resource="http://purl.org/dc/dcmitype/StillImage" />
        <dc:title></dc:title>
      </cc:Work>
    </rdf:RDF>
  </metadata>
  <g
     inkscape:label="Ebene 1"
     inkscape:groupmode="layer"
     id="layer1">
    <g
       id="g264"
       transform="matrix(5.0201684,0,0,5.0201684,110.79911,82.573733)">
      <rect
         style="fill:#3ba17c;fill-opacity:1;stroke:#1b1f37;stroke-width:0;stroke-linejoin:bevel;paint-order:markers stroke fill"
         id="rect1065"
         width="4.4232268"
         height="9.2472944"
         x="-2.9946048"
         y="21.642988"
         inkscape:export-filename="C:\Users\Kevin Mudczinski\OneDrive\Smart_Home\Images\Room_Icons_2\Icon_Storage.png"
         inkscape:export-xdpi="384.00003"
         inkscape:export-ydpi="384.00003" />
      <rect
         style="fill:#cccccc;fill-opacity:1;stroke:#1b1f37;stroke-width:0;stroke-linejoin:bevel;paint-order:markers stroke fill"
         id="rect1067"
         width="4.4232349"
         height="0.50370079"
         x="-2.9946048"
         y="30.890274"
         inkscape:export-filename="C:\Users\Kevin Mudczinski\OneDrive\Smart_Home\Images\Room_Icons_2\Icon_Storage.png"
         inkscape:export-xdpi="384.00003"
         inkscape:export-ydpi="384.00003" />
      <rect
         style="fill:#cccccc;fill-opacity:1;stroke:#1b1f37;stroke-width:0;stroke-linejoin:bevel;paint-order:markers stroke fill"
         id="rect1069"
         width="4.4232349"
         height="0.50370079"
         x="-2.9946048"
         y="21.139256"
         inkscape:export-filename="C:\Users\Kevin Mudczinski\OneDrive\Smart_Home\Images\Room_Icons_2\Icon_Storage.png"
         inkscape:export-xdpi="384.00003"
         inkscape:export-ydpi="384.00003" />
      <path
         id="rect885"
         style="fill:#6d462c;fill-opacity:1;stroke:#1b1f37;stroke-width:0;stroke-linejoin:bevel;paint-order:markers stroke fill"
         d="m -16.396238,-15.754245 v 53.274818 h 3.551656 v -0.799119 -1.775831 -0.887916 h 35.516547 v 0.887916 1.775831 0.799119 h 3.551654 V -15.754245 H 22.671965 V -4.1225707 H -12.844582 V -15.754245 Z m 3.551656,14.2954087 H 22.671965 V -0.57092041 1.2049114 13.636392 H -12.844582 V 1.2049114 -0.57092041 Z m 0,17.7582783 h 35.516547 v 0.887916 1.775818 12.430796 H -12.844582 V 18.963176 17.187358 Z"
         inkscape:export-filename="C:\Users\Kevin Mudczinski\OneDrive\Smart_Home\Images\Room_Icons_2\Icon_Storage.png"
         inkscape:export-xdpi="384.00003"
         inkscape:export-ydpi="384.00003" />
      <rect
         style="fill:#d76e28;fill-opacity:1;stroke:#1b1f37;stroke-width:0;stroke-linejoin:bevel;paint-order:markers stroke fill"
         id="rect905"
         width="4.4232273"
         height="6.5946298"
         x="-4.7727332"
         y="-11.220893"
         inkscape:export-filename="C:\Users\Kevin Mudczinski\OneDrive\Smart_Home\Images\Room_Icons_2\Icon_Storage.png"
         inkscape:export-xdpi="384.00003"
         inkscape:export-ydpi="384.00003" />
      <rect
         style="fill:#cccccc;fill-opacity:1;stroke:#1b1f37;stroke-width:0;stroke-linejoin:bevel;paint-order:markers stroke fill"
         id="rect907"
         width="4.4232349"
         height="0.50370079"
         x="-4.7727332"
         y="-4.6262765"
         inkscape:export-filename="C:\Users\Kevin Mudczinski\OneDrive\Smart_Home\Images\Room_Icons_2\Icon_Storage.png"
         inkscape:export-xdpi="384.00003"
         inkscape:export-ydpi="384.00003" />
      <rect
         style="fill:#cccccc;fill-opacity:1;stroke:#1b1f37;stroke-width:0;stroke-linejoin:bevel;paint-order:markers stroke fill"
         id="rect909"
         width="4.4232349"
         height="0.50370079"
         x="-4.7727332"
         y="-11.724595"
         inkscape:export-filename="C:\Users\Kevin Mudczinski\OneDrive\Smart_Home\Images\Room_Icons_2\Icon_Storage.png"
         inkscape:export-xdpi="384.00003"
         inkscape:export-ydpi="384.00003" />
      <rect
         style="fill:#b35c21;fill-opacity:1;stroke:#1b1f37;stroke-width:0;stroke-linejoin:bevel;paint-order:markers stroke fill"
         id="rect911"
         width="4.893775"
         height="2.3031201"
         x="-5.2804604"
         y="-10.287506"
         transform="matrix(0.90384769,-0.42785436,0,1,0,0)"
         inkscape:export-filename="C:\Users\Kevin Mudczinski\OneDrive\Smart_Home\Images\Room_Icons_2\Icon_Storage.png"
         inkscape:export-xdpi="384.00003"
         inkscape:export-ydpi="384.00003" />
      <rect
         style="fill:#c83737;fill-opacity:1;stroke:#1b1f37;stroke-width:0;stroke-linejoin:bevel;paint-order:markers stroke fill"
         id="rect913"
         width="4.4232273"
         height="6.5946298"
         x="16.331539"
         y="-11.220893"
         inkscape:export-filename="C:\Users\Kevin Mudczinski\OneDrive\Smart_Home\Images\Room_Icons_2\Icon_Storage.png"
         inkscape:export-xdpi="384.00003"
         inkscape:export-ydpi="384.00003" />
      <rect
         style="fill:#cccccc;fill-opacity:1;stroke:#1b1f37;stroke-width:0;stroke-linejoin:bevel;paint-order:markers stroke fill"
         id="rect915"
         width="4.4232349"
         height="0.50370079"
         x="16.331539"
         y="-4.6262765"
         inkscape:export-filename="C:\Users\Kevin Mudczinski\OneDrive\Smart_Home\Images\Room_Icons_2\Icon_Storage.png"
         inkscape:export-xdpi="384.00003"
         inkscape:export-ydpi="384.00003" />
      <rect
         style="fill:#cccccc;fill-opacity:1;stroke:#1b1f37;stroke-width:0;stroke-linejoin:bevel;paint-order:markers stroke fill"
         id="rect917"
         width="4.4232349"
         height="0.50370079"
         x="16.331539"
         y="-11.724595"
         inkscape:export-filename="C:\Users\Kevin Mudczinski\OneDrive\Smart_Home\Images\Room_Icons_2\Icon_Storage.png"
         inkscape:export-xdpi="384.00003"
         inkscape:export-ydpi="384.00003" />
      <rect
         style="fill:#a02c2c;fill-opacity:1;stroke:#1b1f37;stroke-width:0;stroke-linejoin:bevel;paint-order:markers stroke fill"
         id="rect919"
         width="4.893775"
         height="2.3031201"
         x="18.068914"
         y="-0.29734075"
         transform="matrix(0.90384769,-0.42785436,0,1,0,0)"
         inkscape:export-filename="C:\Users\Kevin Mudczinski\OneDrive\Smart_Home\Images\Room_Icons_2\Icon_Storage.png"
         inkscape:export-xdpi="384.00003"
         inkscape:export-ydpi="384.00003" />
      <rect
         style="fill:#e7ec78;fill-opacity:1;stroke:#1b1f37;stroke-width:0;stroke-linejoin:bevel;paint-order:markers stroke fill"
         id="rect961"
         width="4.9204593"
         height="9.1713667"
         x="-10.61667"
         y="22.222609"
         inkscape:export-filename="C:\Users\Kevin Mudczinski\OneDrive\Smart_Home\Images\Room_Icons_2\Icon_Storage.png"
         inkscape:export-xdpi="384.00003"
         inkscape:export-ydpi="384.00003" />
      <rect
         style="fill:#dee543;fill-opacity:1;stroke:#1b1f37;stroke-width:0;stroke-linejoin:bevel;paint-order:markers stroke fill"
         id="rect963"
         width="4.9204631"
         height="2.3262572"
         x="-10.61667"
         y="19.896341"
         inkscape:export-filename="C:\Users\Kevin Mudczinski\OneDrive\Smart_Home\Images\Room_Icons_2\Icon_Storage.png"
         inkscape:export-xdpi="384.00003"
         inkscape:export-ydpi="384.00003" />
      <rect
         style="fill:#e7ec78;fill-opacity:1;stroke:#1b1f37;stroke-width:0;stroke-linejoin:bevel;paint-order:markers stroke fill"
         id="rect965"
         width="4.9204631"
         height="0.82819337"
         x="-10.61667"
         y="19.068151"
         inkscape:export-filename="C:\Users\Kevin Mudczinski\OneDrive\Smart_Home\Images\Room_Icons_2\Icon_Storage.png"
         inkscape:export-xdpi="384.00003"
         inkscape:export-ydpi="384.00003" />
      <path
         id="path967"
         style="fill:#c8cc20;fill-opacity:1;stroke:#1b1f37;stroke-width:0;stroke-linejoin:bevel;paint-order:markers stroke fill"
         d="m -8.1760984,20.384545 a 1.3420289,0.67493846 0 0 0 -0.9066458,0.186601 h -0.4155147 v 0.48835 a 1.3420289,0.67493846 0 0 0 1.3415845,0.674951 1.3420289,0.67493846 0 0 0 1.3422731,-0.674951 1.3420289,0.67493846 0 0 0 0,-0.0094 v -0.478644 h -0.4162088 a 1.3420289,0.67493846 0 0 0 -0.9260643,-0.186601 1.3420289,0.67493846 0 0 0 -0.019424,0 z"
         inkscape:export-filename="C:\Users\Kevin Mudczinski\OneDrive\Smart_Home\Images\Room_Icons_2\Icon_Storage.png"
         inkscape:export-xdpi="384.00003"
         inkscape:export-ydpi="384.00003" />
      <ellipse
         style="fill:#b7be1b;fill-opacity:1;stroke:#1b1f37;stroke-width:0;stroke-linejoin:bevel;paint-order:markers stroke fill"
         id="ellipse969"
         cx="-8.156435"
         cy="20.57128"
         rx="1.342029"
         ry="0.6749385"
         inkscape:export-filename="C:\Users\Kevin Mudczinski\OneDrive\Smart_Home\Images\Room_Icons_2\Icon_Storage.png"
         inkscape:export-xdpi="384.00003"
         inkscape:export-ydpi="384.00003" />
      <rect
         style="fill:#dbe234;fill-opacity:1;stroke:#1b1f37;stroke-width:0;stroke-linejoin:bevel;paint-order:markers stroke fill"
         id="rect976"
         width="3.4845662"
         height="5.7448258"
         x="-9.8987083"
         y="23.935867"
         inkscape:export-filename="C:\Users\Kevin Mudczinski\OneDrive\Smart_Home\Images\Room_Icons_2\Icon_Storage.png"
         inkscape:export-xdpi="384.00003"
         inkscape:export-ydpi="384.00003" />
      <rect
         style="fill:#754789;fill-opacity:1;stroke:#1b1f37;stroke-width:0;stroke-linejoin:bevel;paint-order:markers stroke fill"
         id="rect978"
         width="4.9204593"
         height="9.1713667"
         x="9.4057865"
         y="4.4650245"
         inkscape:export-filename="C:\Users\Kevin Mudczinski\OneDrive\Smart_Home\Images\Room_Icons_2\Icon_Storage.png"
         inkscape:export-xdpi="384.00003"
         inkscape:export-ydpi="384.00003" />
      <rect
         style="fill:#915ba9;fill-opacity:1;stroke:#1b1f37;stroke-width:0;stroke-linejoin:bevel;paint-order:markers stroke fill"
         id="rect980"
         width="4.9204631"
         height="2.3262572"
         x="9.4057865"
         y="2.1387675"
         inkscape:export-filename="C:\Users\Kevin Mudczinski\OneDrive\Smart_Home\Images\Room_Icons_2\Icon_Storage.png"
         inkscape:export-xdpi="384.00003"
         inkscape:export-ydpi="384.00003" />
      <rect
         style="fill:#754789;fill-opacity:1;stroke:#1b1f37;stroke-width:0;stroke-linejoin:bevel;paint-order:markers stroke fill"
         id="rect982"
         width="4.9204631"
         height="0.82819337"
         x="9.4057865"
         y="1.3105677"
         inkscape:export-filename="C:\Users\Kevin Mudczinski\OneDrive\Smart_Home\Images\Room_Icons_2\Icon_Storage.png"
         inkscape:export-xdpi="384.00003"
         inkscape:export-ydpi="384.00003" />
      <path
         id="path984"
         style="fill:#754789;fill-opacity:1;stroke:#1b1f37;stroke-width:0;stroke-linejoin:bevel;paint-order:markers stroke fill"
         d="m 11.846355,2.6269649 a 1.3420289,0.67493846 0 0 0 -0.906646,0.1866012 h -0.415515 v 0.4883497 a 1.3420289,0.67493846 0 0 0 1.341585,0.6749509 1.3420289,0.67493846 0 0 0 1.342273,-0.6749509 1.3420289,0.67493846 0 0 0 0,-0.0094 v -0.478641 h -0.416208 a 1.3420289,0.67493846 0 0 0 -0.926065,-0.1866011 1.3420289,0.67493846 0 0 0 -0.01942,0 z"
         inkscape:export-filename="C:\Users\Kevin Mudczinski\OneDrive\Smart_Home\Images\Room_Icons_2\Icon_Storage.png"
         inkscape:export-xdpi="384.00003"
         inkscape:export-ydpi="384.00003" />
      <ellipse
         style="fill:#683f7a;fill-opacity:1;stroke:#1b1f37;stroke-width:0;stroke-linejoin:bevel;paint-order:markers stroke fill"
         id="ellipse986"
         cx="11.866021"
         cy="2.8137047"
         rx="1.342029"
         ry="0.6749385"
         inkscape:export-filename="C:\Users\Kevin Mudczinski\OneDrive\Smart_Home\Images\Room_Icons_2\Icon_Storage.png"
         inkscape:export-xdpi="384.00003"
         inkscape:export-ydpi="384.00003" />
      <path
         id="rect988"
         style="fill:#5f3a70;fill-opacity:1;stroke:#1b1f37;stroke-width:0;stroke-linejoin:bevel;paint-order:markers stroke fill"
         d="M 14.326268,5.6659822 9.4059766,8.0675138 v 2.1837072 0.217824 2.183708 L 14.326268,10.251221 V 8.0675138 7.8496894 Z"
         inkscape:export-filename="C:\Users\Kevin Mudczinski\OneDrive\Smart_Home\Images\Room_Icons_2\Icon_Storage.png"
         inkscape:export-xdpi="384.00003"
         inkscape:export-ydpi="384.00003" />
      <rect
         style="fill:#2a682f;fill-opacity:1;stroke:#1b1f37;stroke-width:0;stroke-linejoin:bevel;paint-order:markers stroke fill"
         id="rect1001"
         width="4.4232273"
         height="6.5946298"
         x="3.7512362"
         y="6.5380735"
         inkscape:export-filename="C:\Users\Kevin Mudczinski\OneDrive\Smart_Home\Images\Room_Icons_2\Icon_Storage.png"
         inkscape:export-xdpi="384.00003"
         inkscape:export-ydpi="384.00003" />
      <rect
         style="fill:#cccccc;fill-opacity:1;stroke:#1b1f37;stroke-width:0;stroke-linejoin:bevel;paint-order:markers stroke fill"
         id="rect1003"
         width="4.4232349"
         height="0.50370079"
         x="3.7512362"
         y="13.13269"
         inkscape:export-filename="C:\Users\Kevin Mudczinski\OneDrive\Smart_Home\Images\Room_Icons_2\Icon_Storage.png"
         inkscape:export-xdpi="384.00003"
         inkscape:export-ydpi="384.00003" />
      <rect
         style="fill:#cccccc;fill-opacity:1;stroke:#1b1f37;stroke-width:0;stroke-linejoin:bevel;paint-order:markers stroke fill"
         id="rect1005"
         width="4.4232349"
         height="0.50370079"
         x="3.7512362"
         y="6.0343618"
         inkscape:export-filename="C:\Users\Kevin Mudczinski\OneDrive\Smart_Home\Images\Room_Icons_2\Icon_Storage.png"
         inkscape:export-xdpi="384.00003"
         inkscape:export-ydpi="384.00003" />
      <rect
         style="fill:#36873d;fill-opacity:1;stroke:#1b1f37;stroke-width:0;stroke-linejoin:bevel;paint-order:markers stroke fill"
         id="rect1007"
         width="4.893775"
         height="2.3031201"
         x="4.1502957"
         y="11.50646"
         transform="matrix(0.90384769,-0.42785436,0,1,0,0)"
         inkscape:export-filename="C:\Users\Kevin Mudczinski\OneDrive\Smart_Home\Images\Room_Icons_2\Icon_Storage.png"
         inkscape:export-xdpi="384.00003"
         inkscape:export-ydpi="384.00003" />
      <rect
         style="fill:#88aa00;fill-opacity:1;stroke:#1b1f37;stroke-width:0;stroke-linejoin:bevel;paint-order:markers stroke fill"
         id="rect1039"
         width="7.1033082"
         height="5.3274808"
         x="4.9135299"
         y="-10.515549"
         inkscape:export-filename="C:\Users\Kevin Mudczinski\OneDrive\Smart_Home\Images\Room_Icons_2\Icon_Storage.png"
         inkscape:export-xdpi="384.00003"
         inkscape:export-ydpi="384.00003" />
      <rect
         style="fill:#57aeba;fill-opacity:1;stroke:#1b1f37;stroke-width:0;stroke-linejoin:bevel;paint-order:markers stroke fill"
         id="rect1041"
         width="5.3274803"
         height="3.5516527"
         x="5.8016009"
         y="-13.356866"
         inkscape:export-filename="C:\Users\Kevin Mudczinski\OneDrive\Smart_Home\Images\Room_Icons_2\Icon_Storage.png"
         inkscape:export-xdpi="384.00003"
         inkscape:export-ydpi="384.00003" />
      <path
         id="path1043"
         style="fill:#c0c0c0;fill-opacity:1;stroke:#1b1f37;stroke-width:0;stroke-linejoin:bevel;paint-order:markers stroke fill"
         d="m 4.8949634,-11.580992 a 1.0654956,1.0654957 0 0 0 -1.0467692,1.065496 1.0654956,1.0654957 0 0 0 0,0.01799 v 5.3094409 a 1.0654956,1.0654957 0 0 0 1.0654965,1.0654964 h 7.1033153 a 1.0654956,1.0654957 0 0 0 1.065496,-1.0654964 1.0654956,1.0654957 0 0 0 0,-0.018793 v -5.3087559 a 1.0654956,1.0654957 0 0 0 -1.065496,-1.065497 H 4.9136907 a 1.0654956,1.0654957 0 0 0 -0.018726,0 z"
         inkscape:export-filename="C:\Users\Kevin Mudczinski\OneDrive\Smart_Home\Images\Room_Icons_2\Icon_Storage.png"
         inkscape:export-xdpi="384.00003"
         inkscape:export-ydpi="384.00003" />
      <path
         id="path1304"
         style="fill:#643800;fill-opacity:1;stroke:#1b1f37;stroke-width:0;stroke-linejoin:bevel;paint-order:markers stroke fill"
         d="m 5.2348806,-11.22567 a 0.96400566,0.96400571 0 0 0 -0.9470629,0.964001 0.96400566,0.96400571 0 0 0 0,0.01624 v 4.803708 a 0.96400566,0.96400571 0 0 0 0.9640062,0.9640007 h 6.4267151 a 0.96400566,0.96400571 0 0 0 0.964007,-0.9640007 0.96400566,0.96400571 0 0 0 0,-0.017048 v -4.80309 A 0.96400566,0.96400571 0 0 0 11.678539,-11.22586 H 5.2518239 a 0.96400566,0.96400571 0 0 0 -0.016941,0 z"
         inkscape:export-filename="C:\Users\Kevin Mudczinski\OneDrive\Smart_Home\Images\Room_Icons_2\Icon_Storage.png"
         inkscape:export-xdpi="384.00003"
         inkscape:export-ydpi="384.00003" />
      <rect
         style="fill:#2c98a8;fill-opacity:1;stroke:#1b1f37;stroke-width:0;stroke-linejoin:bevel;paint-order:markers stroke fill"
         id="rect1045"
         width="9.2343025"
         height="3.5516534"
         x="3.8481913"
         y="-9.6275911"
         inkscape:export-filename="C:\Users\Kevin Mudczinski\OneDrive\Smart_Home\Images\Room_Icons_2\Icon_Storage.png"
         inkscape:export-xdpi="384.00003"
         inkscape:export-ydpi="384.00003" />
      <rect
         style="fill:#88aa00;fill-opacity:1;stroke:#1b1f37;stroke-width:0;stroke-linejoin:bevel;paint-order:markers stroke fill"
         id="rect1047"
         width="7.1033082"
         height="5.3274808"
         x="-10.485365"
         y="7.2434177"
         inkscape:export-filename="C:\Users\Kevin Mudczinski\OneDrive\Smart_Home\Images\Room_Icons_2\Icon_Storage.png"
         inkscape:export-xdpi="384.00003"
         inkscape:export-ydpi="384.00003" />
      <rect
         style="fill:#d63030;fill-opacity:1;stroke:#1b1f37;stroke-width:0;stroke-linejoin:bevel;paint-order:markers stroke fill"
         id="rect1049"
         width="5.3274803"
         height="3.5516527"
         x="-9.5972948"
         y="4.4021115"
         inkscape:export-filename="C:\Users\Kevin Mudczinski\OneDrive\Smart_Home\Images\Room_Icons_2\Icon_Storage.png"
         inkscape:export-xdpi="384.00003"
         inkscape:export-ydpi="384.00003" />
      <path
         id="path1051"
         style="fill:#808080;fill-opacity:1;stroke:#1b1f37;stroke-width:0;stroke-linejoin:bevel;paint-order:markers stroke fill"
         d="m -10.503931,6.1779709 a 1.0654956,1.0654957 0 0 0 -1.046769,1.0654964 1.0654956,1.0654957 0 0 0 0,0.017988 v 5.3094407 a 1.0654956,1.0654957 0 0 0 1.065497,1.065496 h 7.103315 a 1.0654956,1.0654957 0 0 0 1.0654965,-1.065496 1.0654956,1.0654957 0 0 0 0,-0.01879 V 7.2433465 A 1.0654956,1.0654957 0 0 0 -3.381888,6.17785 h -7.103315 a 1.0654956,1.0654957 0 0 0 -0.01873,0 z"
         inkscape:export-filename="C:\Users\Kevin Mudczinski\OneDrive\Smart_Home\Images\Room_Icons_2\Icon_Storage.png"
         inkscape:export-xdpi="384.00003"
         inkscape:export-ydpi="384.00003" />
      <path
         id="path1306"
         style="fill:#640000;fill-opacity:1;stroke:#1b1f37;stroke-width:0;stroke-linejoin:bevel;paint-order:markers stroke fill"
         d="m -10.163856,6.5333466 a 0.96400566,0.96400571 0 0 0 -0.947063,0.9640008 0.96400566,0.96400571 0 0 0 0,0.016243 v 4.8037066 a 0.96400566,0.96400571 0 0 0 0.964006,0.964001 h 6.426716 a 0.96400566,0.96400571 0 0 0 0.9640075,-0.964001 0.96400566,0.96400571 0 0 0 0,-0.01705 V 7.4971595 A 0.96400566,0.96400571 0 0 0 -3.720197,6.5331587 h -6.426716 a 0.96400566,0.96400571 0 0 0 -0.01694,0 z"
         inkscape:export-filename="C:\Users\Kevin Mudczinski\OneDrive\Smart_Home\Images\Room_Icons_2\Icon_Storage.png"
         inkscape:export-xdpi="384.00003"
         inkscape:export-ydpi="384.00003" />
      <rect
         style="fill:#dc4e4e;fill-opacity:1;stroke:#1b1f37;stroke-width:0;stroke-linejoin:bevel;paint-order:markers stroke fill"
         id="rect1053"
         width="9.2343025"
         height="3.5516534"
         x="-11.550704"
         y="8.1313858"
         inkscape:export-filename="C:\Users\Kevin Mudczinski\OneDrive\Smart_Home\Images\Room_Icons_2\Icon_Storage.png"
         inkscape:export-xdpi="384.00003"
         inkscape:export-ydpi="384.00003" />
      <rect
         style="fill:#279e79;fill-opacity:1;stroke:#1b1f37;stroke-width:0;stroke-linejoin:bevel;paint-order:markers stroke fill"
         id="rect1055"
         width="4.4232273"
         height="6.5946298"
         x="16.448402"
         y="6.5380735"
         inkscape:export-filename="C:\Users\Kevin Mudczinski\OneDrive\Smart_Home\Images\Room_Icons_2\Icon_Storage.png"
         inkscape:export-xdpi="384.00003"
         inkscape:export-ydpi="384.00003" />
      <rect
         style="fill:#cccccc;fill-opacity:1;stroke:#1b1f37;stroke-width:0;stroke-linejoin:bevel;paint-order:markers stroke fill"
         id="rect1057"
         width="4.4232349"
         height="0.50370079"
         x="16.448402"
         y="13.13269"
         inkscape:export-filename="C:\Users\Kevin Mudczinski\OneDrive\Smart_Home\Images\Room_Icons_2\Icon_Storage.png"
         inkscape:export-xdpi="384.00003"
         inkscape:export-ydpi="384.00003" />
      <rect
         style="fill:#cccccc;fill-opacity:1;stroke:#1b1f37;stroke-width:0;stroke-linejoin:bevel;paint-order:markers stroke fill"
         id="rect1059"
         width="4.4232349"
         height="0.50370079"
         x="16.448402"
         y="6.0343618"
         inkscape:export-filename="C:\Users\Kevin Mudczinski\OneDrive\Smart_Home\Images\Room_Icons_2\Icon_Storage.png"
         inkscape:export-xdpi="384.00003"
         inkscape:export-ydpi="384.00003" />
      <rect
         style="fill:#208263;fill-opacity:1;stroke:#1b1f37;stroke-width:0;stroke-linejoin:bevel;paint-order:markers stroke fill"
         id="rect1061"
         width="4.893775"
         height="2.3031201"
         x="18.198202"
         y="17.51692"
         transform="matrix(0.90384769,-0.42785436,0,1,0,0)"
         inkscape:export-filename="C:\Users\Kevin Mudczinski\OneDrive\Smart_Home\Images\Room_Icons_2\Icon_Storage.png"
         inkscape:export-xdpi="384.00003"
         inkscape:export-ydpi="384.00003" />
      <rect
         style="fill:#66c7a4;fill-opacity:1;stroke:#1b1f37;stroke-width:0;stroke-linejoin:bevel;paint-order:markers stroke fill"
         id="rect1079"
         width="4.4232268"
         height="3.8624244"
         x="-2.9946048"
         y="24.335405"
         inkscape:export-filename="C:\Users\Kevin Mudczinski\OneDrive\Smart_Home\Images\Room_Icons_2\Icon_Storage.png"
         inkscape:export-xdpi="384.00003"
         inkscape:export-ydpi="384.00003" />
      <rect
         style="fill:#a0bd31;fill-opacity:1;stroke:#1b1f37;stroke-width:0;stroke-linejoin:bevel;paint-order:markers stroke fill"
         id="rect1081"
         width="4.9204593"
         height="9.1713667"
         x="-11.360348"
         y="-13.293932"
         inkscape:export-filename="C:\Users\Kevin Mudczinski\OneDrive\Smart_Home\Images\Room_Icons_2\Icon_Storage.png"
         inkscape:export-xdpi="384.00003"
         inkscape:export-ydpi="384.00003" />
      <rect
         style="fill:#bfdb51;fill-opacity:1;stroke:#1b1f37;stroke-width:0;stroke-linejoin:bevel;paint-order:markers stroke fill"
         id="rect1083"
         width="4.9204631"
         height="2.3262572"
         x="-11.360348"
         y="-15.62021"
         inkscape:export-filename="C:\Users\Kevin Mudczinski\OneDrive\Smart_Home\Images\Room_Icons_2\Icon_Storage.png"
         inkscape:export-xdpi="384.00003"
         inkscape:export-ydpi="384.00003" />
      <rect
         style="fill:#99b334;fill-opacity:1;stroke:#1b1f37;stroke-width:0;stroke-linejoin:bevel;paint-order:markers stroke fill"
         id="rect1085"
         width="4.9204631"
         height="0.82819337"
         x="-11.360348"
         y="-16.448399"
         inkscape:export-filename="C:\Users\Kevin Mudczinski\OneDrive\Smart_Home\Images\Room_Icons_2\Icon_Storage.png"
         inkscape:export-xdpi="384.00003"
         inkscape:export-ydpi="384.00003" />
      <path
         id="path1087"
         style="fill:#728426;fill-opacity:1;stroke:#1b1f37;stroke-width:0;stroke-linejoin:bevel;paint-order:markers stroke fill"
         d="m -8.9199001,-15.132038 a 1.3420289,0.67493846 0 0 0 -0.9066458,0.186601 h -0.4155151 v 0.488363 a 1.3420289,0.67493846 0 0 0 1.3415848,0.674951 1.3420289,0.67493846 0 0 0 1.3422731,-0.674951 1.3420289,0.67493846 0 0 0 0,-0.0094 v -0.478658 h -0.4162074 a 1.3420289,0.67493846 0 0 0 -0.9260657,-0.186601 1.3420289,0.67493846 0 0 0 -0.019424,0 z"
         inkscape:export-filename="C:\Users\Kevin Mudczinski\OneDrive\Smart_Home\Images\Room_Icons_2\Icon_Storage.png"
         inkscape:export-xdpi="384.00003"
         inkscape:export-ydpi="384.00003" />
      <ellipse
         style="fill:#607511;fill-opacity:1;stroke:#1b1f37;stroke-width:0;stroke-linejoin:bevel;paint-order:markers stroke fill"
         id="ellipse1089"
         cx="-8.9001131"
         cy="-14.945272"
         rx="1.342029"
         ry="0.6749385"
         inkscape:export-filename="C:\Users\Kevin Mudczinski\OneDrive\Smart_Home\Images\Room_Icons_2\Icon_Storage.png"
         inkscape:export-xdpi="384.00003"
         inkscape:export-ydpi="384.00003" />
      <path
         id="path1091"
         style="fill:#b4d723;fill-opacity:1;stroke:#1b1f37;stroke-width:0;stroke-linejoin:bevel;paint-order:markers stroke fill"
         d="m -6.439862,-12.092981 -4.920293,2.401532 v 2.1837072 0.2178244 2.1837073 l 4.920293,-2.4015317 V -9.691449 -9.90926 Z"
         inkscape:export-filename="C:\Users\Kevin Mudczinski\OneDrive\Smart_Home\Images\Room_Icons_2\Icon_Storage.png"
         inkscape:export-xdpi="384.00003"
         inkscape:export-ydpi="384.00003" />
      <path
         id="rect1093"
         style="fill:#9edc9a;fill-opacity:1;stroke:#1b1f37;stroke-width:0;stroke-linejoin:bevel;paint-order:markers stroke fill"
         d="m 3.8853051,17.547392 v 4.671955 H 3.6737334 a 0.71033034,0.71033034 0 0 0 -0.7103314,0.710335 0.71033034,0.71033034 0 0 0 0,0.01732 v 7.736638 a 0.71033034,0.71033034 0 0 0 0.7103314,0.710335 h 2.4799145 a 0.71033034,0.71033034 0 0 0 0.7103314,-0.710335 0.71033034,0.71033034 0 0 0 0,-0.01799 V 22.929696 A 0.71033034,0.71033034 0 0 0 6.1536479,22.21936 H 5.9413796 v -4.671955 z"
         inkscape:export-filename="C:\Users\Kevin Mudczinski\OneDrive\Smart_Home\Images\Room_Icons_2\Icon_Storage.png"
         inkscape:export-xdpi="384.00003"
         inkscape:export-ydpi="384.00003" />
      <path
         id="path1113"
         style="fill:#63c65d;fill-opacity:1;stroke:#1b1f37;stroke-width:0;stroke-linejoin:bevel;paint-order:markers stroke fill"
         d="M 3.8853051,17.192231 A 0.35516473,0.35516477 0 0 0 3.53014,17.547392 0.35516473,0.35516477 0 0 0 3.8853051,17.902566 h 2.0560745 a 0.35516473,0.35516477 0 0 0 0.355165,-0.355174 0.35516473,0.35516477 0 0 0 -0.355165,-0.355161 z"
         inkscape:export-filename="C:\Users\Kevin Mudczinski\OneDrive\Smart_Home\Images\Room_Icons_2\Icon_Storage.png"
         inkscape:export-xdpi="384.00003"
         inkscape:export-ydpi="384.00003" />
      <rect
         style="fill:#63c65d;fill-opacity:1;stroke:#1b1f37;stroke-width:0;stroke-linejoin:bevel;paint-order:markers stroke fill"
         id="rect1134"
         width="2.8646243"
         height="7.0234289"
         x="3.4813759"
         y="23.460688"
         inkscape:export-filename="C:\Users\Kevin Mudczinski\OneDrive\Smart_Home\Images\Room_Icons_2\Icon_Storage.png"
         inkscape:export-xdpi="384.00003"
         inkscape:export-ydpi="384.00003" />
      <path
         id="path1136"
         style="fill:#a2e2e4;fill-opacity:1;stroke:#1b1f37;stroke-width:0;stroke-linejoin:bevel;paint-order:markers stroke fill"
         d="M 10.023002,17.547405 V 22.21936 H 9.8114331 a 0.71033034,0.71033034 0 0 0 -0.7103354,0.710322 0.71033034,0.71033034 0 0 0 0,0.01732 v 7.736651 a 0.71033034,0.71033034 0 0 0 0.7103354,0.710322 h 2.4799119 a 0.71033034,0.71033034 0 0 0 0.710322,-0.710322 0.71033034,0.71033034 0 0 0 0,-0.01799 v -7.735954 a 0.71033034,0.71033034 0 0 0 -0.710322,-0.710322 h -0.212267 v -4.671955 z"
         inkscape:export-filename="C:\Users\Kevin Mudczinski\OneDrive\Smart_Home\Images\Room_Icons_2\Icon_Storage.png"
         inkscape:export-xdpi="384.00003"
         inkscape:export-ydpi="384.00003" />
      <path
         id="path1138"
         style="fill:#77d6d8;fill-opacity:1;stroke:#1b1f37;stroke-width:0;stroke-linejoin:bevel;paint-order:markers stroke fill"
         d="m 10.023002,17.192244 a 0.35516473,0.35516477 0 0 0 -0.3551744,0.355161 0.35516473,0.35516477 0 0 0 0.3551744,0.355161 h 2.056076 a 0.35516473,0.35516477 0 0 0 0.355161,-0.355161 0.35516473,0.35516477 0 0 0 -0.355161,-0.355161 z"
         inkscape:export-filename="C:\Users\Kevin Mudczinski\OneDrive\Smart_Home\Images\Room_Icons_2\Icon_Storage.png"
         inkscape:export-xdpi="384.00003"
         inkscape:export-ydpi="384.00003" />
      <rect
         style="fill:#77d6d8;fill-opacity:1;stroke:#1b1f37;stroke-width:0;stroke-linejoin:bevel;paint-order:markers stroke fill"
         id="rect1140"
         width="4.1745481"
         height="2.6282568"
         x="9.7401295"
         y="29.697279"
         transform="matrix(0.9343841,-0.35626726,0,1,0,0)"
         inkscape:export-filename="C:\Users\Kevin Mudczinski\OneDrive\Smart_Home\Images\Room_Icons_2\Icon_Storage.png"
         inkscape:export-xdpi="384.00003"
         inkscape:export-ydpi="384.00003" />
      <path
         id="path1142"
         style="fill:#e2d780;fill-opacity:1;stroke:#1b1f37;stroke-width:0;stroke-linejoin:bevel;paint-order:markers stroke fill"
         d="M -0.45622741,-0.2101752 V 4.46178 h -0.211569 a 0.71033034,0.71033034 0 0 0 -0.71033539,0.710322 0.71033034,0.71033034 0 0 0 0,0.017316 v 7.736652 a 0.71033034,0.71033034 0 0 0 0.71033539,0.710322 H 1.8121155 a 0.71033034,0.71033034 0 0 0 0.710322,-0.710322 0.71033034,0.71033034 0 0 0 0,-0.01799 V 5.1721288 a 0.71033034,0.71033034 0 0 0 -0.710322,-0.710322 h -0.212267 v -4.67195516 z"
         inkscape:export-filename="C:\Users\Kevin Mudczinski\OneDrive\Smart_Home\Images\Room_Icons_2\Icon_Storage.png"
         inkscape:export-xdpi="384.00003"
         inkscape:export-ydpi="384.00003" />
      <path
         id="path1144"
         style="fill:#d5c345;fill-opacity:1;stroke:#1b1f37;stroke-width:0;stroke-linejoin:bevel;paint-order:markers stroke fill"
         d="m -0.45622741,-0.5653362 a 0.35516473,0.35516477 0 0 0 -0.35517443,0.355161 0.35516473,0.35516477 0 0 0 0.35517443,0.355161 H 1.5998485 a 0.35516473,0.35516477 0 0 0 0.355161,-0.355161 0.35516473,0.35516477 0 0 0 -0.355161,-0.355161 z"
         inkscape:export-filename="C:\Users\Kevin Mudczinski\OneDrive\Smart_Home\Images\Room_Icons_2\Icon_Storage.png"
         inkscape:export-xdpi="384.00003"
         inkscape:export-ydpi="384.00003" />
      <rect
         style="fill:#d5c345;fill-opacity:1;stroke:#1b1f37;stroke-width:0;stroke-linejoin:bevel;paint-order:markers stroke fill"
         id="rect1146"
         width="4.1745481"
         height="2.6282568"
         x="-1.4749869"
         y="7.9441242"
         transform="matrix(0.9343841,-0.35626726,0,1,0,0)"
         inkscape:export-filename="C:\Users\Kevin Mudczinski\OneDrive\Smart_Home\Images\Room_Icons_2\Icon_Storage.png"
         inkscape:export-xdpi="384.00003"
         inkscape:export-ydpi="384.00003" />
      <rect
         style="fill:#d07030;fill-opacity:1;stroke:#1b1f37;stroke-width:0;stroke-linejoin:bevel;paint-order:markers stroke fill"
         id="rect1148"
         width="4.4232273"
         height="6.5946298"
         x="15.569411"
         y="24.295647"
         inkscape:export-filename="C:\Users\Kevin Mudczinski\OneDrive\Smart_Home\Images\Room_Icons_2\Icon_Storage.png"
         inkscape:export-xdpi="384.00003"
         inkscape:export-ydpi="384.00003" />
      <rect
         style="fill:#cccccc;fill-opacity:1;stroke:#1b1f37;stroke-width:0;stroke-linejoin:bevel;paint-order:markers stroke fill"
         id="rect1150"
         width="4.4232349"
         height="0.50370079"
         x="15.569411"
         y="30.890274"
         inkscape:export-filename="C:\Users\Kevin Mudczinski\OneDrive\Smart_Home\Images\Room_Icons_2\Icon_Storage.png"
         inkscape:export-xdpi="384.00003"
         inkscape:export-ydpi="384.00003" />
      <rect
         style="fill:#cccccc;fill-opacity:1;stroke:#1b1f37;stroke-width:0;stroke-linejoin:bevel;paint-order:markers stroke fill"
         id="rect1152"
         width="4.4232349"
         height="0.50370079"
         x="15.569411"
         y="23.791956"
         inkscape:export-filename="C:\Users\Kevin Mudczinski\OneDrive\Smart_Home\Images\Room_Icons_2\Icon_Storage.png"
         inkscape:export-xdpi="384.00003"
         inkscape:export-ydpi="384.00003" />
      <rect
         style="fill:#de8952;fill-opacity:1;stroke:#1b1f37;stroke-width:0;stroke-linejoin:bevel;paint-order:markers stroke fill"
         id="rect1154"
         width="4.893775"
         height="2.3031201"
         x="17.225706"
         y="34.858418"
         transform="matrix(0.90384769,-0.42785436,0,1,0,0)"
         inkscape:export-filename="C:\Users\Kevin Mudczinski\OneDrive\Smart_Home\Images\Room_Icons_2\Icon_Storage.png"
         inkscape:export-xdpi="384.00003"
         inkscape:export-ydpi="384.00003" />
    </g>
  </g>
</svg>
