<?xml version="1.0" encoding="UTF-8" standalone="no"?>
<svg
   xmlns:dc="http://purl.org/dc/elements/1.1/"
   xmlns:cc="http://creativecommons.org/ns#"
   xmlns:rdf="http://www.w3.org/1999/02/22-rdf-syntax-ns#"
   xmlns:svg="http://www.w3.org/2000/svg"
   xmlns="http://www.w3.org/2000/svg"
   xmlns:sodipodi="http://sodipodi.sourceforge.net/DTD/sodipodi-0.dtd"
   xmlns:inkscape="http://www.inkscape.org/namespaces/inkscape"
   width="1024"
   height="1024"
   viewBox="0 0 270.93333 270.93333"
   version="1.1"
   id="svg8"
   inkscape:version="1.0.1 (3bc2e813f5, 2020-09-07)"
   sodipodi:docname="Icon_Garage.svg">
  <defs
     id="defs2">
    <inkscape:path-effect
       effect="fillet_chamfer"
       id="path-effect1343"
       is_visible="true"
       lpeversion="1"
       satellites_param="F,0,0,1,0,0,0,1 @ F,0,0,1,0,0,0,1 @ F,0,0,1,0,0,0,1 @ F,0,0,1,0,0,0,1"
       unit="px"
       method="auto"
       mode="F"
       radius="0"
       chamfer_steps="1"
       flexible="false"
       use_knot_distance="true"
       apply_no_radius="true"
       apply_with_radius="true"
       only_selected="false"
       hide_knots="false" />
    <inkscape:path-effect
       effect="fillet_chamfer"
       id="path-effect1347"
       is_visible="true"
       lpeversion="1"
       satellites_param="F,0,0,1,0,0,0,1 @ F,0,0,1,0,0,0,1 @ F,0,0,1,0,0,0,1 @ F,0,0,1,0,0,0,1"
       unit="px"
       method="auto"
       mode="F"
       radius="0"
       chamfer_steps="1"
       flexible="false"
       use_knot_distance="true"
       apply_no_radius="true"
       apply_with_radius="true"
       only_selected="false"
       hide_knots="false" />
    <inkscape:path-effect
       effect="fillet_chamfer"
       id="path-effect1351"
       is_visible="true"
       lpeversion="1"
       satellites_param="F,0,0,1,0,0,0,1 @ F,0,0,1,0,0,0,1 @ F,0,0,1,0,0,0,1 @ F,0,0,1,0,0,0,1 @ F,0,0,1,0,0,0,1"
       unit="px"
       method="auto"
       mode="F"
       radius="0"
       chamfer_steps="1"
       flexible="false"
       use_knot_distance="true"
       apply_no_radius="true"
       apply_with_radius="true"
       only_selected="false"
       hide_knots="false" />
  </defs>
  <sodipodi:namedview
     id="base"
     pagecolor="#ffffff"
     bordercolor="#666666"
     borderopacity="1.0"
     inkscape:pageopacity="0.0"
     inkscape:pageshadow="2"
     inkscape:zoom="0.7"
     inkscape:cx="298.33544"
     inkscape:cy="504.23835"
     inkscape:document-units="mm"
     inkscape:current-layer="layer1"
     inkscape:document-rotation="0"
     showgrid="false"
     units="px"
     inkscape:snap-bbox="true"
     inkscape:bbox-paths="true"
     inkscape:bbox-nodes="true"
     inkscape:snap-bbox-edge-midpoints="true"
     inkscape:snap-bbox-midpoints="true"
     inkscape:object-paths="true"
     inkscape:snap-intersection-paths="true"
     inkscape:snap-smooth-nodes="true"
     inkscape:snap-midpoints="true"
     inkscape:snap-object-midpoints="true"
     inkscape:snap-center="true"
     inkscape:snap-text-baseline="true"
     inkscape:snap-page="true"
     inkscape:window-width="1920"
     inkscape:window-height="1017"
     inkscape:window-x="1912"
     inkscape:window-y="-7"
     inkscape:window-maximized="1" />
  <metadata
     id="metadata5">
    <rdf:RDF>
      <cc:Work
         rdf:about="">
        <dc:format>image/svg+xml</dc:format>
        <dc:type
           rdf:resource="http://purl.org/dc/dcmitype/StillImage" />
        <dc:title></dc:title>
      </cc:Work>
    </rdf:RDF>
  </metadata>
  <g
     inkscape:label="Ebene 1"
     inkscape:groupmode="layer"
     id="layer1">
    <g
       id="g1726"
       transform="matrix(5.0907251,0,0,5.0907251,-103.02096,-478.33806)"
       inkscape:export-filename="C:\Users\Kevin Mudczinski\OneDrive\Smart_Home\Images\Room_Icons_2\Icon_Garage.png"
       inkscape:export-xdpi="384"
       inkscape:export-ydpi="384">
      <path
         id="path1331"
         style="fill:#c83737;fill-opacity:1;stroke:#1b1f37;stroke-width:0;stroke-linejoin:bevel;paint-order:markers stroke fill"
         d="m 41.548711,109.06963 a 1.7528645,1.769401 0 0 0 -1.37769,0.68988 l -0.002,0.002 a 1.7528645,1.769401 0 0 0 -0.003,0.004 1.7528645,1.769401 0 0 0 -0.0827,0.11885 l -4.32377,6.19962 -14.65182,3.3998 a 1.3229161,1.3229161 0 0 0 -0.87074,1.24333 v 5.98671 a 1.3229161,1.3229161 0 0 0 1.32291,1.32292 h 3.38688 44.91302 2.27531 a 1.3229161,1.3229161 0 0 0 1.32085,-1.2516 h 0.002 v -0.0713 -1.2516 -6.17223 -2.57452 a 1.3229161,1.3229161 0 0 0 -0.47284,-1.01338 l -7.2099,-6.63267 h -3.16828 -21.04781 a 1.7528645,1.769401 0 0 0 -0.0109,0 z" />
      <path
         id="path1333"
         style="fill:#b03030;fill-opacity:1;stroke:#1b1f37;stroke-width:0;stroke-linejoin:bevel;paint-order:markers stroke fill"
         d="m 30.232961,120.76091 a 5.9531244,5.9531244 0 0 0 -5.95312,5.95312 5.9531244,5.9531244 0 0 0 0.14883,1.32292 h 11.60808 a 5.9531244,5.9531244 0 0 0 0.14934,-1.32292 5.9531244,5.9531244 0 0 0 -5.95313,-5.95312 z" />
      <circle
         style="fill:#ff6600;fill-opacity:1;stroke:#1b1f37;stroke-width:0;stroke-linejoin:bevel;paint-order:markers stroke fill"
         id="circle1335"
         cx="30.232964"
         cy="126.71404"
         r="5.291666" />
      <path
         id="path1337"
         style="fill:#b03030;fill-opacity:1;stroke:#1b1f37;stroke-width:0;stroke-linejoin:bevel;paint-order:markers stroke fill"
         d="m 64.128051,120.83222 a 5.9531244,5.9531244 0 0 0 -5.88904,5.95312 5.9531244,5.9531244 0 0 0 0.13332,1.25161 h 11.6396 a 5.9531244,5.9531244 0 0 0 0.13333,-1.25161 5.9531244,5.9531244 0 0 0 -5.95313,-5.95312 5.9531244,5.9531244 0 0 0 -0.0641,0 z" />
      <circle
         style="fill:#ff6600;fill-opacity:1;stroke:#1b1f37;stroke-width:0;stroke-linejoin:bevel;paint-order:markers stroke fill"
         id="circle1339"
         cx="64.192039"
         cy="126.78519"
         r="5.291666" />
      <path
         style="fill:#8699ac;fill-opacity:1;stroke:#000000;stroke-width:0;stroke-linecap:butt;stroke-linejoin:miter;stroke-miterlimit:4;stroke-dasharray:none;stroke-opacity:1"
         d="m 36.207671,118.2639 5.26268,-7.6007 h 8.99582 v 7.6007 z"
         id="path1341"
         inkscape:path-effect="#path-effect1343"
         inkscape:original-d="m 36.207671,118.2639 5.26268,-7.6007 h 8.99582 v 7.6007 z" />
      <path
         style="fill:#8699ac;fill-opacity:1;stroke:#000000;stroke-width:0;stroke-linecap:butt;stroke-linejoin:miter;stroke-miterlimit:4;stroke-dasharray:none;stroke-opacity:1"
         d="m 52.053671,110.6632 11.0498,-0.006 v 7.60677 h -11.0498 z"
         id="path1345"
         inkscape:path-effect="#path-effect1347"
         inkscape:original-d="m 52.053671,110.6632 11.0498,-0.006 v 7.60677 h -11.0498 z" />
      <path
         style="fill:#8699ac;fill-opacity:1;stroke:#000000;stroke-width:0;stroke-linecap:butt;stroke-linejoin:miter;stroke-miterlimit:4;stroke-dasharray:none;stroke-opacity:1"
         d="m 64.690971,110.65713 h 0.45652 l 7.30732,6.7694 10e-6,0.83737 h -7.76385 z"
         id="path1349"
         inkscape:path-effect="#path-effect1351"
         inkscape:original-d="m 64.690971,110.65713 h 0.45652 l 7.30732,6.7694 10e-6,0.83737 h -7.76385 z" />
      <path
         id="path1353"
         style="fill:#cc4646;fill-opacity:1;stroke:#1b1f37;stroke-width:0;stroke-linejoin:bevel;stroke-miterlimit:4;stroke-dasharray:none;paint-order:markers stroke fill"
         d="m 41.390941,109.75951 a 0.65210462,0.63433015 0 0 0 -0.55811,0.30282 0.65210462,0.63433015 0 0 0 -0.0584,0.11886 l -3.44785,4.91443 -2.2226,3.16828 h -0.008 v 3.96617 a 6.614583,6.614583 0 0 1 1.75183,4.48396 6.614583,6.614583 0 0 1 -0.008,0.31678 h 14.42754 v -6.37843 h -0.007 v -2.38848 -8.01398 -0.49041 h -9.78959 v 0.005 a 0.65210462,0.63433015 0 0 0 -0.0796,-0.005 z m 0.15245,0.90382 h 8.92297 v 7.60057 h -14.25753 l 1.86448,-2.65824 3.44785,-4.91391 z" />
      <path
         id="path1355"
         style="fill:#fff4c6;fill-opacity:1;stroke:#1b1f37;stroke-width:0;stroke-linejoin:bevel;stroke-miterlimit:4;stroke-dasharray:none;paint-order:markers stroke fill"
         d="m 20.237191,121.24873 v 2.31511 h 0.38809 a 0.37041619,0.37041595 0 0 0 0.37052,-0.37052 0.37041619,0.37041595 0 0 0 0,-0.003 v -0.36793 -1.20355 a 0.37041619,0.37041595 0 0 0 -0.37052,-0.37052 z" />
      <path
         id="path1357"
         style="fill:#e46a6a;fill-opacity:1;stroke:#1b1f37;stroke-width:0;stroke-linejoin:bevel;stroke-miterlimit:4;stroke-dasharray:none;paint-order:markers stroke fill"
         d="m 73.457961,119.62911 v 2.31511 h -0.38809 a 0.37041619,0.37041595 0 0 1 -0.37052,-0.37052 0.37041619,0.37041595 0 0 1 0,-0.003 v -0.36793 -1.20355 a 0.37041619,0.37041595 0 0 1 0.37052,-0.37052 z" />
      <rect
         style="fill:#a12c2c;fill-opacity:1;stroke:#1b1f37;stroke-width:0;stroke-linejoin:bevel;stroke-miterlimit:4;stroke-dasharray:none;paint-order:markers stroke fill"
         id="rect1359"
         width="2.480469"
         height="0.65319014"
         x="47.446373"
         y="119.49963" />
      <circle
         style="fill:#2f2f2f;fill-opacity:1;stroke:#1b1f37;stroke-width:0;stroke-linejoin:bevel;paint-order:markers stroke fill"
         id="circle1587"
         cx="30.232964"
         cy="126.71404"
         r="5.291666" />
      <g
         id="g1591"
         style="fill:#7d7d7d;fill-opacity:1"
         transform="translate(-87.771186,1.2353934)">
        <circle
           style="fill:#7d7d7d;fill-opacity:1;stroke:#1b1f37;stroke-width:0;stroke-linejoin:bevel;paint-order:markers stroke fill"
           id="circle1589"
           cx="118.00415"
           cy="125.47865"
           r="4.630208" />
      </g>
      <circle
         style="fill:#2f2f2f;fill-opacity:1;stroke:#1b1f37;stroke-width:0;stroke-linejoin:bevel;paint-order:markers stroke fill"
         id="circle1593"
         cx="64.192039"
         cy="126.78519"
         r="5.291666" />
      <g
         id="g1597"
         style="fill:#7d7d7d;fill-opacity:1"
         transform="translate(-53.81211,1.3065454)">
        <circle
           style="fill:#7d7d7d;fill-opacity:1;stroke:#1b1f37;stroke-width:0;stroke-linejoin:bevel;paint-order:markers stroke fill"
           id="circle1595"
           cx="118.00415"
           cy="125.47865"
           r="4.630208" />
      </g>
    </g>
  </g>
</svg>
