<?xml version="1.0" encoding="UTF-8" standalone="no"?>
<svg
   xmlns:dc="http://purl.org/dc/elements/1.1/"
   xmlns:cc="http://creativecommons.org/ns#"
   xmlns:rdf="http://www.w3.org/1999/02/22-rdf-syntax-ns#"
   xmlns:svg="http://www.w3.org/2000/svg"
   xmlns="http://www.w3.org/2000/svg"
   xmlns:sodipodi="http://sodipodi.sourceforge.net/DTD/sodipodi-0.dtd"
   xmlns:inkscape="http://www.inkscape.org/namespaces/inkscape"
   width="48"
   height="48"
   viewBox="0 0 12.7 12.7"
   version="1.1"
   id="svg8"
   inkscape:version="1.0.1 (3bc2e813f5, 2020-09-07)"
   sodipodi:docname="Icon_FloorLamp.svg">
  <defs
     id="defs2">
    <inkscape:path-effect
       effect="fillet_chamfer"
       id="path-effect39"
       is_visible="true"
       lpeversion="1"
       satellites_param="F,0,0,1,0,0.52916667,0,1 @ F,0,0,1,0,0.52916667,0,1 @ F,0,0,1,0,0.52916667,0,1 @ F,0,0,1,0,0.52916667,0,1 @ F,0,0,1,0,0.52916667,0,1 @ F,0,0,1,0,0.52916667,0,1 @ F,0,0,1,0,0.52916667,0,1 @ F,0,0,1,0,0.52916667,0,1 @ F,0,0,1,0,0.52916667,0,1 @ F,0,0,1,0,0.52916667,0,1"
       unit="px"
       method="auto"
       mode="F"
       radius="2"
       chamfer_steps="1"
       flexible="false"
       use_knot_distance="true"
       apply_no_radius="true"
       apply_with_radius="true"
       only_selected="false"
       hide_knots="false" />
  </defs>
  <sodipodi:namedview
     id="base"
     pagecolor="#ffffff"
     bordercolor="#666666"
     borderopacity="1.0"
     inkscape:pageopacity="0.0"
     inkscape:pageshadow="2"
     inkscape:zoom="11.2"
     inkscape:cx="54.74596"
     inkscape:cy="27.11053"
     inkscape:document-units="mm"
     inkscape:current-layer="layer1"
     inkscape:document-rotation="0"
     showgrid="false"
     units="px"
     inkscape:snap-bbox="true"
     inkscape:bbox-paths="true"
     inkscape:bbox-nodes="true"
     inkscape:snap-bbox-edge-midpoints="true"
     inkscape:snap-bbox-midpoints="true"
     inkscape:object-paths="true"
     inkscape:snap-intersection-paths="true"
     inkscape:snap-smooth-nodes="true"
     inkscape:snap-midpoints="true"
     inkscape:snap-object-midpoints="true"
     inkscape:snap-center="true"
     inkscape:snap-text-baseline="true"
     inkscape:snap-page="true"
     inkscape:window-width="1920"
     inkscape:window-height="1017"
     inkscape:window-x="1912"
     inkscape:window-y="-8"
     inkscape:window-maximized="1" />
  <metadata
     id="metadata5">
    <rdf:RDF>
      <cc:Work
         rdf:about="">
        <dc:format>image/svg+xml</dc:format>
        <dc:type
           rdf:resource="http://purl.org/dc/dcmitype/StillImage" />
        <dc:title></dc:title>
      </cc:Work>
    </rdf:RDF>
  </metadata>
  <g
     inkscape:label="Ebene 1"
     inkscape:groupmode="layer"
     id="layer1">
    <path
       id="rect12"
       style="fill:#ffffff;stroke:#00bb2e;stroke-width:0;stroke-linejoin:round;paint-order:markers stroke fill"
       d="M 6.300948,0 A 3.1393207,0.57078515 0 0 0 3.2106786,0.57078573 V 5.2212398 A 3.1393207,0.57078515 0 0 0 6.3499999,5.7920255 3.1393207,0.57078515 0 0 0 9.4893213,5.2212398 V 0.57078573 A 3.1393207,0.57078515 0 0 0 6.3499999,0 3.1393207,0.57078515 0 0 0 6.300948,0 Z M 5.6365179,6.2635928 v 4.1983962 0.374578 0.151058 H 5.7875754 6.9124245 7.063482 V 10.836567 10.461989 6.2635928 a 3.1393207,0.57078515 0 0 1 -0.7134821,0.01505 3.1393207,0.57078515 0 0 1 -0.713482,-0.01505 z M 5.2084286,10.536124 a 2.5685349,1.1415708 0 0 0 -1.4269643,1.022287 2.5685349,1.1415708 0 0 0 2.5685356,1.14157 2.5685349,1.1415708 0 0 0 2.5685357,-1.14157 2.5685349,1.1415708 0 0 0 -1.4269643,-1.022287 v 0.602558 0.125974 A 0.15102038,0.15102038 0 0 1 7.3405138,11.415713 H 5.3594861 A 0.15102038,0.15102038 0 0 1 5.2084286,11.264656 v -0.428089 z" />
  </g>
</svg>
