<?xml version="1.0" encoding="UTF-8" standalone="no"?>
<svg
   xmlns:dc="http://purl.org/dc/elements/1.1/"
   xmlns:cc="http://creativecommons.org/ns#"
   xmlns:rdf="http://www.w3.org/1999/02/22-rdf-syntax-ns#"
   xmlns:svg="http://www.w3.org/2000/svg"
   xmlns="http://www.w3.org/2000/svg"
   xmlns:sodipodi="http://sodipodi.sourceforge.net/DTD/sodipodi-0.dtd"
   xmlns:inkscape="http://www.inkscape.org/namespaces/inkscape"
   width="48"
   height="48"
   viewBox="0 0 12.7 12.7"
   version="1.1"
   id="svg8"
   inkscape:version="1.0.1 (3bc2e813f5, 2020-09-07)"
   sodipodi:docname="Icon_Voice_Assistent.svg">
  <defs
     id="defs2">
    <inkscape:path-effect
       effect="fillet_chamfer"
       id="path-effect881"
       is_visible="true"
       lpeversion="1"
       satellites_param="F,0,0,1,0,0,0,1 @ F,0,0,1,0,0,0,1 @ F,0,0,1,0,0,0,1 @ F,0,0,1,0,0,0,1 @ F,0,0,1,0,0,0,1 @ F,0,0,1,0,0,0,1"
       unit="px"
       method="auto"
       mode="F"
       radius="25"
       chamfer_steps="1"
       flexible="false"
       use_knot_distance="true"
       apply_no_radius="true"
       apply_with_radius="true"
       only_selected="false"
       hide_knots="false" />
  </defs>
  <sodipodi:namedview
     id="base"
     pagecolor="#ffffff"
     bordercolor="#666666"
     borderopacity="1.0"
     inkscape:pageopacity="0.0"
     inkscape:pageshadow="2"
     inkscape:zoom="11.313708"
     inkscape:cx="24.31943"
     inkscape:cy="27.158853"
     inkscape:document-units="mm"
     inkscape:current-layer="layer1"
     inkscape:document-rotation="0"
     showgrid="false"
     units="px"
     inkscape:snap-bbox="true"
     inkscape:bbox-paths="true"
     inkscape:bbox-nodes="true"
     inkscape:snap-bbox-edge-midpoints="true"
     inkscape:snap-bbox-midpoints="true"
     inkscape:object-paths="true"
     inkscape:snap-intersection-paths="true"
     inkscape:snap-smooth-nodes="true"
     inkscape:snap-midpoints="true"
     inkscape:snap-center="true"
     inkscape:snap-object-midpoints="true"
     inkscape:snap-text-baseline="true"
     inkscape:snap-page="true"
     inkscape:window-width="1920"
     inkscape:window-height="1017"
     inkscape:window-x="1912"
     inkscape:window-y="-7"
     inkscape:window-maximized="1" />
  <metadata
     id="metadata5">
    <rdf:RDF>
      <cc:Work
         rdf:about="">
        <dc:format>image/svg+xml</dc:format>
        <dc:type
           rdf:resource="http://purl.org/dc/dcmitype/StillImage" />
        <dc:title></dc:title>
      </cc:Work>
    </rdf:RDF>
  </metadata>
  <g
     inkscape:label="Ebene 1"
     inkscape:groupmode="layer"
     id="layer1">
    <path
       id="rect839"
       style="fill:#ffffff;stroke:#1b1f37;stroke-width:0;stroke-linejoin:bevel;paint-order:markers stroke fill"
       d="M 3.3929158,9.9218756 V 11.90625 c -1.1e-6,0.273985 1.332652,0.496094 2.9765631,0.496094 1.6439108,0 2.9765636,-0.222109 2.9765625,-0.496094 V 9.9218756 c -9e-7,0.2739844 -1.3326531,0.4960934 -2.9765625,0.4960934 -1.6439096,0 -2.9765622,-0.222108 -2.9765631,-0.4960934 z"
       inkscape:path-effect="#path-effect881"
       inkscape:original-d="M 3.3929158,9.9218756 V 11.90625 A 2.9765625,0.49609367 0 0 0 6.3694789,12.402344 2.9765625,0.49609367 0 0 0 9.3460414,11.90625 V 9.9218756 A 2.9765622,0.49609367 0 0 1 6.3694789,10.417969 2.9765622,0.49609367 0 0 1 3.3929158,9.9218756 Z"
       inkscape:export-xdpi="384"
       inkscape:export-ydpi="384" />
    <path
       id="rect841"
       style="fill:#ffffff;stroke:#1b1f37;stroke-width:0;stroke-linejoin:bevel;paint-order:markers stroke fill"
       d="M 24 0 A 11.25 1.8749997 0 0 0 12.824219 1.875 L 12.824219 35.625 A 11.249999 1.8749997 0 0 0 24.074219 37.5 A 11.249999 1.8749997 0 0 0 35.324219 35.625 L 35.324219 1.875 A 11.25 1.8749997 0 0 0 24.074219 0 A 11.25 1.8749997 0 0 0 24 0 z M 24.074219 5.03125 A 3.7795253 3.7795248 0 0 1 27.853516 8.8105469 L 27.853516 19.728516 A 3.7795253 3.7795248 0 0 1 27.853516 19.78125 A 3.7795253 3.7795248 0 0 1 24.074219 23.560547 A 3.7795253 3.7795248 0 0 1 20.294922 19.78125 L 20.294922 8.8632812 A 3.7795253 3.7795248 0 0 1 20.294922 8.8105469 A 3.7795253 3.7795248 0 0 1 24.074219 5.03125 z M 17.324219 18.53125 A 1.2499991 1.2500003 0 0 1 18.574219 19.78125 A 5.4999976 5.4999976 0 0 0 24.074219 25.28125 A 5.4999976 5.4999976 0 0 0 29.574219 19.78125 A 1.2499991 1.2500003 0 0 1 30.824219 18.53125 A 1.2499991 1.2500003 0 0 1 32.074219 19.78125 A 7.9999975 7.9999975 0 0 1 25.324219 27.681641 L 25.324219 29.96875 L 28.074219 29.96875 A 1.2499991 1.2500003 0 0 1 29.324219 31.21875 A 1.2499991 1.2500003 0 0 1 28.074219 32.46875 L 20.074219 32.46875 A 1.2499991 1.2500003 0 0 1 18.824219 31.21875 A 1.2499991 1.2500003 0 0 1 20.074219 29.96875 L 22.824219 29.96875 L 22.824219 27.683594 A 7.9999975 7.9999975 0 0 1 16.076172 19.865234 A 1.2499991 1.2500003 0 0 1 16.074219 19.78125 A 1.2499991 1.2500003 0 0 1 17.324219 18.53125 z "
       transform="scale(0.26458333)" />
  </g>
</svg>
