<?xml version="1.0" encoding="UTF-8" standalone="no"?>
<svg
   xmlns:dc="http://purl.org/dc/elements/1.1/"
   xmlns:cc="http://creativecommons.org/ns#"
   xmlns:rdf="http://www.w3.org/1999/02/22-rdf-syntax-ns#"
   xmlns:svg="http://www.w3.org/2000/svg"
   xmlns="http://www.w3.org/2000/svg"
   xmlns:sodipodi="http://sodipodi.sourceforge.net/DTD/sodipodi-0.dtd"
   xmlns:inkscape="http://www.inkscape.org/namespaces/inkscape"
   width="48"
   height="48"
   viewBox="0 0 12.7 12.7"
   version="1.1"
   id="svg8"
   inkscape:version="1.0.1 (3bc2e813f5, 2020-09-07)"
   sodipodi:docname="Icon_WiFi_Speaker.svg">
  <defs
     id="defs2">
    <inkscape:path-effect
       effect="fillet_chamfer"
       id="path-effect24"
       is_visible="true"
       lpeversion="1"
       satellites_param="F,0,0,1,0,3.96875,0,1 @ F,0,0,1,0,3.96875,0,1 @ F,0,0,1,0,3.96875,0,1 @ F,0,0,1,0,3.96875,0,1"
       unit="px"
       method="auto"
       mode="F"
       radius="15"
       chamfer_steps="1"
       flexible="false"
       use_knot_distance="true"
       apply_no_radius="true"
       apply_with_radius="true"
       only_selected="false"
       hide_knots="false" />
  </defs>
  <sodipodi:namedview
     id="base"
     pagecolor="#ffffff"
     bordercolor="#666666"
     borderopacity="1.0"
     inkscape:pageopacity="0.0"
     inkscape:pageshadow="2"
     inkscape:zoom="11.2"
     inkscape:cx="8.9483784"
     inkscape:cy="21.458753"
     inkscape:document-units="mm"
     inkscape:current-layer="layer1"
     inkscape:document-rotation="0"
     showgrid="false"
     inkscape:snap-bbox="true"
     inkscape:bbox-paths="true"
     inkscape:bbox-nodes="true"
     inkscape:snap-bbox-edge-midpoints="true"
     inkscape:snap-bbox-midpoints="true"
     inkscape:object-paths="true"
     inkscape:snap-intersection-paths="true"
     inkscape:snap-smooth-nodes="true"
     inkscape:window-width="1920"
     inkscape:window-height="1017"
     inkscape:window-x="1912"
     inkscape:window-y="-7"
     inkscape:window-maximized="1"
     units="px"
     inkscape:snap-page="true" />
  <metadata
     id="metadata5">
    <rdf:RDF>
      <cc:Work
         rdf:about="">
        <dc:format>image/svg+xml</dc:format>
        <dc:type
           rdf:resource="http://purl.org/dc/dcmitype/StillImage" />
        <dc:title></dc:title>
      </cc:Work>
    </rdf:RDF>
  </metadata>
  <g
     inkscape:label="Ebene 1"
     inkscape:groupmode="layer"
     id="layer1">
    <path
       id="rect16"
       style="fill:#ffffff;stroke:#1b1f37;stroke-width:0;stroke-linejoin:bevel;paint-order:markers stroke fill"
       d="M 5.3238083,1.2385829e-5 A 0.74414064,0.74414064 0 0 0 4.5852873,0.74415299 V 5.1732434 a 1.1769458,1.1769458 0 0 0 -1.176866,1.176866 1.1769458,1.1769458 0 0 0 0,0.0089 1.1769458,1.1769458 0 0 0 1.176866,1.168049 v 4.4288006 a 0.74414064,0.74414064 0 0 0 0.74414,0.74414 h 5.9531257 a 0.74414064,0.74414064 0 0 0 0.74414,-0.74414 V 0.74415299 A 0.74414064,0.74414064 0 0 0 11.282553,1.2385829e-5 H 5.3294273 a 0.74414064,0.74414064 0 0 0 -0.0056,0 z M 8.3022109,0.98938999 a 1.9843749,1.9843743 0 0 1 0.0038,0 A 1.9843749,1.9843743 0 0 1 10.290386,2.973765 1.9843749,1.9843743 0 0 1 8.3060109,4.9581404 1.9843749,1.9843743 0 0 1 6.3216363,2.973765 1.9843749,1.9843743 0 0 1 8.3022329,0.98938999 Z m -0.0056,1.24023441 A 0.74414059,0.74414035 0 0 0 7.5580913,2.973765 0.74414059,0.74414035 0 0 0 8.3022309,3.7179054 0.74414059,0.74414035 0 0 0 9.0463719,2.973765 0.74414059,0.74414035 0 0 0 8.3022309,2.2296244 a 0.74414059,0.74414035 0 0 0 -0.0056,0 z M 2.5051815,2.6232051 C 2.4426125,2.623723 2.3793192,2.6406141 2.3213749,2.6763021 1.1657177,3.3880675 0.41141553,4.6047174 0.28777813,5.9563344 c -0.019836,0.216864 -0.017972,0.40556 -0.017925,0.420032 l 0.020348,0.393872 c 0.1309022,1.3417283 0.88323837,2.5468853 2.03107757,3.2538706 0.1854186,0.114208 0.4257246,0.03438 0.5252586,-0.1593893 0.09852,-0.191797 0.01859,-0.423416 -0.164815,-0.540762 C 1.78952,8.7531107 1.1999346,7.8095954 1.077943,6.7574494 1.0528669,6.5411694 1.0544753,6.3577264 1.0544948,6.3501094 1.1948541,4.8990854 1.7854666,3.9498014 2.6817213,3.3763568 2.8651243,3.2590108 2.9444013,3.0257972 2.8448893,2.8320101 2.7772103,2.700215 2.6428334,2.6220657 2.5051815,2.6232051 Z m 0.7180768,1.3969103 c -0.06189,0.0014 -0.124133,0.01975 -0.180416,0.05794 -0.638033,0.432944 -1.0652664,1.115917 -1.1755094,1.879052 -0.031121,0.215422 -0.028235,0.402066 -0.028196,0.413153 l 0.031103,0.392902 c 0.1147554,0.755492 0.5402701,1.4301323 1.1726024,1.8591893 0.180109,0.122214 0.421556,0.0402 0.520317,-0.153963 0.09776,-0.192205 0.0137,-0.4216563 -0.159874,-0.5526803 -0.377601,-0.285029 -0.639786,-0.697949 -0.7373576,-1.160879 -0.044853,-0.212803 -0.042173,-0.397441 -0.042148,-0.404723 0.1348106,-0.859799 0.3983056,-1.27775 0.7795066,-1.565505 0.173575,-0.131026 0.256826,-0.362015 0.158033,-0.556168 -0.06721,-0.132083 -0.201903,-0.211376 -0.33806,-0.208321 z m 5.0661626,2.329897 a 2.7285156,2.7285149 0 0 1 10e-5,0 2.7285156,2.7285149 0 0 1 0.01647,0 A 2.7285156,2.7285149 0 0 1 11.034507,9.0785287 2.7285156,2.7285149 0 0 1 8.3059909,11.807045 2.7285156,2.7285149 0 0 1 5.5774763,9.0785287 2.7285156,2.7285149 0 0 1 8.2894229,6.3500124 Z m 0.0082,1.488282 a 1.2402344,1.2402339 0 0 0 -1.2319006,1.2402343 1.2402344,1.2402339 0 0 0 1.2402336,1.2402343 1.2402344,1.2402339 0 0 0 1.240234,-1.2402343 1.2402344,1.2402339 0 0 0 -1.240234,-1.2402343 1.2402344,1.2402339 0 0 0 -0.0083,0 z" />
  </g>
</svg>
