<?xml version="1.0" encoding="UTF-8" standalone="no"?>
<svg
   xmlns:dc="http://purl.org/dc/elements/1.1/"
   xmlns:cc="http://creativecommons.org/ns#"
   xmlns:rdf="http://www.w3.org/1999/02/22-rdf-syntax-ns#"
   xmlns:svg="http://www.w3.org/2000/svg"
   xmlns="http://www.w3.org/2000/svg"
   xmlns:sodipodi="http://sodipodi.sourceforge.net/DTD/sodipodi-0.dtd"
   xmlns:inkscape="http://www.inkscape.org/namespaces/inkscape"
   width="48"
   height="48"
   viewBox="0 0 12.7 12.7"
   version="1.1"
   id="svg8"
   inkscape:version="1.0.1 (3bc2e813f5, 2020-09-07)"
   sodipodi:docname="Icon_Temerature.svg">
  <defs
     id="defs2">
    <inkscape:path-effect
       effect="fillet_chamfer"
       id="path-effect125"
       is_visible="true"
       lpeversion="1"
       satellites_param="F,0,0,1,0,0.52916667,0,1 @ F,0,0,1,0,0.52916667,0,1 @ F,0,0,1,0,0.52916667,0,1 @ F,0,0,1,0,0.52916667,0,1"
       unit="px"
       method="auto"
       mode="F"
       radius="2"
       chamfer_steps="1"
       flexible="false"
       use_knot_distance="true"
       apply_no_radius="true"
       apply_with_radius="true"
       only_selected="false"
       hide_knots="false" />
    <inkscape:path-effect
       effect="fillet_chamfer"
       id="path-effect121"
       is_visible="true"
       lpeversion="1"
       satellites_param="F,0,0,1,0,0.52916667,0,1 @ F,0,0,1,0,0.52916667,0,1 @ F,0,0,1,0,0.52916667,0,1 @ F,0,0,1,0,0.52916667,0,1"
       unit="px"
       method="auto"
       mode="F"
       radius="2"
       chamfer_steps="1"
       flexible="false"
       use_knot_distance="true"
       apply_no_radius="true"
       apply_with_radius="true"
       only_selected="false"
       hide_knots="false" />
    <inkscape:path-effect
       effect="fillet_chamfer"
       id="path-effect117"
       is_visible="true"
       lpeversion="1"
       satellites_param="F,0,0,1,0,0.52916667,0,1 @ F,0,0,1,0,0.52916667,0,1 @ F,0,0,1,0,0.52916667,0,1 @ F,0,0,1,0,0.52916667,0,1"
       unit="px"
       method="auto"
       mode="F"
       radius="2"
       chamfer_steps="1"
       flexible="false"
       use_knot_distance="true"
       apply_no_radius="true"
       apply_with_radius="true"
       only_selected="false"
       hide_knots="false" />
    <inkscape:path-effect
       effect="fillet_chamfer"
       id="path-effect113"
       is_visible="true"
       lpeversion="1"
       satellites_param="F,0,0,1,0,0.52916667,0,1 @ F,0,0,1,0,0.52916667,0,1 @ F,0,0,1,0,0.52916667,0,1 @ F,0,0,1,0,0.52916667,0,1"
       unit="px"
       method="auto"
       mode="F"
       radius="2"
       chamfer_steps="1"
       flexible="false"
       use_knot_distance="true"
       apply_no_radius="true"
       apply_with_radius="true"
       only_selected="false"
       hide_knots="false" />
    <inkscape:path-effect
       effect="fillet_chamfer"
       id="path-effect109"
       is_visible="true"
       lpeversion="1"
       satellites_param="F,0,0,1,0,0.52916667,0,1 @ F,0,0,1,0,0.52916667,0,1 @ F,0,0,1,0,0.52916667,0,1 @ F,0,0,1,0,0.52916667,0,1"
       unit="px"
       method="auto"
       mode="F"
       radius="2"
       chamfer_steps="1"
       flexible="false"
       use_knot_distance="true"
       apply_no_radius="true"
       apply_with_radius="true"
       only_selected="false"
       hide_knots="false" />
    <inkscape:path-effect
       effect="fillet_chamfer"
       id="path-effect105"
       is_visible="true"
       lpeversion="1"
       satellites_param="F,0,0,1,0,0.52916667,0,1 @ F,0,0,1,0,0.52916667,0,1 @ F,0,0,1,0,0.52916667,0,1 @ F,0,0,1,0,0.52916667,0,1"
       unit="px"
       method="auto"
       mode="F"
       radius="2"
       chamfer_steps="1"
       flexible="false"
       use_knot_distance="true"
       apply_no_radius="true"
       apply_with_radius="true"
       only_selected="false"
       hide_knots="false" />
    <inkscape:path-effect
       effect="fillet_chamfer"
       id="path-effect101"
       is_visible="true"
       lpeversion="1"
       satellites_param="F,0,0,1,0,0.52916667,0,1 @ F,0,0,1,0,0.52916667,0,1 @ F,0,0,1,0,0.52916667,0,1 @ F,0,0,1,0,0.52916667,0,1"
       unit="px"
       method="auto"
       mode="F"
       radius="2"
       chamfer_steps="1"
       flexible="false"
       use_knot_distance="true"
       apply_no_radius="true"
       apply_with_radius="true"
       only_selected="false"
       hide_knots="false" />
  </defs>
  <sodipodi:namedview
     id="base"
     pagecolor="#ffffff"
     bordercolor="#666666"
     borderopacity="1.0"
     inkscape:pageopacity="0.0"
     inkscape:pageshadow="2"
     inkscape:zoom="5.6"
     inkscape:cx="27.788854"
     inkscape:cy="37.273699"
     inkscape:document-units="mm"
     inkscape:current-layer="layer1"
     inkscape:document-rotation="0"
     showgrid="false"
     inkscape:snap-bbox="true"
     inkscape:bbox-paths="true"
     inkscape:bbox-nodes="true"
     inkscape:snap-bbox-edge-midpoints="true"
     inkscape:snap-bbox-midpoints="true"
     inkscape:object-paths="true"
     inkscape:snap-intersection-paths="true"
     inkscape:snap-smooth-nodes="true"
     inkscape:window-width="1920"
     inkscape:window-height="1017"
     inkscape:window-x="1912"
     inkscape:window-y="-7"
     inkscape:window-maximized="1"
     units="px"
     inkscape:snap-page="true" />
  <metadata
     id="metadata5">
    <rdf:RDF>
      <cc:Work
         rdf:about="">
        <dc:format>image/svg+xml</dc:format>
        <dc:type
           rdf:resource="http://purl.org/dc/dcmitype/StillImage" />
        <dc:title></dc:title>
      </cc:Work>
    </rdf:RDF>
  </metadata>
  <g
     inkscape:label="Ebene 1"
     inkscape:groupmode="layer"
     id="layer1">
    <path
       id="rect16"
       style="fill:#ffffff;stroke:#1b1f37;stroke-width:0;stroke-linejoin:bevel;paint-order:markers stroke fill"
       d="M 6.3500277,2.7664498e-5 A 1.2402344,1.2402343 0 0 0 5.1097927,1.2402617 v 0.297657 7.073502 a 2.2324215,2.2324215 0 0 0 -0.992187,1.8561843 2.2324215,2.2324215 0 0 0 2.232422,2.232422 2.2324215,2.2324215 0 0 0 2.232422,-2.232422 2.2324215,2.2324215 0 0 0 -0.992188,-1.8561843 V 1.5379187 1.2402617 A 1.2402344,1.2402343 0 0 0 6.3500277,2.7664498e-5 Z M 6.3444277,0.49612168 a 0.74414059,0.74414054 0 0 1 0.0056,0 0.74414059,0.74414054 0 0 1 0.74414,0.74414002 v 0.297657 5.826388 0.998583 0.536013 a 1.736328,1.736328 0 0 1 0.992188,1.5687023 1.736328,1.736328 0 0 1 -1.736328,1.736328 1.736328,1.736328 0 0 1 -1.736328,-1.736328 1.736328,1.736328 0 0 1 0.992187,-1.5687983 V 8.3628897 7.3643067 1.5379187 1.2402617 A 0.74414059,0.74414054 0 0 1 6.3444077,0.49612168 Z M 3.8004937,2.2306087 a 0.09921875,0.09921875 0 0 0 -0.09922,0.09922 v 0.04961 a 0.09921875,0.09921875 0 0 0 0.09922,0.09922 h 0.79375 a 0.09921875,0.09921875 0 0 0 0.09922,-0.09922 v -0.04961 a 0.09921875,0.09921875 0 0 0 -0.09922,-0.09922 z m 0,0.992187 a 0.09921875,0.09921875 0 0 0 -0.09922,0.09922 v 0.04961 a 0.09921875,0.09921875 0 0 0 0.09922,0.09922 h 0.79375 a 0.09921875,0.09921875 0 0 0 0.09922,-0.09922 v -0.04961 a 0.09921875,0.09921875 0 0 0 -0.09922,-0.09922 z m 0,0.992188 a 0.09921875,0.09921875 0 0 0 -0.09922,0.09922 v 0.04961 a 0.09921875,0.09921875 0 0 0 0.09922,0.09922 h 0.79375 a 0.09921875,0.09921875 0 0 0 0.09922,-0.09922 v -0.04961 a 0.09921875,0.09921875 0 0 0 -0.09922,-0.09922 z m 0,0.992187 a 0.09921875,0.09921875 0 0 0 -0.09922,0.09922 v 0.04961 a 0.09921875,0.09921875 0 0 0 0.09922,0.09922 h 0.79375 a 0.09921875,0.09921875 0 0 0 0.09922,-0.09922 v -0.04961 a 0.09921875,0.09921875 0 0 0 -0.09922,-0.09922 z m 2.548585,0.157743 a 0.49609366,0.49609366 0 0 0 -0.495125,0.496093 0.49609366,0.49609366 0 0 0 0,9.69e-4 v 3.202421 a 1.4882812,1.4882812 0 0 0 -0.992188,1.4032083 1.4882812,1.4882812 0 0 0 1.488282,1.488281 1.4882812,1.4882812 0 0 0 1.488281,-1.488281 1.4882812,1.4882812 0 0 0 -0.992188,-1.4031113 v -3.203487 a 0.49609366,0.49609366 0 0 0 -0.496093,-0.496093 0.49609366,0.49609366 0 0 0 -9.69e-4,0 z m -2.548585,0.834445 a 0.09921875,0.09921875 0 0 0 -0.09922,0.09922 v 0.04961 a 0.09921875,0.09921875 0 0 0 0.09922,0.09922 h 0.79375 a 0.09921875,0.09921875 0 0 0 0.09922,-0.09922 v -0.04961 a 0.09921875,0.09921875 0 0 0 -0.09922,-0.09922 z m 0,0.992187 a 0.09921875,0.09921875 0 0 0 -0.09922,0.09922 v 0.04961 a 0.09921875,0.09921875 0 0 0 0.09922,0.09922 h 0.79375 a 0.09921875,0.09921875 0 0 0 0.09922,-0.09922 v -0.04961 a 0.09921875,0.09921875 0 0 0 -0.09922,-0.09922 z m 0,0.992188 a 0.09921875,0.09921875 0 0 0 -0.09922,0.09922 v 0.04961 a 0.09921875,0.09921875 0 0 0 0.09922,0.09922 h 0.79375 a 0.09921875,0.09921875 0 0 0 0.09922,-0.09922 v -0.04961 a 0.09921875,0.09921875 0 0 0 -0.09922,-0.09922 z" />
  </g>
</svg>
