<?xml version="1.0" encoding="UTF-8" standalone="no"?>
<svg
   xmlns:dc="http://purl.org/dc/elements/1.1/"
   xmlns:cc="http://creativecommons.org/ns#"
   xmlns:rdf="http://www.w3.org/1999/02/22-rdf-syntax-ns#"
   xmlns:svg="http://www.w3.org/2000/svg"
   xmlns="http://www.w3.org/2000/svg"
   xmlns:sodipodi="http://sodipodi.sourceforge.net/DTD/sodipodi-0.dtd"
   xmlns:inkscape="http://www.inkscape.org/namespaces/inkscape"
   width="48"
   height="48"
   viewBox="0 0 12.7 12.7"
   version="1.1"
   id="svg8"
   inkscape:version="1.0.1 (3bc2e813f5, 2020-09-07)"
   sodipodi:docname="Icon_MotionSensor.svg">
  <defs
     id="defs2" />
  <sodipodi:namedview
     id="base"
     pagecolor="#ffffff"
     bordercolor="#666666"
     borderopacity="1.0"
     inkscape:pageopacity="0.0"
     inkscape:pageshadow="2"
     inkscape:zoom="11.2"
     inkscape:cx="21.713671"
     inkscape:cy="24.108752"
     inkscape:document-units="mm"
     inkscape:current-layer="layer1"
     inkscape:document-rotation="0"
     showgrid="false"
     units="px"
     inkscape:snap-bbox="true"
     inkscape:bbox-paths="true"
     inkscape:bbox-nodes="true"
     inkscape:snap-bbox-edge-midpoints="true"
     inkscape:snap-bbox-midpoints="true"
     inkscape:object-paths="true"
     inkscape:snap-intersection-paths="true"
     inkscape:snap-smooth-nodes="true"
     inkscape:snap-midpoints="true"
     inkscape:snap-object-midpoints="true"
     inkscape:snap-center="true"
     inkscape:snap-text-baseline="true"
     inkscape:snap-page="true"
     inkscape:snap-global="true"
     inkscape:window-width="1920"
     inkscape:window-height="1017"
     inkscape:window-x="1912"
     inkscape:window-y="-7"
     inkscape:window-maximized="1" />
  <metadata
     id="metadata5">
    <rdf:RDF>
      <cc:Work
         rdf:about="">
        <dc:format>image/svg+xml</dc:format>
        <dc:type
           rdf:resource="http://purl.org/dc/dcmitype/StillImage" />
        <dc:title></dc:title>
      </cc:Work>
    </rdf:RDF>
  </metadata>
  <g
     inkscape:label="Ebene 1"
     inkscape:groupmode="layer"
     id="layer1">
    <path
       id="path835"
       style="fill:#ffffff;stroke:#56ac83;stroke-width:0;stroke-linejoin:round;paint-order:markers stroke fill"
       d="M 7.3373437,2.8798443 A 0.52916626,0.52916621 38.840065 0 0 6.6033724,2.9682481 L 4.6121756,5.4412544 4.2806337,5.8530194 4.6539319,3.9177479 A 0.52916626,0.52916621 10.919846 0 0 4.234923,3.2977419 0.52916626,0.52916621 10.919846 0 0 3.6145929,3.7171534 L 2.866355,7.596327 2.8655267,7.598997 a 0.52916626,0.52916621 38.840065 0 0 0.1752119,0.5643589 l 3.0912578,2.4889961 0.00132,-0.0016 a 0.52916626,0.52916621 38.840065 0 0 0.034506,0.03048 0.52916626,0.52916621 38.840065 0 0 0.7440337,-0.0803 0.52916626,0.52916621 38.840065 0 0 0.0081,-0.01006 l 1.6078,-1.9968789 1.9911969,-2.4730062 A 0.52916626,0.52916621 38.840065 0 0 10.438664,5.3769425 0.52916626,0.52916621 38.840065 0 0 9.6946303,5.4572442 L 7.7034334,7.9302505 7.4973496,7.7643174 9.4885465,5.2913111 A 0.52916626,0.52916621 38.840065 0 0 9.4082449,4.5472772 0.52916626,0.52916621 38.840065 0 0 8.664211,4.6275788 L 6.6730141,7.1005851 6.4669303,6.934652 8.4581272,4.4616457 A 0.52916626,0.52916621 38.840065 0 0 8.3778256,3.7176118 0.52916626,0.52916621 38.840065 0 0 7.6337917,3.7979135 L 5.6425949,6.2709198 5.4365111,6.1049867 7.4277079,3.6319804 a 0.52916626,0.52916621 38.840065 0 0 -0.080302,-0.7440339 0.52916626,0.52916621 38.840065 0 0 -0.010063,-0.0081 z" />
    <path
       id="circle908"
       style="fill:#ffffff;stroke:#56ac83;stroke-width:0;stroke-linejoin:round;paint-order:markers stroke fill"
       d="M 0.8978281,1.454547 A 3.9687492,3.9687492 0 0 0 0.0684837,4.7024794 0.39687452,0.39687462 39.739627 0 0 0.2046529,4.9339662 0.39687452,0.39687462 39.739627 0 0 0.763555,4.8825082 0.39687452,0.39687462 39.739627 0 0 0.848664,4.5554231 0.39687452,0.39687462 39.739627 0 0 0.8481327,4.5536331 3.1749992,3.1749992 0 0 1 1.52735,1.9389393 3.1749992,3.1749992 0 0 1 3.97076,0.79365713 0.39687452,0.39687462 39.739627 0 0 3.97592,0.79391601 0.39687452,0.39687462 39.739627 0 0 4.2819664,0.65051514 0.39687452,0.39687462 39.739627 0 0 4.2305084,0.091613 0.39687452,0.39687462 39.739627 0 0 3.9780499,5e-7 a 3.9687492,3.9687492 0 0 0 -0.021966,5.546e-4 3.9687492,3.9687492 0 0 0 -3.039095,1.43094 3.9687492,3.9687492 0 0 0 -0.019161,0.023048 z M 2.1360578,2.4483748 A 2.3812491,2.3812491 0 0 0 1.6289107,4.4090946 0.39687452,0.39687462 39.739627 0 0 1.7654772,4.6409117 0.39687452,0.39687462 39.739627 0 0 2.3236517,4.5895207 0.39687452,0.39687462 39.739627 0 0 2.4087607,4.2624356 0.39687452,0.39687462 39.739627 0 0 2.4082293,4.2606456 1.5874989,1.5874989 0 0 1 2.7480702,2.9538277 1.5874989,1.5874989 0 0 1 3.9672281,2.3814211 0.39687452,0.39687462 39.739627 0 0 3.9723881,2.3816798 0.39687452,0.39687462 39.739627 0 0 4.2784344,2.238279 0.39687452,0.39687462 39.739627 0 0 4.2273734,1.6797072 0.39687452,0.39687462 39.739627 0 0 3.9745176,1.5877642 a 2.3812491,2.3812491 0 0 0 -0.021966,5.547e-4 2.3812491,2.3812491 0 0 0 -1.8148429,0.8580644 2.3812491,2.3812491 0 0 0 -0.00165,0.00199 z" />
    <path
       id="path953"
       style="fill:#ffffff;stroke:#56ac83;stroke-width:0;stroke-linejoin:round;paint-order:markers stroke fill"
       d="m 11.808059,11.271887 a 3.9687492,3.9687492 0 0 0 0.829344,-3.2479323 0.39687452,0.39687462 39.739627 0 0 -0.136169,-0.2314868 0.39687452,0.39687462 39.739627 0 0 -0.558902,0.051458 0.39687452,0.39687462 39.739627 0 0 -0.08511,0.3270851 0.39687452,0.39687462 39.739627 0 0 5.31e-4,0.00179 3.1749992,3.1749992 0 0 1 -0.679217,2.614694 3.1749992,3.1749992 0 0 1 -2.4434099,1.145282 0.39687452,0.39687462 39.739627 0 0 -0.00516,-2.59e-4 0.39687452,0.39687462 39.739627 0 0 -0.3060464,0.143401 0.39687452,0.39687462 39.739627 0 0 0.051458,0.558902 0.39687452,0.39687462 39.739627 0 0 0.2524585,0.09161 3.9687492,3.9687492 0 0 0 0.021966,-5.54e-4 3.9687492,3.9687492 0 0 0 3.0390948,-1.43094 3.9687492,3.9687492 0 0 0 0.01916,-0.02305 z m -1.23823,-0.993828 a 2.3812491,2.3812491 0 0 0 0.507147,-1.9607195 0.39687452,0.39687462 39.739627 0 0 -0.136566,-0.2318171 0.39687452,0.39687462 39.739627 0 0 -0.558175,0.051391 0.39687452,0.39687462 39.739627 0 0 -0.08511,0.3270851 0.39687452,0.39687462 39.739627 0 0 5.32e-4,0.00179 1.5874989,1.5874989 0 0 1 -0.3398411,1.306818 1.5874989,1.5874989 0 0 1 -1.2191579,0.5724065 0.39687452,0.39687462 39.739627 0 0 -0.00516,-2.59e-4 0.39687452,0.39687462 39.739627 0 0 -0.3060463,0.143401 0.39687452,0.39687462 39.739627 0 0 0.051061,0.558572 0.39687452,0.39687462 39.739627 0 0 0.2528558,0.09194 2.3812491,2.3812491 0 0 0 0.021966,-5.55e-4 2.3812491,2.3812491 0 0 0 1.8148425,-0.858064 2.3812491,2.3812491 0 0 0 0.0016,-0.002 z" />
  </g>
</svg>
