<?xml version="1.0" encoding="UTF-8" standalone="no"?>
<svg
   xmlns:dc="http://purl.org/dc/elements/1.1/"
   xmlns:cc="http://creativecommons.org/ns#"
   xmlns:rdf="http://www.w3.org/1999/02/22-rdf-syntax-ns#"
   xmlns:svg="http://www.w3.org/2000/svg"
   xmlns="http://www.w3.org/2000/svg"
   xmlns:sodipodi="http://sodipodi.sourceforge.net/DTD/sodipodi-0.dtd"
   xmlns:inkscape="http://www.inkscape.org/namespaces/inkscape"
   width="48"
   height="48"
   viewBox="0 0 12.7 12.7"
   version="1.1"
   id="svg8"
   inkscape:version="1.0.1 (3bc2e813f5, 2020-09-07)"
   sodipodi:docname="Icon_Powersocket.svg">
  <defs
     id="defs2" />
  <sodipodi:namedview
     id="base"
     pagecolor="#ffffff"
     bordercolor="#666666"
     borderopacity="1.0"
     inkscape:pageopacity="0.0"
     inkscape:pageshadow="2"
     inkscape:zoom="7.9195959"
     inkscape:cx="64.446148"
     inkscape:cy="43.698719"
     inkscape:document-units="mm"
     inkscape:current-layer="layer1"
     inkscape:document-rotation="0"
     showgrid="false"
     units="px"
     inkscape:snap-bbox="true"
     inkscape:bbox-paths="true"
     inkscape:bbox-nodes="true"
     inkscape:snap-bbox-edge-midpoints="true"
     inkscape:snap-bbox-midpoints="true"
     inkscape:object-paths="true"
     inkscape:snap-intersection-paths="true"
     inkscape:snap-smooth-nodes="true"
     inkscape:snap-midpoints="true"
     inkscape:snap-object-midpoints="true"
     inkscape:snap-center="true"
     inkscape:snap-text-baseline="true"
     inkscape:snap-page="true"
     inkscape:window-width="1920"
     inkscape:window-height="1017"
     inkscape:window-x="1912"
     inkscape:window-y="-7"
     inkscape:window-maximized="1" />
  <metadata
     id="metadata5">
    <rdf:RDF>
      <cc:Work
         rdf:about="">
        <dc:format>image/svg+xml</dc:format>
        <dc:type
           rdf:resource="http://purl.org/dc/dcmitype/StillImage" />
        <dc:title></dc:title>
      </cc:Work>
    </rdf:RDF>
  </metadata>
  <g
     inkscape:label="Ebene 1"
     inkscape:groupmode="layer"
     id="layer1">
    <path
       id="path102"
       style="fill:#ffffff;stroke:#56ac83;stroke-width:0;stroke-linejoin:round;paint-order:markers stroke fill"
       d="M 0.56321851,4.3189111e-5 A 0.57726907,0.57726907 0 0 0 4.3189111e-5,0.57731198 a 0.57726907,0.57726907 0 0 0 0,0.0140935 V 12.122687 A 0.57726907,0.57726891 0 0 0 0.57731198,12.699956 a 0.57726907,0.57726891 0 0 0 0.0140935,0 H 12.122687 a 0.57726891,0.57726891 0 0 0 0.577269,-0.577269 0.57726891,0.57726891 0 0 0 0,-0.01409 V 0.57731198 A 0.57726891,0.57726907 0 0 0 12.122687,4.3189111e-5 H 12.108594 0.57731198 a 0.57726907,0.57726907 0 0 0 -0.0140935,0 z M 1.3468158,0.86594637 a 0.49854711,0.49854711 0 0 1 0.00564,0 0.49854711,0.49854711 0 0 1 0.011839,0 h 9.9590142 0.0124 a 0.49854696,0.49854711 0 0 1 0.498345,0.49834533 v 9.9590143 a 0.49854696,0.49854696 0 0 1 0,0.0124 0.49854696,0.49854696 0 0 1 -0.498345,0.498344 H 1.3766939 a 0.49854711,0.49854696 0 0 1 -0.012402,0 0.49854711,0.49854696 0 0 1 -0.49834575,-0.49834 V 1.3766939 a 0.49854711,0.49854711 0 0 1 0,-0.012402 A 0.49854711,0.49854711 0 0 1 1.3468158,0.86594637 Z M 6.3499998,1.5875324 A 4.7624618,4.7624658 0 0 0 1.5875324,6.3499998 4.7624618,4.7624658 0 0 0 6.3499998,11.112468 4.7624618,4.7624658 0 0 0 11.112468,6.3499998 4.7624618,4.7624658 0 0 0 6.3499998,1.5875324 Z m 0,0.7215859 A 4.0408809,4.0408847 0 0 1 10.390881,6.3499998 4.0408809,4.0408847 0 0 1 6.3499998,10.390881 4.0408809,4.0408847 0 0 1 2.3091183,6.3499998 4.0408809,4.0408847 0 0 1 6.3499998,2.3091183 Z M 5.9170482,2.9134466 a 3.4636121,3.4636121 0 0 0 -3.030661,3.4365532 3.4636121,3.4636121 0 0 0 3.030661,3.4359896 V 8.8755509 A 0.43295113,0.43295113 0 0 1 6.3499998,8.4425993 0.43295113,0.43295113 0 0 1 6.7829514,8.8755509 V 9.7865531 A 3.4636121,3.4636121 0 0 0 9.8136126,6.3499998 3.4636121,3.4636121 0 0 0 6.7829514,2.9140103 V 3.8244489 A 0.43295113,0.43295113 0 0 1 6.3499998,4.2574005 0.43295113,0.43295113 0 0 1 5.9170482,3.8244489 Z M 4.3295591,5.6284139 A 0.72158552,0.72158558 0 0 1 5.051145,6.3499998 0.72158552,0.72158558 0 0 1 4.3295591,7.0715858 0.72158552,0.72158558 0 0 1 3.6079731,6.3499998 0.72158552,0.72158558 0 0 1 4.3295591,5.6284139 Z m 4.0408815,0 a 0.72158552,0.72158558 0 0 1 0.721586,0.7215859 0.72158552,0.72158558 0 0 1 -0.721586,0.721586 0.72158552,0.72158558 0 0 1 -0.721586,-0.721586 0.72158552,0.72158558 0 0 1 0.721586,-0.7215859 z" />
  </g>
</svg>
